<?xml version="1.0" encoding="UTF-8"?><svg id="a" xmlns="http://www.w3.org/2000/svg" viewBox="0 0 71.73 55"><defs><style>.b{fill:#fff;}</style></defs><rect class="b" y="53" width="71.44" height="2"/><path class="b" d="M65.12,51.41h-29.4v-2h7.53l4.56-17.17h23.92l-6.62,19.17Zm-19.8-2h18.37l5.24-15.17h-19.58l-4.03,15.17Z"/><path class="b" d="M33.04,54.4h-2v-11.2c0-2.33-.62-4.13-1.85-5.34-1.8-1.78-4.36-1.77-4.37-1.77H13.1c-7.49,0-7.74,5.4-7.74,5.63v12.37h-2v-12.39c0-.09,.25-7.6,9.74-7.6h11.7c.13,0,3.37-.03,5.77,2.33,1.64,1.61,2.46,3.89,2.46,6.78v11.2Z"/><rect class="b" x="8.96" y="44.74" width="2" height="9.66"/><rect class="b" x="24.81" y="44.33" width="2" height="10.06"/><path class="b" d="M36.31,36.91v-9.4c-1.82-.11-3.27-1.64-3.27-3.48V3.48c0-1.92,1.56-3.48,3.48-3.48h29.38c1.92,0,3.48,1.56,3.48,3.48V24.05c0,1.92-1.56,3.48-3.48,3.48h-18.84l-10.75,9.38Zm.21-34.91c-.82,0-1.48,.67-1.48,1.48V24.04c0,.8,.65,1.47,1.46,1.48l1.81,.03v6.96l8-6.98h19.59c.82,0,1.48-.67,1.48-1.48V3.48c0-.82-.67-1.48-1.48-1.48h-29.38Z"/><path class="b" d="M18.2,33.63c-5.08,0-9.21-4.13-9.21-9.21s4.13-9.21,9.21-9.21,9.21,4.13,9.21,9.21-4.13,9.21-9.21,9.21Zm0-16.42c-3.97,0-7.21,3.23-7.21,7.21s3.23,7.21,7.21,7.21,7.21-3.23,7.21-7.21-3.23-7.21-7.21-7.21Z"/><polygon class="b" points="45.19 22.94 38.93 16.68 40.34 15.26 45.27 20.19 63.5 3.96 64.83 5.46 45.19 22.94"/></svg>