<?xml version="1.0" encoding="UTF-8"?><svg id="a" xmlns="http://www.w3.org/2000/svg" viewBox="0 0 55.62 50.71"><defs><style>.b{fill:#fff;}</style></defs><path class="b" d="M22.77,45.55C10.22,45.55,0,35.33,0,22.77S10.22,0,22.77,0c10.59,0,19.7,7.19,22.15,17.48,.19,.79,.33,1.59,.44,2.39l-1.98,.25c-.09-.73-.23-1.46-.4-2.18-2.24-9.39-10.55-15.94-20.21-15.94C11.32,2,2,11.32,2,22.77s9.32,20.77,20.77,20.77c1.46,0,2.91-.15,4.32-.45l.41,1.96c-1.55,.33-3.14,.49-4.73,.49Z"/><path class="b" d="M22.93,26.3c-2.13,0-3.86-1.73-3.86-3.86s1.73-3.86,3.86-3.86,3.86,1.73,3.86,3.86-1.73,3.86-3.86,3.86Zm0-5.72c-1.02,0-1.86,.83-1.86,1.86s.83,1.86,1.86,1.86,1.86-.83,1.86-1.86-.83-1.86-1.86-1.86Z"/><rect class="b" x="21.77" y="10.12" width="2" height="9.46"/><rect class="b" x="16.1" y="28.94" width="8.75" height="2" transform="translate(-14.66 38.98) rotate(-70.06)"/><rect class="b" x="21.77" y="3.36" width="2" height="3.57"/><rect class="b" x="21.77" y="37.95" width="2" height="3.57"/><rect class="b" x="30.35" y="6.9" width="3.57" height="2" transform="translate(8.1 30.64) rotate(-57.22)"/><rect class="b" x="11.63" y="35.98" width="3.57" height="2" transform="translate(-24.94 28.24) rotate(-57.22)"/><rect class="b" x="36.32" y="13.43" width="3.57" height="2" transform="translate(-2.35 19.28) rotate(-27.57)"/><rect class="b" x="5.66" y="29.45" width="3.57" height="2" transform="translate(-13.25 6.9) rotate(-27.58)"/><rect class="b" x="3.69" y="21.44" width="3.57" height="2"/><rect class="b" x="6.56" y="12.44" width="2" height="3.57" transform="translate(-8.55 14.11) rotate(-61.62)"/><rect class="b" x="12.22" y="6.24" width="2" height="3.57" transform="translate(-2.23 8.64) rotate(-33.55)"/><path class="b" d="M41.65,50.71c-7.04,0-11.01-1.01-13.26-3.38-1.54-1.62-2.22-3.82-2.08-6.73,.38-7.76,7.79-13.35,8.11-13.58l.27-.2h12.15l.22,.11c.31,.16,7.65,4.06,8.47,12.35,.35,3.55-.29,6.18-1.96,8.02-2.13,2.35-5.8,3.39-11.92,3.39Zm-6.29-21.88c-1.25,1.02-6.76,5.82-7.05,11.88-.11,2.33,.39,4.05,1.53,5.25,1.81,1.91,5.46,2.75,11.81,2.75,5.43,0,8.74-.87,10.43-2.74,1.27-1.4,1.74-3.52,1.45-6.48-.64-6.48-6.09-10.01-7.21-10.66h-10.97Z"/><path class="b" d="M45.12,26.59h-8.28l-4.12-7.96,16.7-.06-4.3,8.01Zm-7.06-2h5.87l2.15-4-10.07,.04,2.05,3.97Z"/><path class="b" d="M42.08,43.4v1.13h-1.91v-1.13c-1.85-.22-3.02-1.14-3.19-2.87l2.34-.02c.18,.77,.85,1.2,1.83,1.2,.88,0,1.4-.46,1.4-1.03,0-.64-.42-.85-1.29-1.02l-1.53-.29c-1.47-.27-2.45-1.17-2.47-2.72-.02-1.58,1.22-2.63,2.92-2.91v-1.3h1.91v1.3c1.69,.31,2.72,1.46,2.68,2.86h-2.28c-.09-.7-.36-1.18-1.32-1.18-1.03,0-1.51,.44-1.51,.96s.26,.75,1.2,.97l1.51,.34c1.8,.4,2.55,1.47,2.55,3s-1.08,2.47-2.86,2.72Z"/></svg>