<?xml version="1.0" encoding="UTF-8"?><svg id="a" xmlns="http://www.w3.org/2000/svg" viewBox="0 0 54.14 57.79"><defs><style>.b{fill:#fff;}</style></defs><polygon class="b" points="47.78 57.79 38.51 55.27 44.76 32.45 54.14 34.23 53.76 36.2 46.2 34.76 40.97 53.87 48.3 55.86 47.78 57.79"/><path class="b" d="M44.43,35.66l-3.75-1.15-.2-.31c-.21-.33-5.26-8.18-6.27-10.79-1.17-3.03-.66-6.67,1.24-8.85,.21-.24,.28-.44-.01-.74-.58-.6-2.47-1.06-4.38,.52-2.74,2.27-4.21,5-3.92,7.31,.25,2.02,1.83,5.6,1.85,5.64l.81,1.82L6.87,23.96c-.26-.05-1.2-.12-1.65,1.13-.17,.47-.33,1.12-.09,1.52,.13,.22,.4,.41,.79,.55,.66,.24,8.39,2.2,13.43,3.46l-.48,1.94c-1.29-.32-12.66-3.16-13.63-3.52-.84-.31-1.45-.78-1.82-1.41-.51-.87-.53-1.95-.07-3.23,.87-2.39,2.98-2.62,3.96-2.4l19.11,4.29c-.5-1.31-1.1-3.09-1.27-4.4-.18-1.44-.08-5.2,4.63-9.09,2.58-2.14,5.63-1.86,7.09-.37,.98,1,1.01,2.39,.09,3.45-1.41,1.61-1.78,4.48-.88,6.81,.83,2.14,4.93,8.63,5.89,10.12l3.05,.93-.58,1.91Z"/><path class="b" d="M32.18,54.21c-2.85,0-10.96-2.14-13.28-2.99-.24-.09-.49-.17-.73-.25-1.96-.68-4.41-1.52-4.14-4.99,.11-1.34,.7-2.09,1.22-2.5-1.02-.81-1.77-1.99-1.58-3.62,.13-1.11,.63-2,1.43-2.58,.11-.08,.22-.15,.34-.22-.73-.7-1.25-1.73-1-3.26,.17-1.03,.66-1.86,1.43-2.39,1.38-.96,3.14-.65,3.34-.61l-.38,1.96c-.31-.06-1.24-.12-1.82,.29-.32,.22-.51,.57-.59,1.06-.22,1.36,.7,1.93,2.26,2.41,.14,.04,.26,.08,.35,.11l-.54,1.92c-.38-.08-1.54-.16-2.22,.33-.34,.25-.54,.64-.61,1.19-.23,1.89,2.21,2.6,2.89,2.76,.12,.02,.2,.04,.24,.05l-.43,1.95c-.08-.01-.17-.03-.25-.05-.4-.06-1.14-.1-1.59,.23-.11,.08-.43,.31-.49,1.11-.15,1.85,.7,2.22,2.79,2.94,.25,.09,.51,.17,.76,.27,2.16,.79,9.99,2.87,12.59,2.87h.03c2.32-.01,4.04-1.21,4.06-1.22l.42-.3,3.32,1.18-.67,1.88-2.37-.85c-.79,.46-2.54,1.29-4.74,1.3h-.03Z"/><rect class="b" x="10.66" y="15.31" width="2" height="2.63" transform="translate(-7.8 22.41) rotate(-71.51)"/><rect class="b" x="3.08" y="10.66" width="2" height="7.92" transform="translate(-11.1 14.38) rotate(-73.47)"/><rect class="b" x="12.45" y=".78" width="2" height="9.37" transform="translate(-1.05 6.18) rotate(-24.92)"/><rect class="b" x="20.87" y="9.42" width="5.1" height="2" transform="translate(4.71 27.95) rotate(-67.11)"/><rect class="b" x="24.21" y="1.8" width="5.22" height="2" transform="translate(14.16 26.61) rotate(-67.94)"/></svg>