<?xml version="1.0" encoding="UTF-8"?><svg id="a" xmlns="http://www.w3.org/2000/svg" viewBox="0 0 81 81"><defs><style>.b{fill:#f92256;}</style></defs><path class="b" d="M33.68,47.33c-3.54,3.2-9.02,2.76-12.18-.86-1.8-2.07-2.5-4.5-2.5-7.19,0-3.4,0-6.8,0-10.2,0-.36,.07-.53,.46-.58,1.61-.2,3.22-.42,4.83-.65,.44-.06,.37,.22,.37,.46,0,1.8,0,3.59,0,5.39,0,1.77-.02,3.55,0,5.32,.02,2.04,1.24,3.74,3.05,4.17,1.55,.37,2.94-.06,4.09-1.14,1.22-1.15,1.89-2.57,1.89-4.27,0-3.44,.02-6.89-.02-10.33,0-.64,.1-.91,.81-.97,1.51-.13,3.02-.36,4.52-.6,.49-.08,.55,.07,.54,.5-.01,4.69,0,9.38,0,14.07,0,2.41,.01,4.82,0,7.22-.03,4.83-3.15,9.56-7.52,11.22-4.01,1.53-7.71,.65-11.13-1.76-.57-.4-1.09-.87-1.59-1.36-.23-.22-.25-.38,.02-.61,1.34-1.13,2.67-2.27,3.98-3.44,.31-.28,.45-.1,.66,.08,1.58,1.38,3.45,1.83,5.48,1.58,2.2-.27,4.11-2.58,4.24-5.03,.02-.31,0-.63,0-1.04Z"/><path class="b" d="M58.01,34.07c.03-7.02,4.87-11.26,9.49-12.21,5.59-1.15,10.92,1.93,12.82,7.32,2.42,6.85-1.87,14.52-8.99,15.93-5.13,1.02-10.9-1.53-12.9-8.1-.31-1.01-.45-2.06-.42-2.94Zm10.84,4.68c3.01,.05,5.62-2.49,5.66-5.5,.03-2.76-1.99-4.91-4.68-4.96-2.98-.06-5.63,2.55-5.66,5.57-.03,2.7,2.03,4.85,4.68,4.89Z"/><path class="b" d="M8.15,36.51c-1.49,.18-2.84,.34-4.2,.5-1.11,.13-2.22,.26-3.33,.41-.32,.04-.4-.06-.4-.36,.01-1.69,.01-3.38,0-5.07,0-.33,.13-.43,.43-.47,3.6-.46,7.2-.94,10.79-1.41,1.4-.18,2.81-.35,4.2-.56,.39-.06,.47,.05,.47,.41-.01,1.39-.01,2.79,0,4.18,0,.35-.19,.59-.37,.85-2.54,3.58-5.08,7.16-7.61,10.74-.09,.13-.18,.27-.32,.49,1.78-.2,3.47-.38,5.16-.57,1.13-.13,2.27-.24,3.4-.38,.33-.04,.41,.07,.41,.37,0,1.75,0,3.51,0,5.26,0,.31-.14,.37-.42,.4-4.18,.41-8.36,.84-12.53,1.27-1.09,.11-2.18,.22-3.27,.35-.39,.05-.57-.01-.56-.47,.03-1.31,.02-2.62,0-3.93,0-.32,.13-.56,.3-.8,2.4-3.42,4.8-6.83,7.2-10.25,.19-.27,.37-.55,.63-.93Z"/><path class="b" d="M49.47,25.56c1.86-1.38,3.96-1.66,6.09-1.82,.5-.04,.6,.12,.59,.58-.03,1.35-.03,2.7,0,4.05,.01,.49-.09,.67-.63,.74-3.47,.41-5.77,2.57-6.17,5.93-.19,1.63-.08,3.29-.1,4.93-.04,2.32-.08,4.64-.1,6.96,0,.39-.1,.53-.52,.56-1.47,.09-2.94,.23-4.41,.38-.4,.04-.55-.04-.55-.48,.01-7.18,.01-14.35,0-21.53,0-.41,.13-.54,.53-.58,1.47-.17,2.93-.36,4.39-.57,.85-.12,.85-.14,.88,.86Z"/></svg>