<?xml version="1.0" encoding="UTF-8"?><svg id="a" xmlns="http://www.w3.org/2000/svg" viewBox="0 0 81 81"><path d="M53.84,71.57l-3.93-3.92c.18-.11,.4-.2,.55-.35,6.83-6.82,13.65-13.64,20.47-20.46,3.74-3.75,3.62-9.54-.27-12.98-3.45-3.05-8.72-2.88-12,.4-7.96,7.95-15.91,15.91-23.87,23.87-.18,.18-.33,.39-.44,.53l-3.97-3.89c.1-.07,.25-.14,.36-.25,8.08-8.08,16.14-16.18,24.25-24.22,2.99-2.96,6.68-4.28,10.88-3.95,6.6,.51,11.77,5.09,12.94,11.55,.87,4.78-.39,9.05-3.81,12.51-6.93,7.03-13.94,13.97-20.92,20.95-.08,.08-.16,.15-.25,.23Z"/><path d="M46.73,22.3l3.81,3.8c-.09,.1-.21,.23-.33,.35-8.02,8.02-16.01,16.08-24.09,24.05-4.07,4.02-9.04,5.17-14.45,3.41-5.37-1.75-8.6-5.61-9.54-11.19-.8-4.74,.59-8.91,3.98-12.32,6.84-6.89,13.73-13.74,20.59-20.61,.13-.13,.26-.28,.34-.37l3.91,3.91c-.09,.07-.31,.18-.47,.35-6.85,6.84-13.7,13.68-20.54,20.53-4.72,4.72-2.76,12.77,3.58,14.64,3.38,1,6.39,.22,8.88-2.26,8.01-7.97,15.99-15.97,23.98-23.96,.12-.12,.25-.24,.34-.32Z"/><path d="M60.53,16.05l-3.85,3.82c-.6-.6-1.23-1.24-1.86-1.88-1.14-1.14-2.48-1.93-4.04-2.29-3.21-.74-6.06,.02-8.4,2.35-7.98,7.95-15.94,15.92-23.9,23.89-.16,.16-.3,.33-.41,.45l-3.84-3.84c.07-.07,.18-.2,.3-.32,7.98-7.98,15.95-15.95,23.93-23.93,2.79-2.8,6.17-4.26,10.11-4.27,3.85-.02,7.19,1.33,9.97,4.03,.68,.66,1.34,1.34,2,1.99Z"/><path d="M62.93,38.46l3.98,4c-.15,.09-.36,.17-.5,.31-7.96,7.95-15.91,15.9-23.87,23.86-5.68,5.68-14.52,5.73-20.26,.1-.62-.61-1.24-1.23-1.83-1.81,1.29-1.29,2.56-2.55,3.85-3.85,.55,.55,1.13,1.13,1.71,1.71,3.64,3.64,9.07,3.63,12.72-.02,7.92-7.92,15.84-15.84,23.76-23.76,.17-.17,.29-.37,.43-.55Z"/></svg>