<?xml version="1.0" encoding="UTF-8"?><svg id="a" xmlns="http://www.w3.org/2000/svg" viewBox="0 0 81 81"><defs><style>.b{fill:#fe7a59;}</style></defs><path class="b" d="M30.52,77.3s.05-.07,0-.08c-.08-.03-.17-.04-.26-.06-2.49-.66-4.11-2.22-4.7-4.73-.78-3.32,1.27-6.59,4.58-7.42,1.03-.26,2.05-.25,3.07,.04,.17,.05,.28,.03,.41-.11,2.28-2.29,4.56-4.56,6.84-6.85,.19-.19,.2-.15,.04-.39-1.46-2.14-2.45-4.48-2.96-7.02-.41-2.03-.49-4.06-.24-6.12,.36-2.89,1.32-5.56,2.88-8.02,.18-.28,.19-.23-.08-.44-5.92-4.61-11.84-9.22-17.77-13.83-1.81-1.41-3.63-2.82-5.44-4.24-.18-.14-.3-.14-.5-.04-2.82,1.52-6.33,1.04-8.67-1.17-1.57-1.48-2.39-3.32-2.41-5.47-.04-3.91,2.78-6.99,6.36-7.58,4.08-.67,7.89,1.98,8.71,6.04,.21,1.03,.19,2.06-.06,3.08-.06,.24,0,.35,.18,.49,7.14,5.55,14.28,11.11,21.42,16.67,.72,.56,1.44,1.13,2.17,1.69,.24,.19,.17,.2,.44-.01,1.36-1.06,2.83-1.91,4.42-2.58,1.35-.56,2.74-.96,4.18-1.2,.26-.04,.26-.04,.26-.32,0-2.75,0-5.49,0-8.24,0-.18-.06-.28-.22-.36-1.85-.98-3.04-2.48-3.5-4.52-.87-3.88,1.43-7.25,4.77-8.15,4.06-1.1,7.75,1.33,8.56,4.96,.58,2.6-.08,4.87-2.03,6.72-.43,.41-.92,.74-1.45,1-.16,.08-.23,.17-.23,.36,0,2.76,0,5.51,0,8.27,0,.25,0,.25,.23,.29,7.45,1.22,13.5,6.71,15.44,14,.45,1.7,.7,3.43,.66,5.19-.14,5.44-2.16,10.06-6.11,13.8-2.61,2.46-5.69,4.04-9.21,4.77-1.68,.35-3.39,.47-5.11,.35-3.81-.25-7.23-1.52-10.3-3.79-.21-.15-.21-.15-.38,.02-2.26,2.26-4.52,4.52-6.78,6.78-.12,.12-.16,.22-.11,.39,.95,3.39-1.19,6.9-4.67,7.68-.08,.02-.16,0-.22,.07-.04,.04,0,.05,.02,.06h-2.27Zm15.74-30.39c0,5.47,4.41,9.88,9.92,9.84,5.41-.04,9.69-4.49,9.71-9.75,.01-5.65-4.46-9.88-9.67-9.94-5.49-.06-9.94,4.36-9.95,9.85Z"/></svg>