<?xml version="1.0" encoding="UTF-8"?><svg id="a" xmlns="http://www.w3.org/2000/svg" viewBox="0 0 81 81"><defs><style>.b{fill:#373536;}.c{fill:#fdcc3d;}</style></defs><path class="b" d="M11.55,46.13c.15-.55,.28-1.03,.4-1.51,1.1-4.18,2.18-8.36,3.3-12.52,.37-1.36,.78-2.72,1.53-3.93,.82-1.32,2.05-2.07,3.59-2.29,1.23-.17,2.41-.03,3.53,.57,1.31,.7,2.06,1.82,2.56,3.18,.86,2.36,1.43,4.79,2.08,7.2,.82,3.06,1.63,6.13,2.44,9.2,.13-.03,.1-.15,.12-.23,1.3-5.05,2.59-10.11,3.88-15.17,.25-.97,.5-1.94,.76-2.9,.2-.72,.54-1.37,1.04-1.93,.48-.52,1.1-.81,1.78-.95,1.18-.25,2.39-.34,3.59-.35,.25,0,.26,.07,.2,.28-1.24,4.71-2.47,9.43-3.7,14.14-1.34,5.12-2.67,10.24-4,15.35-.17,.64-.35,1.28-.49,1.93-.05,.21-.15,.26-.33,.27-.65,.04-1.3,0-1.94-.06-.51-.05-1.01-.15-1.47-.39-.78-.42-1.37-1.05-1.91-1.73-.74-.93-.99-2.08-1.45-3.14-.92-2.12-1.34-4.38-1.91-6.59-.98-3.77-1.92-7.54-2.88-11.31-.1-.37-.25-.73-.63-.91-.48-.23-1.03,0-1.21,.51-.23,.64-.37,1.31-.54,1.97-.77,2.96-1.53,5.93-2.3,8.9-.45,1.72-.88,3.45-1.34,5.17-.29,1.09-.75,2.12-1.13,3.19-.28,.77-.53,1.56-1.06,2.2-.79,.96-1.64,1.86-2.95,2.07-.8,.13-1.62,.17-2.43,.12-.17,0-.23-.09-.27-.24-.68-2.55-1.35-5.09-2.03-7.64-.71-2.67-1.42-5.34-2.13-8.01-1.09-4.08-2.17-8.17-3.26-12.25-.31-1.15-.61-2.3-.92-3.45-.09-.34-.08-.37,.3-.38,.56-.01,1.12-.03,1.68,0,.96,.06,1.91,.21,2.78,.65,.92,.47,1.57,1.16,1.88,2.17,.56,1.87,1,3.78,1.49,5.67,.78,3.01,1.55,6.02,2.33,9.03,.34,1.34,.69,2.67,1.06,4.09Z"/><path class="b" d="M81,24.51c-.37,.56-.71,1.07-1.06,1.59-2.1,3.12-4.2,6.24-6.3,9.37-1.09,1.62-2.18,3.24-3.27,4.86-.11,.16-.12,.26,0,.43,3.45,5.13,6.9,10.26,10.35,15.39,.08,.13,.17,.25,.28,.42-.2,0-.35,0-.5,0-1.02-.01-2.03,.02-3.05-.05-1.62-.11-3.01-.71-4.16-1.84-.34-.33-.56-.77-.82-1.16-1.62-2.43-3.24-4.86-4.86-7.3-.24-.36-.53-.67-.9-.91-.27-.17-.51-.15-.76,.01-.28,.18-.5,.42-.69,.7-1.82,2.6-3.52,5.27-5.26,7.92-.69,1.05-1.66,1.72-2.8,2.19-.56,.23-1.14,.3-1.73,.36-1.22,.13-2.44,.06-3.71,.07,.32-.48,.62-.93,.92-1.37,3.03-4.5,6.06-9,9.09-13.5,.22-.33,.44-.67,.68-1,.09-.12,.07-.2,0-.31-1.17-1.73-2.34-3.47-3.51-5.2-2.35-3.5-4.71-7-7.06-10.5-.03-.04-.09-.07-.05-.15,.92,.05,1.85,.11,2.78,.16,.6,.04,1.2,.09,1.81,.11,.72,.02,1.32,.34,1.9,.7,.82,.52,1.4,1.26,1.93,2.06,1.66,2.52,3.34,5.03,5.03,7.54,.24,.35,.54,.64,.96,.79,.11,.04,.2,.03,.31-.02,.43-.22,.8-.52,1.06-.93,1.76-2.74,3.59-5.44,5.45-8.12,.87-1.25,2.16-1.93,3.68-2.16,1.4-.21,2.81-.13,4.29-.15Z"/><path class="b" d="M49.37,29.64c0,.48,0,.89,0,1.31,0,7.13,0,14.26,0,21.39,0,1.43-.6,2.5-1.71,3.34-.71,.54-1.51,.78-2.39,.82-.48,.02-.95,.03-1.43,.06-.21,.01-.25-.05-.25-.26,0-3.46,0-6.93,0-10.39,0-3.91-.04-7.83-.03-11.74,0-.66,.37-1.19,.94-1.52,.65-.38,1.34-.71,2-1.07,.75-.41,1.53-.78,2.21-1.31,.22-.18,.42-.38,.66-.62Z"/><path class="c" d="M49.59,25.18c-.1,1.68-.69,3.17-1.91,4.35-.51,.49-1.16,.84-1.85,1.04-.54,.15-.97,.49-1.45,.73-.19,.09-.36,.23-.54,.35-.18,.13-.26,.04-.26-.13,0-.99,.08-1.98,.29-2.96,.16-.77,.46-1.48,.96-2.08,.65-.78,1.41-1.39,2.44-1.61,.54-.12,1.08-.23,1.62-.31,.15-.02,.27-.1,.42-.11,.2,0,.29,.08,.29,.27,0,.16,0,.31,0,.47Z"/></svg>