<?xml version="1.0" encoding="UTF-8"?><svg id="a" xmlns="http://www.w3.org/2000/svg" viewBox="0 0 81 81"><defs><style>.b{fill:#464342;}.c{fill:#494645;}.d{fill:#474443;}</style></defs><path class="c" d="M4.91,38.01c.25-.77,.22-1.59,.33-2.39,1.46-9.76,6.13-17.64,14.01-23.57,6.76-5.09,14.46-7.41,22.92-7.02,16.33,.75,29.98,12.52,33.21,28.53,3.82,18.93-8.45,37.59-27.37,41.63-19.06,4.07-37.81-7.8-42.2-26.73-.38-1.63-.63-3.28-.77-4.94-.01-.13,.05-.29-.12-.38v-5.14ZM40.47,6.62c-18.68,0-33.93,15.22-33.94,33.87,0,18.68,15.23,33.88,33.98,33.87,18.71,0,33.9-15.16,33.92-33.85,.02-18.68-15.24-33.9-33.96-33.89Z"/><path class="b" d="M15.04,23.82c10.06-15.66,32.32-18.39,45.91-5.85-.23,.03-.42,.06-.6,.08-2.49,.22-4.5,2.25-4.72,4.75-.14,1.56,.27,2.98,.96,4.35,.68,1.37,1.54,2.63,2.31,3.95,2.18,3.78,2.82,7.77,1.58,11.99-1.52,5.17-3.08,10.32-4.62,15.49-.02,.07-.08,.13-.15,.26-.88-2.61-1.75-5.16-2.61-7.72-2.73-8.09-5.44-16.18-8.19-24.27-.19-.57-.07-.67,.48-.69,.94-.04,1.87-.13,2.8-.24,.76-.09,1.2-.63,1.15-1.32-.05-.74-.55-1.19-1.37-1.15-2.98,.16-5.95,.44-8.93,.35-2.37-.07-4.73-.24-7.09-.35-.88-.04-1.4,.42-1.43,1.21-.02,.7,.36,1.17,1.06,1.25,.91,.11,1.83,.2,2.74,.26,.37,.02,.57,.14,.71,.51,1.47,4.05,2.95,8.1,4.43,12.14,.08,.23,.13,.43,.05,.7-2.17,6.45-4.32,12.91-6.48,19.37-.02,.06-.05,.11-.11,.25-.15-.41-.27-.75-.39-1.1-3.5-10.4-7-20.81-10.53-31.2-.2-.6-.03-.66,.49-.69,.9-.04,1.79-.13,2.68-.23,.86-.1,1.32-.61,1.26-1.35-.06-.78-.58-1.19-1.5-1.14-2.57,.15-5.13,.33-7.71,.36-.69,0-1.38,0-2.18,0Z"/><path class="b" d="M41,43.32c.22,.16,.23,.4,.31,.6,3,8.19,5.99,16.37,8.99,24.56,.29,.79,.29,.79-.51,1.04-5.71,1.77-11.46,1.89-17.25,.39-.57-.15-.61-.34-.43-.86,2.92-8.43,5.82-16.86,8.73-25.3,.05-.15,.11-.29,.17-.44Z"/><path class="d" d="M27.1,67.83c-14.74-7.08-21.15-24.8-14.53-39.57,.27,.38,14.15,38.17,14.53,39.57Z"/><path class="d" d="M55.85,66.8c.88-2.53,1.71-4.94,2.55-7.35,2.56-7.37,5.15-14.74,7.68-22.12,1.18-3.45,1.63-7.01,1.29-10.65-.01-.12-.01-.24,.05-.37,3.03,5.61,4.13,11.61,3.36,17.92-1.29,10.58-7.75,18.43-14.93,22.57Z"/><polygon class="d" points="67.33 26.13 67.32 26.09 67.35 26.1 67.33 26.13"/></svg>