<?xml version="1.0" encoding="UTF-8"?><svg id="a" xmlns="http://www.w3.org/2000/svg" viewBox="0 0 81 81"><defs><style>.b{fill:#0173eb;}.c{fill:#091d27;}</style></defs><path class="b" d="M72.13,38.68c.1,3.81-1.05,8.11-3.02,12.23-.57,1.2-1.41,1.91-2.63,2.44-17.28,7.54-36.44-2.16-40.38-20.57-1.46-6.79,0-13.16,3.27-19.2,.48-.89,1.3-1.19,2.1-1.56,18.95-8.92,40.55,4.84,40.66,26.67Z"/><path class="c" d="M24.85,11.29c-1.53,3.52-3.01,6.89-3.63,10.59-1.88,11.28,1.11,20.98,9.14,29.19,5.14,5.25,11.44,7.96,18.55,9.29,3.59,.67,7.16,.36,10.69,.19,2.56-.12,5.06-1.54,7.59-2.39,.55-.19,1.1-.74,1.61,.09,.43,.69-.2,1.02-.5,1.4-11.4,14.6-35.1,16.29-48.65,3.48C3.76,48.1,5.68,24.24,23.78,11.83c.33-.22,.71-.36,1.07-.54Z"/></svg>