<?xml version="1.0" encoding="UTF-8"?><svg id="a" xmlns="http://www.w3.org/2000/svg" viewBox="0 0 81 81"><defs><style>.b{fill:#fff;}</style></defs><path class="b" d="M21.65,56.52c-2.01-5.96-3.76-11.08-5.47-16.22-2.31-6.94-4.5-13.91-6.95-20.8-.54-1.51-1.7-3.18-3.05-3.91-.92-.5-3.36,.09-3.85,.93-.75,1.27-.92,3.38-.42,4.81,4.9,13.97,10.01,27.87,15.01,41.8,.8,2.23,1.75,4.11,4.48,4.2,2.84,.09,3.76-1.93,4.52-4.11,2.51-7.26,4.99-14.53,7.5-21.79,1.62-4.67,3.27-9.32,5.11-14.54,.45,1.26,.68,1.86,.89,2.47,3.91,11.47,7.84,22.94,11.73,34.42,.68,2.01,1.76,3.42,4.07,3.56,2.32,.14,3.72-1.09,4.44-3.06,5.29-14.52,10.54-29.05,15.74-43.61,.96-2.69,.08-4.62-2.02-5.25-2.37-.71-4,.29-4.96,3.13-2.66,7.89-5.28,15.79-7.94,23.69-1.52,4.51-3.08,9-4.86,14.2-.58-1.56-.91-2.39-1.19-3.23-3.84-11.4-7.7-22.8-11.5-34.22-.74-2.23-1.79-3.78-4.44-3.74-2.59,.04-3.43,1.76-4.11,3.8-2.26,6.76-4.53,13.51-6.81,20.26-1.85,5.47-3.74,10.92-5.89,17.2Zm46.51,5.38c-.04,3.19,2.32,5.64,5.5,5.7,3.09,.06,5.68-2.47,5.7-5.56,.02-3.1-2.5-5.67-5.58-5.69-3.24-.03-5.58,2.29-5.63,5.55Z"/><path d="M21.65,56.52c2.15-6.28,4.04-11.74,5.89-17.2,2.29-6.75,4.56-13.5,6.81-20.26,.68-2.03,1.52-3.75,4.11-3.8,2.65-.04,3.7,1.51,4.44,3.74,3.79,11.42,7.65,22.82,11.5,34.22,.28,.84,.61,1.67,1.19,3.23,1.78-5.2,3.34-9.7,4.86-14.2,2.66-7.89,5.28-15.8,7.94-23.69,.96-2.84,2.59-3.84,4.96-3.13,2.1,.63,2.98,2.56,2.02,5.25-5.2,14.55-10.45,29.09-15.74,43.61-.72,1.97-2.12,3.21-4.44,3.06-2.31-.14-3.39-1.56-4.07-3.56-3.89-11.48-7.81-22.95-11.73-34.42-.21-.61-.43-1.21-.89-2.47-1.84,5.23-3.49,9.88-5.11,14.54-2.51,7.26-5,14.53-7.5,21.79-.75,2.18-1.68,4.2-4.52,4.11-2.73-.09-3.68-1.97-4.48-4.2C11.93,49.2,6.81,35.31,1.92,21.33c-.5-1.43-.32-3.54,.42-4.81,.49-.84,2.93-1.43,3.85-.93,1.35,.73,2.51,2.39,3.05,3.91,2.45,6.89,4.64,13.86,6.95,20.8,1.71,5.13,3.45,10.25,5.47,16.22Z"/><path d="M68.16,61.9c.04-3.26,2.39-5.58,5.63-5.55,3.08,.02,5.6,2.59,5.58,5.69-.02,3.09-2.62,5.62-5.7,5.56-3.18-.06-5.54-2.51-5.5-5.7Z"/></svg>