<?xml version="1.0" encoding="UTF-8"?><svg id="a" xmlns="http://www.w3.org/2000/svg" viewBox="0 0 81 81"><defs><style>.b{fill:#171a3d;}.c{fill:#2f90ea;}.d{fill:#191938;}.e{fill:#ef6a21;}.f{fill:#2f90e9;}.g{fill:#e6ab40;}.h{fill:#2b578c;}.i{fill:#fece02;}.j{fill:#305888;}.k{fill:#eaedf2;}.l{fill:#eceaea;}.m{fill:#fd9142;}.n{fill:#fdce03;}</style></defs><path class="c" d="M39.65,75.11h-1.46c-.09-.14-.23-.08-.35-.09-2.4-.2-4.77-.61-7.08-1.3-1.6-.47-3.16-1.02-4.66-1.76-.1-.97-.33-1.91-.63-2.84-.51-1.55-1.23-3-1.94-4.46,.72-.95,1.45-1.89,2.15-2.85,1.22-1.66,2.39-3.36,3.27-5.23,.18-.39,.36-.79,.37-1.27-.06,.04-.09,.04-.1,.06-.04,.06-.09,.13-.13,.19-1.32,2.35-3.19,4.21-5.23,5.93-.46,.39-.97,.7-1.37,1.15-.76,.52-1.52,1.03-2.28,1.55-.2,.14,0,.22,.07,.28,.38,.29,.71,.62,1.02,.98,1.17,1.34,2.1,2.84,3.02,4.34,.36,.59,.77,1.15,1.03,1.79-.15,0-.27-.08-.39-.14-4.07-2.06-7.61-4.81-10.61-8.25-1.21-1.39-2.33-2.86-3.27-4.45,.03-.03,.06-.05,.08-.08,2.08-2.99,4.44-5.73,7.14-8.18,.16-.15,.21-.3,.21-.51,0-.62-.18-1.22-.19-1.83,0-.45-.21-.71-.64-.87-.94-.36-1.92-.54-2.89-.77-.76-.18-1.52-.36-2.2-.78-.88-.56-1.14-1.4-.73-2.36,.34-.8,.89-1.47,1.47-2.1,1.62-1.75,3.46-3.24,5.38-4.63,.46-.33,.63-.83,.18-1.35-.68-.77-1.5-1.3-2.4-1.77-.56-.29-1.13-.54-1.63-.93-.93-.73-.99-1.52-.2-2.39,.7-.76,1.52-1.37,2.36-1.96,2.89-2.02,5.97-3.74,9.07-5.41,.25-.13,.38-.3,.45-.57,.57-2.21,1.29-4.37,2.24-6.45,.82-1.79,1.78-3.5,3.23-4.87,.83-.78,1.77-1.36,2.93-1.49,1.81-.2,3.31,.47,4.6,1.7,1.06,1.01,1.86,2.22,2.48,3.54,.08,.16,.13,.31,.37,.31,2.64,.06,5.06,.84,7.32,2.16,.24,.14,.33,.09,.48-.12,.58-.76,1.28-1.37,2.31-1.4,1.17-.04,1.94,.64,2.57,1.51,.9,1.24,1.37,2.66,1.69,4.13,.54,2.46,.59,4.95,.33,7.45-.04,.36,.01,.52,.42,.61,1.88,.42,3.34,1.45,4.35,3.1-.58,.28-1.22,.43-1.72,.88h0c-.11,0-.18,.06-.23,.15h0c-.15,.02-.28,.1-.44,.05-.76-.23-1.51-.45-2.27-.66-.65-.18-1.28-.41-1.96-.49l-.16-.02c-.7-.25-1.42-.24-2.15-.2-.36,.02-.74-.01-1.07,.2l-.15,.03c-.48,.08-.93,.25-1.3,.57h-.02s-.08,.01-.09,.06c-.03,0-.05,.01-.05,.04-.09-.01-.14,.03-.18,.1h0c-.07,0-.11,.04-.13,.1h0c-.1,0-.15,.04-.18,.13-.02,0-.04,.01-.05,.03-.09,0-.14,.04-.15,.13h0c-.19,.06-.31,.19-.4,.36h0c-.08,.03-.13,.07-.14,.16h0c-.18,.12-.34,.24-.38,.46h0s-.07,.04-.07,.08h0c-.09,.03-.13,.08-.12,.17-.03,0-.04,.03-.04,.05-.09,.05-.14,.14-.15,.25-.02,0-.03,.02-.03,.04-.29,.35-.42,.76-.46,1.2v.16c-.19,.63-.07,1.24,.12,1.84,.04,.12,.15,.27-.07,.34l-.16-.02c-.14-.05-.28-.12-.43-.15-1.53-.32-3.02-.79-4.45-1.42-.48-.21-.95-.44-1.42-.66,0-.02-.03-.04-.05-.04-.01-.05-.05-.06-.1-.05h-.01c-.06-.12-.15-.18-.28-.18h0c-.3-.3-.66-.52-1.02-.73,0-.02-.03-.04-.05-.04-.06-.15-.17-.24-.33-.28h-.01c0-.05-.02-.08-.07-.07v-.02c-.02-.09-.08-.13-.16-.14v-.02c-.04-.11-.12-.19-.23-.22h-.01c-.03-.17-.13-.27-.28-.33h0c0-.05-.02-.08-.07-.08h0c-.28-.54-.61-1.05-1.02-1.51h0c0-.1-.04-.15-.11-.19h0c-.05-.19-.16-.34-.31-.46h0c0-.07-.03-.11-.1-.13h0c-.11-.29-.27-.54-.51-.73,0-.03-.01-.04-.04-.05,.01-.09-.03-.14-.12-.17h0c0-.07-.03-.11-.1-.13h0c0-.06,0-.09-.06-.09h0c0-.06-.02-.08-.07-.09,0-.03-.01-.04-.04-.06,0-.14-.09-.23-.22-.29l-.02-.02c-.07-.24-.22-.42-.41-.56h0c0-.07-.03-.11-.1-.13h0c0-.14-.08-.22-.2-.26h0c0-.05-.02-.08-.07-.08h0c-.07-.23-.22-.38-.41-.5h-.01c0-.06-.01-.08-.06-.08h0c0-.14-.09-.21-.21-.25h0c0-.05-.02-.08-.07-.08h0c0-.05-.02-.08-.07-.08h0c0-.06-.02-.08-.07-.08h0c-.09-.24-.26-.4-.48-.52h0c-.09-.22-.24-.37-.46-.46h-.01c0-.1-.06-.15-.15-.15h-.01c0-.08-.05-.12-.12-.11l-.02,.02,.02-.02c-.06-.15-.17-.24-.33-.27h0c0-.09-.06-.11-.13-.1h0c-.25-.31-.56-.53-.94-.66,0-.03-.03-.04-.05-.04-.01-.05-.05-.06-.09-.05h-.02c-.04-.12-.14-.15-.23-.19-1.72-.82-3.51-.8-5.31-.35-.6,.15-1.18,.41-1.61,.9h0s-.07,.03-.07,.08h0s-.07,.01-.08,.06h0c-.07,0-.1,.05-.11,.11l-.09,.09s-.07,.02-.06,.07h-.01c-.05,0-.07,.03-.07,.08h0s-.07,.03-.07,.08h0c-.24,.18-.42,.41-.53,.69-.02,.01-.03,.03-.03,.06-.03,.02-.08,.03-.09,.06-.68,1.1-1.13,2.29-1.28,3.57-.18,1.55,.04,3.06,.61,4.51,.26,.65,.49,1.31,.93,1.87h0c-.01,.06,0,.09,.05,.1h0c.09,.3,.25,.56,.46,.79,0,.02,.01,.04,.04,.04,.03,.18,.11,.31,.27,.4h0c0,.11,.05,.19,.15,.23h0c0,.11,.05,.19,.15,.23h0c.01,.11,.05,.19,.16,.23l.05,.06c.01,.16,.11,.26,.24,.33h0c0,.08,.04,.11,.1,.12h0c.01,.16,.09,.25,.22,.3h.01c-.01,.06,.01,.08,.06,.09h0c0,.11,.04,.16,.13,.17l.04,.06s0,.07,.05,.06l.08,.09c.03,.16,.13,.27,.28,.33,0,.03,.01,.04,.04,.05,0,.09,.05,.13,.13,.15h0c.06,.2,.19,.32,.35,.41h0c0,.05,.03,.07,.07,.07h0c0,.05,.01,.08,.06,.09h0c.01,.07,.05,.1,.11,.11l.09,.09s.02,.07,.07,.07h0c.44,.59,.95,1.1,1.53,1.54l.09,.08c0,.07,.04,.1,.11,.11h0c.03,.09,.08,.17,.18,.18,0,.02,.03,.04,.05,.04,0,.05,.03,.08,.08,.08h0c.1,.16,.21,.3,.4,.36h0c.01,.1,.06,.15,.15,.14h.01c0,.08,.04,.12,.11,.12h0c0,.05,.03,.07,.08,.07h0c.06,.15,.16,.25,.32,.29h0c0,.05,.02,.08,.07,.07h0c0,.06,.02,.08,.07,.06,.01,.02,.03,.04,.06,.04,0,.05,.02,.08,.07,.08h0c.06,.11,.12,.2,.25,.2h0c0,.05,.02,.08,.07,.06l.11,.09c0,.07,.04,.1,.11,.1h0c.04,.12,.11,.2,.24,.21h.01c.03,.11,.07,.2,.08,.3,.16,1.75,.67,3.41,1.33,5.02,.82,1.99,1.88,3.87,2.73,5.84,1.12,2.6,2.11,5.24,2.88,7.97,.2,.7,.31,1.42,.59,2.1l.02,.16c0,.06-.02,.13,0,.19,.19,.77,.32,1.55,.47,2.32,.1,.5,.09,1.02,.28,1.49l.02,.23c-.05,.18,0,.35,.02,.53,.09,.92,.23,1.85,.18,2.78Zm10.67-50.37c-.16,.04-.19,.2-.24,.32-.32,.66-.58,1.34-.85,2.02-.13,.33-.09,.44,.28,.48,1.71,.16,3.4,.44,5.08,.8,.27,.06,.36,.05,.3-.28-.43-2.44-.7-4.89-.8-7.37-.01-.35-.15-.31-.37-.18-.94,.56-1.67,1.35-2.3,2.23-.02,.03-.01,.09-.02,.14-.57,.49-.92,1.11-1.09,1.84Zm-9.31,1.98c.34,.06,.24-.13,.18-.31-.83-2.53-1.91-4.94-3.49-7.11-.84-1.16-1.79-2.21-2.98-3.02-.1-.07-.21-.2-.33-.13-.1,.06-.04,.21-.05,.32-.01,1.17-.16,2.32-.4,3.47-.43,1.96-1.1,3.84-1.96,5.65-.06,.14-.27,.34,.13,.32,1.77-.06,3.53,.13,5.29,.33,1.21,.14,2.41,.32,3.62,.47Z"/><path class="d" d="M61.9,32.44c-1.01-1.65-2.47-2.68-4.35-3.1-.41-.09-.46-.25-.42-.61,.26-2.5,.21-4.99-.33-7.45-.32-1.47-.79-2.89-1.69-4.13-.63-.87-1.39-1.55-2.57-1.51-1.04,.03-1.73,.63-2.31,1.4-.15,.2-.24,.25-.48,.12-2.26-1.32-4.69-2.11-7.32-2.16-.24,0-.3-.15-.37-.31-.62-1.32-1.41-2.52-2.48-3.54-1.29-1.23-2.79-1.89-4.6-1.7-1.16,.13-2.1,.71-2.93,1.49-1.46,1.37-2.41,3.08-3.23,4.87-.95,2.08-1.67,4.24-2.24,6.45-.07,.27-.2,.43-.45,.57-3.11,1.67-6.18,3.39-9.07,5.41-.84,.59-1.66,1.2-2.36,1.96-.8,.87-.73,1.65,.2,2.39,.5,.39,1.08,.64,1.63,.93,.89,.46,1.72,1,2.4,1.77,.45,.52,.28,1.02-.18,1.35-1.92,1.39-3.77,2.88-5.38,4.63-.58,.63-1.13,1.3-1.47,2.1-.41,.96-.15,1.8,.73,2.36,.67,.43,1.44,.6,2.2,.78,.97,.23,1.95,.41,2.89,.77,.43,.17,.64,.42,.64,.87,0,.62,.19,1.21,.19,1.83,0,.2-.05,.36-.21,.51-2.7,2.45-5.06,5.19-7.14,8.18-.02,.03-.05,.06-.08,.08-.07-.09-.14-.18-.2-.28-2.76-4.58-4.4-9.52-4.88-14.85-.03-.32,.04-.66-.14-.96v-4.23c.11-.05,.07-.15,.08-.23,.12-2.08,.43-4.13,.96-6.14,2.42-9.19,7.68-16.28,15.78-21.23,4.52-2.77,9.45-4.32,14.72-4.8,.33-.03,.68,.04,1-.13h4.23c.03,.1,.12,.08,.19,.08,2.29,.15,4.55,.52,6.77,1.14,6.77,1.87,12.47,5.45,17.06,10.75,4.86,5.62,7.62,12.16,8.31,19.57,.03,.33-.04,.68,.13,1v4.15c-.1,.03-.07,.12-.08,.19-.05,.59-.09,1.17-.16,1.76-.68,5.83-2.73,11.15-6.11,15.95-.07,.1-.12,.23-.25,.28-.3-.5-.71-.9-1.1-1.33-.69-.76-1.36-1.53-2.14-2.2l-.02-.12s.02-.02,.02-.03c.07-.04,.08-.1,.09-.17,.06-.04,.08-.1,.07-.16h0c.06-.03,.07-.08,.07-.15,.23-.45,.32-.94,.36-1.44,.1-1.45-.38-2.71-1.26-3.84-.77-.99-1.63-1.9-2.56-2.75-1.25-1.14-2.52-2.24-3.96-3.14-.42-.27-.87-.49-1.21-.94l2.16-.12c1.29,0,2.57-.16,3.85-.26,.43,.75,.73,1.55,.9,2.4,.05,.25,.11,.5,.2,.74,.28,.84,.93,1.02,1.63,.45,.35-.29,.59-.67,.77-1.08,.57-1.25,.82-2.58,.97-3.93,.68-.5,1.32-1.04,1.75-1.8,.88-1.56,.99-3.23,.65-4.94-.21-1.04-.8-1.87-1.64-2.51-.02-.06-.07-.09-.13-.1h0l-.09-.07h0c-.08-.11-.19-.18-.32-.21h0c-.03-.06-.08-.09-.15-.09h0c-.03-.06-.09-.08-.15-.08h0c-.04-.06-.09-.08-.16-.07h0c-.03-.06-.09-.08-.16-.08-.01-.02-.03-.03-.05-.02-.05-.06-.11-.07-.18-.07h0c-.05-.07-.13-.09-.22-.09h0c-.11-.1-.25-.13-.39-.14-.01-.02-.03-.02-.04,0-.87-.28-1.76-.37-2.67-.21h0c-.16,0-.32-.02-.47,.06h0c-.15,0-.31,0-.45,.09l-.24,.05-.35,.06Z"/><path class="i" d="M39.45,71.8l-.02-.23c.12-.16,.06-.34,.03-.51-.14-.8-.26-1.6-.45-2.39-.09-.37-.03-.79-.33-1.1l-.02-.16c.16-.32-.06-.6-.13-.87-.39-1.47-.82-2.92-1.32-4.36-.77-2.26-1.68-4.47-2.71-6.63-1.13-2.35-2.36-4.65-2.95-7.22-.1-.45-.26-.9-.19-1.41,.07,.04,.1,.06,.12,.08,.84,1.16,1.77,2.24,2.69,3.33,1.19,1.41,2.45,2.75,3.74,4.06,.34,.35,.68,.69,1.04,1.03,.17,.17,.17,.28-.02,.43-.47,.36-.91,.75-1.31,1.18-.13,.14-.27,.28-.31,.48,.1,.05,.15,.02,.21-.02,.64-.4,1.31-.73,1.98-1.07,.23-.12,.4-.11,.58,.07,.93,.89,1.93,1.71,2.93,2.53,1.52,1.24,3.13,2.38,4.81,3.41,1.31,.8,2.67,1.55,4.11,2.1,.2,.07,.44,.09,.6,.33-.15,.04-.25,.08-.37,.09-1.29,.06-2.55,.31-3.8,.61-1.5,.36-2.96,.85-4.35,1.52-.62,.3-1.22,.63-1.82,.95l-.08,.07-.16,.08c-.56,.1-.87,.57-1.29,.88-.03,.02-.05,.1-.04,.13,.05,.09,.16,.08,.24,.05,.23-.1,.45-.24,.68-.34,.13-.06,.32-.03,.34-.24l.16-.02c.1,0,.2,0,.23-.14,.5-.19,1-.4,1.5-.57,.58-.19,1.16-.39,1.76-.51,.68-.14,1.37-.28,2.07-.36,.98-.1,1.95-.24,2.93-.27,1.24-.05,2.48,.06,3.71,.18,.44,.04,.98-.03,1.3,.43v.25c0,.06-.04,.12-.04,.18,.03,.84,.02,1.69,.1,2.52,.03,.35-.04,.71,.11,1.05l.03,.14-.02,.02c-4.42,2.17-9.1,3.26-14,3.53h-1.92c.05-.93-.13-1.84-.17-2.77,0-.18,.03-.42-.18-.54Z"/><path class="l" d="M41.73,75.11c4.9-.27,9.58-1.37,14-3.53,0,.16-.13,.19-.25,.25-1.12,.56-2.28,1.06-3.47,1.46-1.59,.54-3.21,.97-4.86,1.29-.9,.18-1.81,.27-2.71,.43-.29,.05-.59-.07-.86,.09h-1.85Z"/><path class="g" d="M39.45,71.8c.22,.13,.17,.37,.18,.54,.04,.92,.23,1.84,.17,2.77h-.15c.06-.93-.09-1.86-.18-2.78-.02-.18-.07-.35-.02-.53Z"/><path class="n" d="M62.9,44.09c-1.28,.1-2.56,.26-3.85,.26-.6,0-1.2,0-1.8,0-.43,0-.76,.23-1.07,.48-.11-.03-.2,.03-.29,.06-.46,.17-.92,.3-1.4,.39-1.02,.19-2.04,.14-3.06,0-.93-.13-1.82-.39-2.7-.72-2.72-1.02-5.21-2.46-7.63-4.06-.55-.37-1.06-.8-1.66-1.1-.03-.14-.16-.19-.26-.27-1.45-1.09-2.85-2.25-4.16-3.5-1.28-1.22-2.48-2.51-3.51-3.95-.13-.18-.33-.33-.18-.57,.18-.29,.34-.62,.75-.64,.37-.02,.73,0,1.08,.17,0-.09,.02-.11,0-.14-.01-.03-.04-.07-.06-.09-.81-.79-1.74-1.39-2.9-1.39-2.44,0-3.76,2.26-3.66,4.32,.03,.72,.19,1.41,.43,2.09,.03,.09,.02,.23,.16,.22,.16,0,.15-.15,.15-.26-.02-.41,.12-.78,.24-1.16,.14-.44,.33-.86,.76-1.12,.35-.21,.5-.17,.62,.22,.16,.55,.32,1.1,.53,1.64,.49,1.27,1.14,2.46,1.85,3.61,.24,.39,.47,.78,.79,1.11,.77,1.23,1.74,2.31,2.72,3.37,1.56,1.68,3.29,3.18,5.13,4.56,1.68,1.26,3.43,2.42,5.21,3.53,2.24,1.4,4.52,2.72,6.97,3.71,1.88,.76,3.81,1.31,5.87,.99,1.37-.22,2.7-.6,3.94-1.24,.5-.19,.94-.47,1.32-.82,.6-.56,1-1.38,.56-2.19-.21-.38-.45-.74-.71-1.07-1.1-1.42-2.45-2.59-3.77-3.8-.42-.39-.84-.78-1.27-1.16-.2-.18-.03-.16,.09-.18,1.44,.9,2.71,2,3.96,3.14,.93,.85,1.79,1.75,2.56,2.75,.88,1.13,1.36,2.39,1.26,3.84-.03,.5-.13,.99-.36,1.44-.08,.03-.09,.08-.07,.16h0c-.08,.02-.1,.08-.07,.15-.09,.02-.1,.09-.09,.17,0,.02,0,.03-.02,.03-.19,.11-.34,.25-.35,.49h0c-.08,0-.1,.05-.1,.12h-.01l-.06,.08h-.01l-.07,.07h-.02c-.07,0-.11,.04-.11,.11h0s-.08,.02-.08,.07h0c-.1-.02-.15,.03-.16,.13-.01,.02-.03,.03-.06,.03-.6,.21-1.22,.32-1.84,.44-.29,.06-.64,.02-.87,.28l-.16,.02c-.18-.12-.3-.04-.38,.13l-.15,.03c-.05-.06-.11-.07-.17-.05-.35,.13-.7,.25-1.04,.39-.91,.37-1.83,.72-2.81,.89-.64,.11-1.29,0-1.91,.1-.55,.09-1.05-.04-1.54-.17-1.84-.52-3.55-1.36-5.22-2.28-1.11-.61-2.18-1.27-3.25-1.94-1.36-.86-2.72-1.71-4.03-2.63-1.29-.91-2.57-1.84-3.86-2.75-1.55-1.09-3.06-2.22-4.56-3.37-.46-.35-.91-.74-1.36-1.1h-.01c-.01-.16-.09-.23-.24-.21h0c0-.07-.05-.1-.11-.1l-.11-.09-.07-.05h0c-.01-.16-.09-.24-.25-.2h0c0-.06-.02-.08-.07-.09-.03,0-.05-.02-.06-.04l-.07-.06h0l-.07-.07h0c-.03-.19-.12-.3-.32-.29h0c0-.05-.03-.07-.08-.07h0c0-.08-.04-.11-.11-.11h-.01c0-.11-.06-.15-.15-.15h0c-.05-.22-.16-.36-.4-.36h0c0-.05-.02-.08-.08-.08-.03,0-.04-.02-.05-.04-.01-.11-.05-.19-.18-.17h0c0-.09-.04-.12-.11-.11l-.09-.08c-.21-.44-.62-.69-.93-1.03-.18-.19-.31-.44-.6-.5h0l-.07-.08-.09-.09c0-.07-.03-.11-.11-.1h0c.01-.06,0-.08-.06-.09h0c0-.06-.03-.08-.07-.07h0c0-.25-.15-.35-.35-.41h0c0-.1-.04-.15-.13-.16-.02,0-.04-.03-.04-.05,0-.2-.1-.3-.28-.33l-.08-.09-.05-.06-.04-.06c.01-.1-.03-.16-.13-.16h0l-.06-.08h-.01c0-.17-.05-.29-.22-.31h0c0-.08-.02-.13-.1-.13h0c.04-.2-.08-.29-.24-.34l-.05-.06c.01-.12-.02-.21-.16-.22h0c.03-.13,0-.22-.15-.23h0c.03-.13,0-.22-.15-.23h0c0-.21-.09-.34-.27-.41-.02,0-.04-.02-.04-.04-.04-.33-.2-.59-.46-.78h0c.01-.05,0-.08-.05-.1h0c.03-.17-.06-.28-.12-.41-.57-1.13-1.01-2.3-1.22-3.56-.29-1.68-.04-3.26,.6-4.82,.18-.42,.49-.78,.58-1.24,0-.03,0-.04,.03-.06,.27-.16,.46-.37,.53-.68h0l.07-.08h0l.07-.08h.01l.06-.08,.09-.09c.07,0,.12-.02,.11-.11h0s.08-.01,.08-.06h0s.07-.03,.07-.08h0c.1,.02,.17-.04,.24-.09,1.79-1.21,3.74-1.14,5.73-.7,.42,.09,.74,.4,1.18,.42h.02l.09,.06s.04,.01,.05,.04c.26,.29,.55,.54,.94,.66h0c.01,.08,.06,.1,.13,.1h0c.04,.19,.13,.3,.33,.29l-.02,.02,.02-.02c0,.08,.05,.1,.12,.11h.01c0,.1,.05,.15,.15,.15h.01c.07,.24,.22,.39,.46,.46h0c.07,.26,.24,.42,.48,.52h0c0,.05,.02,.08,.07,.08h0c0,.06,.02,.08,.07,.08h0c0,.05,.02,.08,.07,.08h0c-.02,.16,.06,.23,.21,.25h0l.06,.08h.01c.02,.28,.18,.42,.41,.51h0c0,.06,.01,.08,.07,.08h0c-.03,.16,.05,.24,.2,.25h0c0,.08,.02,.13,.1,.13h0c.03,.27,.17,.46,.41,.57l.02,.02c0,.15,.05,.27,.22,.29,.02,.01,.04,.03,.04,.06,0,.05,.02,.08,.07,.08h0l.06,.09h0c0,.08,.02,.13,.1,.14h0c-.03,.11,0,.16,.12,.18,.02,0,.04,.02,.04,.05,.05,.32,.24,.55,.51,.72h0c0,.09,.02,.13,.1,.14h0c0,.23,.08,.39,.31,.46h0c-.03,.11,0,.17,.11,.18h0c.05,.37,.32,.61,.5,.89,.15,.22,.22,.52,.52,.62h0c0,.05,.02,.08,.07,.08h0c0,.2,.11,.29,.28,.32h.01c0,.15,.08,.22,.21,.23v.02c.02,.09,.07,.14,.16,.14v.02l.08,.06h.01c.03,.19,.13,.3,.33,.29,.03,0,.04,.01,.05,.04,.23,.39,.59,.6,1.02,.73h0c.04,.15,.15,.19,.28,.17h.01l.1,.06s.04,.01,.05,.04c.36,.38,.85,.54,1.3,.75,1.27,.59,2.62,1,3.98,1.34,.32,.08,.66,.31,1.02,.14l.16,.02c.03,.12,.11,.14,.2,.09,.13-.07,.1-.19,.05-.3-.23-.51-.29-1.05-.26-1.6,0-.12,.04-.26-.05-.37v-.16c.23-.38,.39-.78,.48-1.2,0-.02,0-.04,.03-.04,.14-.03,.18-.12,.15-.25,0-.03,.02-.05,.04-.05,.11,0,.14-.07,.12-.17h0s.07-.03,.07-.08h0c.23-.07,.31-.26,.38-.46h0c.12,.01,.17-.04,.14-.16h0c.25,0,.35-.15,.4-.36h0c.1,0,.15-.04,.15-.14,0-.02,.03-.03,.05-.03,.11,.02,.17-.02,.18-.13h0c.07,0,.12-.02,.13-.1h0c.1,.03,.16,0,.18-.11,0-.03,.03-.04,.05-.04l.09-.05h.02c.46-.14,.9-.32,1.3-.58l.15-.03c.07,.08,.16,.07,.25,.05,.8-.22,1.61-.16,2.42-.05,.18,.02,.36,.15,.55,.01l.16,.02c.13,.28,.4,.17,.61,.23,1.14,.34,2.29,.69,3.44,1,.2,.05,.48,.19,.63-.14h0c.13,.03,.21-.01,.23-.15h0c.56-.15,1.03-.52,1.58-.7,.17-.05,.39-.04,.49-.25l.24-.05c.17,.05,.33,.07,.45-.1h0c.16,.03,.33,.08,.47-.06h0c.56,.05,1.11,.02,1.67,.07,.34,.04,.65,.26,1,.14,.02-.01,.03,0,.04,0,.09,.16,.23,.19,.39,.14h0c.03,.14,.12,.12,.22,.09h0c.03,.08,.1,.09,.18,.07,.02,0,.04,0,.05,.02,.03,.08,.08,.09,.16,.08h0c.03,.07,.09,.09,.16,.07h0c.02,.08,.08,.09,.15,.08h0c.03,.06,.08,.09,.15,.08h0c.04,.18,.16,.22,.32,.22h0l.09,.06h0c0,.08,.06,.1,.13,.1,.85,.64,1.43,1.47,1.64,2.51,.35,1.71,.23,3.38-.65,4.94-.42,.75-1.07,1.29-1.75,1.8-.47,.18-.89,.45-1.36,.61-1.02,.36-2.06,.61-3.11,.82Zm-8.51-4.42c-.14-.08-.2-.1-.25-.13-.9-.54-.93-.98-.13-1.63,.26-.21,.39-.5,.31-.84-.11-.46-.41-.75-.88-.78-.47-.03-.87,.08-1.13,.54-.15,.26-.27,.52-.31,.82-.08,.69,.06,1.31,.62,1.76,.5,.39,1.07,.49,1.78,.27Zm10.86-1.08c.51,.09,.98,.12,1.41-.26,.55-.5,.61-1.09,.44-1.74-.12-.45-.72-.9-1.08-.82-.32,.07-.64,.2-.73,.55-.1,.39,.02,.72,.37,.97,.39,.28,.4,.55,.08,.88-.15,.15-.29,.31-.49,.43Z"/><path class="g" d="M31.05,46.19c.45,.37,.89,.75,1.36,1.1,1.5,1.15,3.01,2.28,4.56,3.37,1.29,.91,2.57,1.84,3.86,2.75,1.32,.92,2.67,1.78,4.03,2.63,1.07,.68,2.14,1.34,3.25,1.94,1.67,.91,3.37,1.76,5.22,2.28,.49,.14,1,.26,1.54,.17,.63-.1,1.27,.01,1.91-.1,.98-.17,1.89-.52,2.81-.89,.34-.14,.69-.26,1.04-.39,.07-.02,.13,0,.17,.05-.18,.19-.44,.18-.66,.28-1.67,.7-3.36,1.31-5.22,1.18-.24-.02-.26,.13-.22,.33,.1,.5,.16,1.01,.27,1.5,.1,.46,.08,.94,.24,1.39-.02,.18,0,.35,.03,.53,.13,1.03,.27,2.06,.3,3.1-.33-.46-.86-.39-1.3-.43-1.23-.12-2.47-.23-3.71-.18-.98,.04-1.95,.17-2.93,.27-.7,.08-1.39,.22-2.07,.36-.59,.12-1.18,.32-1.76,.51-.51,.17-1,.38-1.5,.57-.11-.01-.21,0-.23,.14-.05,0-.11,.01-.16,.02-.17-.04-.3,.2-.5,.08,.1-.29,.48-.29,.58-.57l.16-.08,.08-.07c.61-.32,1.21-.66,1.82-.95,1.39-.67,2.84-1.16,4.35-1.52,1.26-.3,2.51-.55,3.8-.61,.11,0,.22-.05,.37-.09-.15-.24-.4-.26-.6-.33-1.45-.55-2.8-1.29-4.11-2.1-1.68-1.03-3.28-2.17-4.81-3.41-1-.81-2-1.63-2.93-2.53-.19-.18-.35-.18-.58-.07-.67,.34-1.34,.68-1.98,1.07-.06,.03-.11,.06-.21,.02,.04-.2,.17-.34,.31-.48,.4-.43,.85-.82,1.31-1.18,.19-.15,.2-.26,.02-.43-.35-.34-.69-.68-1.04-1.03-1.29-1.32-2.55-2.65-3.74-4.06-.92-1.09-1.85-2.17-2.69-3.33-.02-.03-.06-.04-.12-.08-.07,.51,.09,.97,.19,1.41,.59,2.56,1.83,4.87,2.95,7.22,1.03,2.15,1.93,4.36,2.71,6.63,.49,1.44,.93,2.89,1.32,4.36,.07,.27,.29,.55,.13,.87-.29-.67-.4-1.4-.59-2.1-.77-2.73-1.77-5.37-2.88-7.97-.85-1.98-1.91-3.85-2.73-5.84-.66-1.62-1.17-3.27-1.33-5.02,0-.1-.05-.2-.08-.3Z"/><path class="k" d="M41.02,26.73c-1.21-.16-2.41-.34-3.62-.47-1.76-.2-3.51-.39-5.29-.33-.4,.01-.2-.19-.13-.32,.86-1.81,1.53-3.69,1.96-5.65,.25-1.14,.39-2.3,.4-3.47,0-.11-.06-.26,.05-.32,.12-.07,.23,.06,.33,.13,1.2,.81,2.15,1.86,2.98,3.02,1.57,2.17,2.66,4.58,3.49,7.11,.06,.18,.16,.37-.18,.31Zm-6.77-4.27c0,.8,.21,1.45,.64,1.96,.68,.8,1.71,.81,2.39,.01,.86-1.01,.89-2.83,.05-3.86-.73-.89-1.82-.87-2.51,.05-.41,.54-.58,1.16-.57,1.83Z"/><path class="k" d="M51.42,22.91s0-.11,.02-.14c.63-.89,1.36-1.67,2.3-2.23,.22-.13,.35-.17,.37,.18,.1,2.47,.37,4.93,.8,7.37,.06,.33-.03,.34-.3,.28-1.68-.36-3.37-.64-5.08-.8-.37-.03-.41-.15-.28-.48,.27-.68,.53-1.36,.85-2.02,.06-.12,.08-.28,.24-.32-.03,.52,.1,.99,.41,1.41,.53,.71,1.43,.73,2,.05,.62-.75,.64-2.07,.03-2.82-.35-.43-.78-.66-1.35-.47Z"/><path class="b" d="M26.1,71.96c-.27-.08-.52-.2-.74-.37-.26-.64-.67-1.2-1.03-1.79-.92-1.5-1.85-3.01-3.02-4.34-.31-.36-.65-.69-1.02-.98-.08-.06-.28-.14-.07-.28,.76-.52,1.52-1.04,2.28-1.55,.32,.69,.65,1.37,1.03,2.02,.71,1.46,1.43,2.91,1.94,4.46,.3,.93,.53,1.87,.63,2.84Z"/><path class="h" d="M23.53,64.66c-.39-.65-.71-1.33-1.03-2.02,.4-.45,.91-.76,1.37-1.15,2.03-1.72,3.9-3.58,5.23-5.93,.04-.07,.08-.13,.13-.19,.01-.02,.04-.03,.1-.06-.01,.48-.18,.88-.37,1.27-.88,1.88-2.05,3.57-3.27,5.23-.7,.96-1.43,1.9-2.15,2.85Z"/><path class="j" d="M51.42,22.91c.57-.19,1,.05,1.35,.47,.62,.75,.6,2.07-.03,2.82-.57,.68-1.47,.66-2-.05-.31-.42-.43-.89-.41-1.41,.17-.73,.51-1.35,1.09-1.84Z"/><path class="g" d="M23.1,27.56c-.09,.46-.4,.82-.58,1.24-.65,1.55-.89,3.14-.6,4.82,.22,1.26,.65,2.43,1.22,3.56,.06,.12,.15,.24,.12,.39-.44-.56-.67-1.22-.93-1.87-.57-1.45-.79-2.96-.61-4.51,.15-1.29,.59-2.47,1.28-3.57,.02-.03,.06-.04,.09-.06Z"/><path class="g" d="M31.41,25.88c-.43-.02-.76-.33-1.18-.42-2-.43-3.94-.51-5.73,.7-.07,.05-.14,.11-.24,.08,.43-.48,1.01-.75,1.61-.9,1.8-.45,3.59-.47,5.31,.35,.09,.04,.2,.07,.23,.18Z"/><path class="g" d="M47.65,38.67c-.37,.16-.7-.06-1.02-.14-1.36-.34-2.7-.74-3.98-1.34-.45-.21-.94-.37-1.3-.75,.47,.22,.94,.45,1.42,.66,1.43,.63,2.92,1.1,4.45,1.42,.15,.03,.29,.1,.43,.15Z"/><path class="g" d="M59.94,33.48c-.15,.33-.43,.19-.63,.14-1.15-.32-2.29-.66-3.44-1-.21-.06-.48,.05-.61-.23,.67,.08,1.31,.31,1.96,.49,.76,.21,1.52,.43,2.27,.66,.17,.05,.3-.03,.44-.05Z"/><path class="g" d="M38.69,67.57c.3,.3,.25,.73,.33,1.1,.19,.79,.3,1.59,.45,2.39,.03,.17,.09,.35-.03,.51-.19-.48-.18-1-.28-1.49-.16-.77-.28-1.55-.47-2.32-.01-.06,0-.12,0-.19Z"/><path class="g" d="M55.11,32.36c-.19,.14-.37,.01-.55-.01-.81-.1-1.62-.17-2.42,.05-.09,.02-.18,.03-.25-.05,.33-.21,.71-.18,1.07-.2,.72-.03,1.45-.04,2.15,.2Z"/><path class="g" d="M47.75,36.5c.1,.11,.06,.24,.05,.37-.03,.55,.03,1.09,.26,1.6,.05,.11,.07,.23-.05,.3-.09,.05-.17,.03-.2-.09,.22-.07,.11-.21,.07-.34-.19-.6-.3-1.21-.13-1.84Z"/><path class="g" d="M26.82,42.27c.29,.06,.42,.32,.6,.5,.32,.34,.73,.59,.93,1.03-.58-.44-1.09-.95-1.53-1.53Z"/><path class="g" d="M62.25,32.38c-.1,.2-.32,.19-.49,.25-.55,.18-1.02,.55-1.58,.69,.49-.45,1.13-.61,1.72-.88l.35-.06Z"/><path class="g" d="M38.67,34.25c-.3-.1-.37-.4-.52-.62-.18-.28-.46-.52-.5-.88,.41,.45,.74,.96,1.02,1.5Z"/><path class="g" d="M51.73,32.39c-.4,.26-.84,.44-1.3,.57,.37-.32,.82-.49,1.3-.57Z"/><path class="g" d="M40.9,36.17c-.42-.13-.79-.33-1.02-.73,.36,.21,.72,.43,1.02,.73Z"/><path class="g" d="M48.22,35.15c-.09,.43-.24,.83-.46,1.2,.04-.44,.17-.85,.46-1.2Z"/><path class="g" d="M32.51,26.64c-.38-.12-.68-.36-.94-.66,.38,.13,.69,.35,.94,.66Z"/><path class="g" d="M23.66,26.82c-.07,.31-.26,.53-.53,.68,.1-.28,.28-.51,.53-.68Z"/><path class="g" d="M37.11,31.96c-.27-.17-.45-.4-.51-.72,.24,.19,.4,.44,.51,.72Z"/><path class="g" d="M23.32,37.68c.26,.19,.42,.45,.46,.78-.21-.23-.37-.48-.46-.78Z"/><path class="g" d="M35.94,30.35c-.25-.11-.38-.3-.41-.56,.2,.15,.35,.32,.41,.56Z"/><path class="g" d="M33.73,27.73c-.24-.06-.38-.22-.46-.45,.22,.08,.37,.23,.46,.45Z"/><path class="g" d="M34.21,28.25c-.23-.1-.41-.26-.48-.51,.22,.12,.39,.27,.48,.51Z"/><path class="g" d="M35.14,29.32c-.23-.09-.39-.23-.41-.5,.19,.12,.34,.28,.41,.5Z"/><path class="g" d="M26.05,41.43c.2,.06,.36,.16,.35,.4-.16-.1-.29-.22-.35-.4Z"/><path class="g" d="M28.86,44.29c.24,0,.35,.15,.4,.36-.19-.06-.31-.19-.4-.36Z"/><path class="g" d="M49.57,33.58c-.05,.21-.16,.36-.4,.35,.09-.16,.22-.3,.4-.35Z"/><path class="g" d="M37.52,32.55c-.23-.07-.31-.23-.31-.45,.15,.12,.25,.27,.31,.45Z"/><path class="g" d="M49.01,34.1c-.07,.2-.15,.39-.38,.45,.05-.22,.21-.34,.38-.45Z"/><path class="g" d="M23.82,38.5c.18,.07,.28,.2,.27,.4-.16-.09-.24-.23-.27-.4Z"/><path class="g" d="M25.59,40.89c.18,.03,.29,.13,.28,.33-.15-.06-.25-.17-.28-.33Z"/><path class="g" d="M29.64,44.98c.2,0,.29,.1,.32,.28-.16-.04-.26-.13-.32-.28Z"/><path class="g" d="M39.03,34.65c-.17-.04-.28-.13-.28-.32,.14,.06,.25,.16,.28,.32Z"/><path class="g" d="M32.98,27.02c-.2,.01-.29-.1-.33-.27,.16,.04,.27,.13,.33,.27Z"/><path class="g" d="M39.83,35.41c-.19,0-.29-.1-.33-.28,.15,.04,.26,.14,.33,.28Z"/><path class="g" d="M24.62,39.65c.16,.06,.28,.14,.24,.33-.13-.08-.23-.17-.24-.33Z"/><path class="g" d="M36.17,30.66c-.17-.02-.22-.13-.22-.29,.13,.05,.21,.14,.22,.29Z"/><path class="g" d="M24.97,40.12c.18,.02,.23,.13,.22,.29-.13-.05-.21-.15-.22-.29Z"/><path class="g" d="M30.8,45.98c.15-.01,.23,.06,.24,.2-.13-.01-.2-.09-.24-.2Z"/><path class="g" d="M30.25,45.53c.16-.03,.24,.04,.25,.2-.13,0-.2-.09-.25-.2Z"/><path class="g" d="M34.65,28.73c-.15-.01-.22-.09-.21-.24,.12,.04,.2,.11,.21,.24Z"/><path class="g" d="M35.41,29.66c-.15-.02-.23-.09-.2-.25,.12,.04,.19,.12,.2,.25Z"/><path class="g" d="M41.18,36.35c-.14,.02-.25-.02-.28-.17,.13,0,.22,.05,.28,.17Z"/><path class="g" d="M60.17,33.33c-.02,.14-.1,.18-.23,.14,.05-.09,.12-.15,.23-.14Z"/><path class="g" d="M24.09,38.91c.14,.01,.18,.1,.15,.23-.1-.04-.15-.12-.15-.23Z"/><path class="g" d="M24.25,39.14c.14,.01,.18,.1,.15,.23-.1-.04-.15-.12-.15-.23Z"/><path class="g" d="M48.4,34.86c.03,.13,0,.22-.15,.25,0-.11,.05-.19,.15-.25Z"/><path class="g" d="M24.4,39.37c.14,.01,.17,.1,.16,.22-.11-.03-.15-.12-.16-.22Z"/><path class="g" d="M39.25,34.89c-.14-.01-.21-.08-.21-.22,.11,.04,.18,.11,.21,.22Z"/><path class="g" d="M25.28,40.51c.11,0,.15,.06,.13,.16-.09-.01-.14-.07-.13-.16Z"/><path class="g" d="M37.64,32.73c-.11-.01-.14-.07-.11-.17,.08,.03,.12,.09,.11,.17Z"/><path class="g" d="M48.56,34.64c.02,.1-.01,.16-.12,.17,0-.09,.03-.14,.12-.17Z"/><path class="g" d="M36.56,31.19c-.11-.01-.14-.07-.12-.17,.08,.03,.13,.08,.12,.17Z"/><path class="g" d="M49.96,33.27c-.01,.11-.07,.15-.18,.13,.02-.09,.08-.14,.18-.13Z"/><path class="g" d="M29.27,44.66c.1,0,.15,.03,.15,.14-.1,0-.14-.05-.15-.14Z"/><path class="g" d="M49.16,33.94c.03,.12-.02,.17-.14,.15,.01-.08,.06-.13,.14-.15Z"/><path class="g" d="M49.73,33.44c0,.1-.06,.14-.15,.13,0-.09,.06-.14,.15-.13Z"/><path class="g" d="M50.27,33.06c-.02,.11-.08,.14-.18,.1,.03-.08,.09-.12,.18-.1Z"/><path class="g" d="M28.55,44c.13-.02,.17,.06,.18,.17-.11,0-.15-.08-.18-.17Z"/><path class="g" d="M39.41,35.04c-.09,0-.14-.05-.14-.14,.08,.01,.14,.05,.14,.14Z"/><path class="g" d="M33.26,27.27c-.1,0-.14-.04-.15-.14,.09,0,.14,.05,.15,.14Z"/><path class="g" d="M25.9,41.27c.09,0,.14,.05,.13,.15-.08-.01-.13-.06-.13-.15Z"/><path class="g" d="M29.44,44.8c.07,0,.11,.03,.11,.11-.07,0-.11-.03-.11-.11Z"/><path class="g" d="M28.43,43.88c.07,0,.12,.02,.11,.11-.07,0-.1-.04-.11-.11Z"/><path class="g" d="M24.09,26.4c0,.08-.04,.11-.11,.11,.01-.06,.05-.1,.11-.11Z"/><path class="g" d="M32.64,26.73c-.07,0-.12-.02-.13-.09,.07,0,.12,.02,.13,.09Z"/><path class="g" d="M33.1,27.12c-.07,0-.12-.03-.12-.11,.07,0,.11,.03,.12,.11Z"/><path class="g" d="M50.09,33.17c0,.08-.05,.11-.13,.1,.02-.07,.05-.1,.13-.1Z"/><path class="g" d="M30.68,45.88c.07,0,.11,.03,.11,.1-.07,0-.11-.02-.11-.1Z"/><path class="g" d="M26.55,42c.08-.01,.11,.03,.11,.1-.06,0-.1-.04-.11-.1Z"/><path class="g" d="M24.86,39.99c.08,0,.1,.04,.1,.11-.06-.01-.1-.05-.1-.11Z"/><path class="g" d="M36.44,31.02c-.08,0-.1-.05-.1-.12,.06,.02,.1,.05,.1,.12Z"/><path class="g" d="M37.21,32.1c-.08,0-.1-.05-.1-.12,.06,.02,.1,.05,.1,.12Z"/><path class="g" d="M35.52,29.79c-.08,0-.1-.05-.1-.12,.07,.01,.1,.05,.1,.12Z"/><path class="g" d="M31.52,25.94l-.09-.05s.08,0,.09,.05Z"/><path class="g" d="M24.25,26.26s-.02,.07-.07,.07c0-.05,.02-.07,.07-.07Z"/><path class="g" d="M24.18,26.33s-.03,.07-.08,.06c0-.05,.04-.06,.08-.06Z"/><path class="g" d="M23.88,26.59l-.06,.07s.02-.07,.06-.07Z"/><path class="g" d="M23.81,26.66l-.07,.07c0-.05,.02-.07,.07-.07Z"/><path class="g" d="M34.29,28.32s-.07-.02-.07-.07c.05,0,.07,.02,.07,.07Z"/><path class="g" d="M34.44,28.48s-.07-.03-.07-.07c.05,0,.07,.02,.07,.07Z"/><path class="g" d="M34.72,28.81l-.06-.07s.07,.02,.06,.07Z"/><path class="g" d="M35.21,29.4c-.05,0-.07-.03-.07-.08,.05,0,.07,.03,.07,.08Z"/><path class="g" d="M48.62,34.56c0,.05-.02,.08-.07,.08,0-.05,.02-.07,.07-.08Z"/><path class="g" d="M38.74,34.33s-.07-.03-.07-.08c.05,0,.07,.03,.07,.08Z"/><path class="g" d="M41.29,36.4l-.1-.05s.08,0,.1,.05Z"/><path class="g" d="M23.28,37.58s.06,.05,.05,.09c-.05-.01-.06-.05-.05-.09Z"/><path class="g" d="M50.42,32.97l-.09,.05s.04-.07,.09-.05Z"/><path class="g" d="M25.21,40.42l.06,.07s-.07-.02-.06-.07Z"/><path class="g" d="M25.45,40.73l.05,.06c-.05,0-.07-.01-.05-.06Z"/><path class="g" d="M39.49,35.12l-.07-.06s.07,.01,.07,.06Z"/><path class="g" d="M30.51,45.73l.07,.05c-.05,.02-.07,0-.07-.05Z"/><path class="g" d="M26.74,42.19l.07,.07s-.07-.02-.07-.07Z"/><path class="g" d="M28.79,44.21c.05,0,.08,.03,.08,.08-.05,0-.07-.03-.08-.08Z"/><path class="g" d="M26.48,41.91c.05,0,.07,.03,.06,.08-.05,0-.06-.04-.06-.08Z"/><path class="g" d="M34.36,28.41s-.07-.03-.07-.08c.05,0,.07,.03,.07,.08Z"/><path class="g" d="M26.4,41.83s.07,.02,.07,.07c-.05,0-.07-.02-.07-.07Z"/><path class="g" d="M30.05,45.35l.07,.06s-.07,0-.07-.06Z"/><path class="g" d="M29.97,45.27l.07,.07s-.07-.02-.07-.07Z"/><path class="g" d="M23.73,26.74l-.07,.07s.02-.07,.07-.07Z"/><path class="g" d="M36.34,30.88l-.06-.08s.07,.03,.06,.08Z"/><path class="g" d="M36.28,30.79s-.07-.03-.07-.08c.05,0,.07,.03,.07,.08Z"/><path class="g" d="M29.56,44.91s.08,.02,.08,.07c-.05,0-.08-.02-.08-.07Z"/><path class="g" d="M30.17,45.44c.05,0,.07,.03,.07,.08-.05,0-.07-.03-.07-.08Z"/><path class="f" d="M55.21,63.79c-.16-.45-.14-.93-.24-1.39-.11-.5-.17-1-.27-1.5-.04-.2-.02-.34,.22-.33,1.86,.13,3.55-.48,5.22-1.18,.22-.09,.48-.09,.66-.28l.15-.03c.15,.04,.27-.03,.38-.13l.16-.02c.72-.14,1.45-.26,2.17-.41,.21-.04,.42-.11,.54-.31,.03,0,.05,0,.06-.03,.1,.01,.15-.03,.16-.13h0s.08-.02,.08-.07h0c.07,0,.11-.03,.11-.1h.02s.07-.03,.07-.08h.01c.05,0,.07-.03,.06-.08h.01c.07-.02,.1-.06,.1-.13h0c.18-.06,.21-.29,.37-.37,.78,.66,1.45,1.44,2.14,2.2,.39,.42,.8,.83,1.1,1.33-.24,.47-.59,.86-.92,1.27-3.16,3.97-7.01,7.1-11.53,9.4-.1,.05-.21,.09-.32,.13l-.03-.14v-1.8c.77-1.26,1.52-2.53,2.28-3.79,.13-.21,.11-.31-.11-.44-.9-.52-1.78-1.06-2.67-1.59Z"/><path class="m" d="M58.1,45.42c-.11,.02-.28,0-.09,.18,.43,.38,.85,.77,1.27,1.16,1.32,1.21,2.67,2.38,3.77,3.8,.26,.34,.5,.69,.71,1.07,.44,.8,.04,1.63-.56,2.19-.38,.35-.83,.64-1.32,.82-.02-.1-.05-.2-.07-.3-.33-2.19-1.04-4.22-2.34-6.04-.86-1.21-1.92-2.21-3.05-3.16-.11-.09-.2-.1-.31-.04l.07-.27c.32-.25,.64-.49,1.07-.48,.6,0,1.2,0,1.8,0l-2.16,.12c.34,.45,.79,.68,1.21,.94Z"/><path class="l" d="M62.9,44.09c1.05-.21,2.09-.46,3.11-.82,.47-.17,.89-.44,1.36-.61-.15,1.35-.4,2.68-.97,3.93-.19,.41-.42,.79-.77,1.08-.69,.57-1.34,.39-1.63-.45-.08-.24-.15-.49-.2-.74-.17-.85-.47-1.65-.9-2.4Z"/><path class="g" d="M66.09,32.39c-.36,.12-.67-.1-1-.14-.56-.06-1.11-.02-1.67-.07,.91-.16,1.8-.08,2.67,.21Z"/><path class="g" d="M65.28,57.23c-.17,.08-.19,.3-.37,.36,.01-.24,.16-.38,.35-.49l.02,.12Z"/><path class="g" d="M62.94,32.24c-.12,.17-.28,.14-.45,.1,.14-.09,.29-.09,.45-.1Z"/><path class="g" d="M66.52,32.54c-.17,.06-.3,.03-.39-.14,.14,.02,.28,.04,.39,.14Z"/><path class="g" d="M67.9,33.26c-.16,0-.28-.04-.32-.22,.13,.03,.24,.11,.32,.22Z"/><path class="g" d="M63.42,32.18c-.14,.14-.31,.09-.47,.06,.15-.08,.31-.07,.47-.06Z"/><path class="g" d="M66.75,32.63c-.1,.02-.19,.04-.22-.09,.09,0,.16,.02,.22,.09Z"/><path class="g" d="M67.28,32.87c-.07,.02-.13,0-.16-.07,.07,0,.13,.01,.16,.07Z"/><path class="g" d="M67.12,32.8c-.07,.01-.13,0-.16-.08,.07,0,.12,.02,.16,.08Z"/><path class="g" d="M65.37,56.9c-.02-.08,0-.13,.07-.16,0,.07-.02,.12-.07,.16Z"/><path class="g" d="M65.44,56.75c-.02-.07-.01-.13,.07-.16,0,.06,0,.12-.07,.16Z"/><path class="g" d="M66.92,32.7c-.08,.03-.14,.02-.18-.07,.07,0,.13,.01,.18,.07Z"/><path class="g" d="M65.28,57.07c0-.08,0-.15,.09-.17-.01,.07-.03,.13-.09,.17Z"/><path class="g" d="M68.12,33.42c-.07,0-.12-.02-.13-.1,.06,0,.11,.04,.13,.1Z"/><path class="g" d="M67.57,33.04c-.07,0-.12-.02-.15-.09,.06,0,.12,.02,.15,.09Z"/><path class="g" d="M67.43,32.96c-.07,0-.13,0-.15-.09,.07,0,.12,.02,.15,.09Z"/><path class="g" d="M67.98,33.32l-.09-.06,.09,.06Z"/><path class="d" d="M55.21,63.79c.89,.53,1.77,1.08,2.67,1.59,.23,.13,.24,.23,.11,.44-.76,1.26-1.51,2.53-2.27,3.79-.08-.11-.05-.24-.06-.37-.03-.53-.03-1.06-.12-1.58v-.25c-.04-1.04-.18-2.07-.31-3.1-.02-.18-.05-.35-.03-.53Z"/><path class="n" d="M41.96,68.19c-.1,.28-.48,.27-.58,.57,.2,.12,.33-.12,.5-.08-.02,.21-.21,.18-.34,.24-.23,.1-.45,.24-.68,.34-.07,.03-.18,.05-.24-.05-.02-.03,0-.11,.04-.13,.42-.31,.73-.78,1.29-.88Z"/><path class="g" d="M55.55,67.67c.09,.52,.09,1.06,.12,1.58,0,.12-.03,.25,.06,.37,0,.6,0,1.2-.01,1.8-.15-.34-.08-.7-.11-1.05-.08-.84-.08-1.68-.1-2.52,0-.06,.03-.12,.05-.18Z"/><path class="n" d="M42.04,68.65c.02-.14,.11-.15,.23-.14-.02,.13-.12,.14-.23,.14Z"/><path class="n" d="M42.19,68.04l-.08,.07,.08-.07Z"/><path class="e" d="M56.11,45.11c.11-.05,.21-.05,.31,.04,1.12,.95,2.18,1.94,3.05,3.16,1.3,1.83,2.01,3.85,2.34,6.04,.02,.1,.04,.2,.07,.3-1.24,.64-2.57,1.02-3.94,1.24-2.06,.32-3.99-.23-5.87-.99-2.45-.99-4.73-2.31-6.97-3.71-1.78-1.11-3.53-2.27-5.21-3.53-1.83-1.38-3.56-2.88-5.13-4.56-.98-1.06-1.95-2.14-2.72-3.37,1.3-.28,2.61-.45,3.95-.47,1.15-.01,2.3,.07,3.44,.16,.6,.29,1.1,.73,1.66,1.1,2.42,1.59,4.91,3.04,7.63,4.06,.88,.33,1.77,.59,2.7,.72,.28,.96,.57,1.91,.59,2.92,0,.24,.02,.49,.07,.73,.14,.79,.69,1.05,1.42,.69,.64-.32,1.01-.89,1.36-1.47,.56-.95,.91-2,1.26-3.04Z"/><path class="m" d="M39.44,39.42c-1.15-.09-2.29-.17-3.44-.16-1.34,.01-2.65,.19-3.95,.47-.32-.33-.55-.73-.79-1.11-.71-1.15-1.36-2.34-1.85-3.61-.21-.54-.37-1.08-.53-1.64-.11-.39-.26-.43-.62-.22-.43,.25-.63,.68-.76,1.12-.12,.37-.26,.75-.24,1.16,0,.11,.01,.26-.15,.26-.14,0-.13-.13-.16-.22-.23-.68-.39-1.38-.43-2.09-.1-2.07,1.22-4.32,3.66-4.32,1.16,0,2.09,.6,2.9,1.39,.03,.03,.05,.06,.06,.09,0,.02,0,.05,0,.14-.35-.17-.71-.18-1.08-.17-.41,.02-.57,.35-.75,.64-.14,.24,.05,.39,.18,.57,1.04,1.44,2.23,2.73,3.51,3.95,1.32,1.25,2.71,2.41,4.16,3.5,.1,.07,.23,.12,.26,.27Z"/><path class="l" d="M56.11,45.11c-.35,1.04-.7,2.09-1.26,3.04-.34,.59-.72,1.16-1.36,1.47-.73,.36-1.27,.1-1.42-.69-.04-.24-.06-.48-.07-.73-.02-1.01-.31-1.96-.59-2.92,1.02,.13,2.04,.18,3.06,0,.48-.09,.95-.22,1.4-.39,.1-.03,.19-.09,.29-.06l-.07,.27Z"/><path class="g" d="M54.38,39.67c-.71,.22-1.28,.12-1.78-.27-.57-.45-.7-1.07-.62-1.76,.04-.29,.16-.55,.31-.82,.26-.46,.67-.57,1.13-.54,.47,.03,.77,.32,.88,.78,.08,.34-.05,.63-.31,.84-.8,.65-.77,1.1,.13,1.63,.05,.03,.11,.06,.25,.13Z"/><path class="g" d="M65.24,38.59c.19-.12,.34-.28,.49-.43,.33-.33,.31-.6-.08-.88-.34-.25-.47-.58-.37-.97,.09-.34,.41-.48,.73-.55,.36-.08,.96,.37,1.08,.82,.17,.65,.11,1.25-.44,1.74-.43,.39-.89,.35-1.41,.26Z"/><path class="g" d="M64.21,58.21c-.12,.2-.34,.27-.54,.31-.72,.15-1.45,.28-2.17,.41,.24-.26,.58-.23,.87-.28,.62-.12,1.24-.23,1.84-.44Z"/><path class="g" d="M61.34,58.95c-.11,.1-.23,.16-.38,.13,.09-.17,.2-.24,.38-.13Z"/><path class="g" d="M64.43,58.05c-.02,.09-.07,.14-.16,.13,0-.1,.06-.14,.16-.13Z"/><path class="g" d="M64.9,57.6c0,.07-.03,.11-.1,.12,0-.07,.03-.11,.1-.12Z"/><path class="g" d="M64.64,57.88c0,.07-.04,.1-.11,.1,0-.08,.04-.1,.11-.1Z"/><path class="g" d="M64.79,57.73s-.01,.07-.06,.07l.06-.07Z"/><path class="g" d="M64.72,57.81c0,.05-.02,.07-.07,.06l.07-.06Z"/><path class="g" d="M64.52,57.98c0,.05-.03,.07-.08,.07,0-.05,.03-.07,.08-.07Z"/><path class="j" d="M34.25,22.46c-.01-.67,.16-1.29,.57-1.83,.69-.92,1.79-.93,2.51-.05,.84,1.02,.82,2.85-.05,3.86-.68,.79-1.72,.79-2.39-.01-.43-.51-.64-1.17-.64-1.96Z"/></svg>