<?xml version="1.0" encoding="UTF-8"?><svg id="a" xmlns="http://www.w3.org/2000/svg" viewBox="0 0 81 81"><defs><style>.b{fill:#fdfefe;}.c{fill:#3191e6;}</style></defs><path class="c" d="M40.46,60.8c-1.26,2.59-2.95,4.64-5.32,6.05-7.6,4.51-17.1,1.39-20.69-6.97-1.84-4.28-3.31-8.73-4.91-13.11-2.14-5.86-4.39-11.69-6.31-17.63-.9-2.78-1.38-5.62-.48-8.48,1.42-4.52,4.7-7.03,9.15-8.15,5.88-1.47,11.64,.89,14.6,5.92,.56,.95,.95,1.97,1.35,3.17,2.33-6.5,6.84-9.8,13.61-9.45,5.99,.32,9.82,3.69,11.78,9.43,.21-.56,.38-1.01,.56-1.46,2.17-5.4,7.63-8.62,13.41-7.95,2.06,.24,4.01,.78,5.79,1.85,4.6,2.77,6.82,8.4,5.27,13.68-1.46,4.99-3.43,9.8-5.21,14.68-1.92,5.27-3.88,10.52-5.81,15.79-.91,2.46-2.15,4.72-3.98,6.64-5.77,6.05-17.95,5.66-22.45-3.37-.08-.17-.18-.33-.36-.64Zm-12.43-15.83c-.31-.18-.31-.46-.38-.69-2.12-6.72-4.26-13.44-6.35-20.16-1.29-4.15-5.88-5.68-9.39-3.08-1.14,.85-1.74,1.97-1.7,3.42,.03,1.32,.34,2.58,.79,3.8,3.11,8.43,6.22,16.85,9.34,25.27,.52,1.4,.96,2.83,1.73,4.12,.89,1.47,2.06,2.59,3.74,3.1,3.92,1.2,7.32-.58,8.69-4.61,1.64-4.81,3.23-9.64,4.84-14.47,.34-1.01,.68-2.02,1.11-3.28,.19,.51,.29,.79,.38,1.06,1.11,3.3,2.21,6.61,3.32,9.91,.87,2.59,1.69,5.21,2.66,7.76,1.94,5.12,9.03,5.08,11.56,1.32,.65-.97,1.17-2,1.57-3.1,1.46-3.94,2.94-7.87,4.39-11.81,1.99-5.42,4.09-10.8,5.98-16.26,.39-1.12,.6-2.25,.33-3.42-.54-2.36-2.47-3.87-5.07-3.98-2.88-.12-4.95,1.26-5.77,3.87-2.12,6.75-4.24,13.5-6.36,20.25-.1,.32-.11,.71-.45,.98-.11-.28-.21-.54-.3-.8-1.24-3.81-2.49-7.62-3.73-11.43-.93-2.86-1.86-5.73-2.81-8.59-.56-1.68-1.41-3.13-3.14-3.86-3.26-1.38-6.6,0-7.94,3.25-.14,.33-.25,.67-.36,1.01-1.79,5.49-3.58,10.98-5.37,16.47-.43,1.31-.87,2.62-1.3,3.94Z"/><path class="b" d="M28.02,44.98c.44-1.32,.88-2.63,1.3-3.94,1.79-5.49,3.58-10.98,5.37-16.47,.11-.34,.23-.68,.36-1.01,1.34-3.26,4.69-4.63,7.94-3.25,1.72,.73,2.58,2.19,3.14,3.86,.95,2.86,1.88,5.72,2.81,8.59,1.24,3.81,2.48,7.62,3.73,11.43,.08,.26,.19,.51,.3,.8,.35-.28,.35-.66,.45-.98,2.13-6.75,4.24-13.5,6.36-20.25,.82-2.61,2.89-3.99,5.77-3.87,2.6,.11,4.53,1.62,5.07,3.98,.27,1.17,.06,2.3-.33,3.42-1.88,5.46-3.99,10.84-5.98,16.26-1.45,3.94-2.93,7.87-4.39,11.81-.41,1.09-.92,2.12-1.57,3.1-2.53,3.76-9.62,3.81-11.56-1.32-.97-2.56-1.78-5.17-2.66-7.76-1.11-3.3-2.21-6.6-3.32-9.91-.09-.28-.2-.55-.38-1.06-.43,1.26-.78,2.27-1.11,3.28-1.61,4.82-3.21,9.65-4.84,14.47-1.37,4.03-4.77,5.81-8.69,4.61-1.68-.51-2.86-1.63-3.74-3.1-.78-1.29-1.22-2.72-1.73-4.12-3.12-8.42-6.24-16.85-9.34-25.27-.45-1.22-.75-2.48-.79-3.8-.04-1.45,.56-2.57,1.7-3.42,3.5-2.6,8.1-1.07,9.39,3.08,2.09,6.73,4.23,13.44,6.35,20.16,.07,.23,.07,.5,.38,.69Z"/></svg>