<?xml version="1.0" encoding="UTF-8"?><svg id="a" xmlns="http://www.w3.org/2000/svg" viewBox="0 0 81 81"><defs><style>.b{fill:#f4f4f4;}.c{fill:#e6503a;}.d{fill:#f6f6f6;}.e{fill:#3b4e63;}.f{fill:#409bd3;}</style></defs><path class="e" d="M40.55,69.84c-10.17,0-20.35,0-30.52,0-3.26,0-4.73-1.46-4.73-4.7,0-16.39,0-32.77,0-49.16,0-3.3,1.49-4.81,4.8-4.82,20.26,0,40.51,0,60.77,0,3.3,0,4.85,1.55,4.85,4.81,0,16.39,0,32.77,0,49.16,0,3.17-1.56,4.71-4.77,4.71-10.13,0-20.26,0-30.38,0ZM27.71,23.8c-.31-.28-.69-.21-1.04-.21-3.74,0-7.49,0-11.23,0-.36,0-.74-.05-1.05,.21-.83-.02-1.66,.03-2.48-.07-1.17-.14-1.44,.31-1.44,1.44,.04,12.05,.03,24.11,.03,36.16q0,3.29,3.35,3.24c2.94,.03,5.87,.11,8.81,.09,2.2-.01,4.4,.17,6.6-.13,6.36,0,12.73,0,19.09-.01,1.36,.31,2.73,.13,4.1,.13,4.89,0,9.78-.05,14.67-.08,.51,0,1.01-.01,1.52-.01q1.84,0,1.84-1.85c0-12.4,0-24.8,0-37.2,0-.32-.02-.64,0-.96,.04-.59-.23-.82-.81-.81-1.1,.02-2.2,0-3.31,0-.27-.05-.53-.14-.8-.14-5.61,0-11.22,0-16.83,0-.36,0-.72,.12-1.07,.18H27.71Zm24.29-6.19c0-1.39-1.19-2.55-2.55-2.51-1.29,.03-2.44,1.2-2.46,2.5-.02,1.36,1.15,2.56,2.52,2.58,1.37,.01,2.51-1.15,2.5-2.56Zm9.17-.03c-.03-1.36-1.28-2.55-2.61-2.48-1.38,.07-2.47,1.28-2.41,2.67,.06,1.32,1.21,2.42,2.53,2.4,1.36-.01,2.52-1.22,2.49-2.59Zm6.63,2.59c1.38,0,2.51-1.16,2.49-2.57-.02-1.35-1.09-2.46-2.42-2.51-1.31-.05-2.58,1.17-2.6,2.51-.03,1.34,1.18,2.57,2.53,2.57Z"/><path class="b" d="M66.35,23.75c1.1,0,2.21,.02,3.31,0,.58-.01,.85,.21,.81,.81-.02,.32,0,.64,0,.96,0,12.4,0,24.8,0,37.2q0,1.85-1.84,1.85c-.51,0-1.01,0-1.52,.01-.2-.12-.39-.24-.59-.35-10-5.33-14.44-15.55-11.43-26.47,1.73-6.27,5.65-10.84,11.27-14.02Z"/><path class="d" d="M13.85,64.58q-3.35,.05-3.35-3.24c0-12.05,.02-24.11-.03-36.16,0-1.13,.27-1.59,1.44-1.44,.82,.1,1.65,.05,2.48,.07,.68,.47,1.37,.92,2.04,1.4,7.22,5.24,11.01,12.11,9.93,21.2-.97,8.23-5.18,14.29-12.51,18.18Z"/><path class="b" d="M48.34,64.53c-6.36,0-12.73,0-19.09,.01-.99-1.47-.99-2.96,.05-4.37,1.05-1.42,2.42-2,4.23-1.5,1.53,.42,2.82-.38,3.37-1.89,.53-1.45-.06-2.95-1.48-3.75-1.62-.91-2.37-2.2-2.12-3.65,.28-1.66,1.42-2.67,3.34-2.94,1.68-.24,2.74-1.47,2.69-3.12-.05-1.59-1.12-2.74-2.75-2.9-.51-.05-1.01-.1-1.47-.32-1.29-.6-2.02-1.64-2.1-3.01-.08-1.42,.5-2.57,1.78-3.34,1.56-.93,2.03-2.39,1.37-4.01-.62-1.5-2.04-2.28-3.55-1.94-3.13,.71-4.97-.8-4.89-4.02,6.64,0,13.29,0,19.93,0-.56,1.59-.35,2.91,1.04,4.06,1.19,.99,1.36,2.54,.66,4.04-.69,1.48-2.17,2.42-3.6,2.29-1.89-.17-3.09,.59-3.43,2.17-.36,1.7,.4,3.04,2.09,3.67,1.66,.61,2.63,1.95,2.56,3.51-.07,1.51-1.07,2.64-2.8,3.18-1.67,.52-2.56,1.85-2.28,3.41,.29,1.62,1.5,2.56,3.25,2.51,1.96-.05,3.23,.7,3.83,2.28,.58,1.51,.17,2.88-1.24,4.17-1.22,1.11-1.45,2.7-.55,4.1,.32,.49,.76,.91,1.14,1.36Z"/><path class="c" d="M48.34,64.53c-.38-.45-.82-.87-1.14-1.36-.91-1.39-.67-2.99,.55-4.1,1.41-1.28,1.82-2.66,1.24-4.17-.6-1.57-1.87-2.33-3.83-2.28-1.76,.05-2.96-.88-3.25-2.51-.28-1.56,.61-2.89,2.28-3.41,1.73-.54,2.72-1.67,2.8-3.18,.07-1.56-.9-2.89-2.56-3.51-1.69-.63-2.46-1.97-2.09-3.67,.34-1.58,1.54-2.34,3.43-2.17,1.43,.13,2.92-.81,3.6-2.29,.69-1.5,.53-3.05-.66-4.04-1.39-1.15-1.61-2.47-1.04-4.06,.36-.06,.72-.18,1.07-.18,5.61-.01,11.22-.01,16.83,0,.27,0,.53,.09,.8,.14-5.62,3.17-9.54,7.74-11.27,14.02-3.01,10.92,1.43,21.14,11.43,26.47,.2,.11,.4,.23,.59,.35-4.89,.03-9.78,.08-14.67,.08-1.36,0-2.74,.18-4.1-.13Z"/><path class="f" d="M27.71,23.8c-.08,3.21,1.76,4.73,4.89,4.02,1.51-.34,2.93,.43,3.55,1.94,.67,1.62,.2,3.07-1.37,4.01-1.29,.77-1.86,1.93-1.78,3.34,.08,1.38,.81,2.42,2.1,3.01,.47,.22,.97,.26,1.47,.32,1.63,.16,2.71,1.31,2.75,2.9,.05,1.65-1.01,2.88-2.69,3.12-1.91,.27-3.06,1.27-3.34,2.94-.25,1.45,.5,2.74,2.12,3.65,1.42,.8,2.01,2.3,1.48,3.75-.55,1.5-1.84,2.3-3.37,1.89-1.81-.49-3.18,.08-4.23,1.5-1.04,1.41-1.04,2.9-.05,4.37-2.19,.3-4.4,.11-6.6,.12-2.93,.02-5.87-.06-8.8-.09,7.33-3.89,11.54-9.95,12.51-18.18,1.07-9.09-2.71-15.96-9.93-21.2-.67-.48-1.36-.93-2.04-1.4,.31-.26,.69-.21,1.05-.21,3.74,0,7.49,0,11.23,0,.36,0,.74-.07,1.04,.21Z"/><path class="b" d="M52,17.6c0,1.41-1.13,2.57-2.5,2.56-1.36-.01-2.54-1.22-2.52-2.58,.02-1.3,1.17-2.46,2.46-2.5,1.37-.04,2.54,1.12,2.55,2.51Z"/><path class="b" d="M61.17,17.57c.03,1.38-1.12,2.58-2.49,2.59-1.32,.01-2.47-1.08-2.53-2.4-.06-1.39,1.03-2.6,2.41-2.67,1.33-.06,2.58,1.13,2.61,2.48Z"/><path class="b" d="M67.8,20.16c-1.35,0-2.56-1.23-2.53-2.57,.03-1.33,1.29-2.56,2.6-2.51,1.33,.05,2.4,1.16,2.42,2.51,.02,1.41-1.11,2.57-2.49,2.57Z"/></svg>