<?xml version="1.0" encoding="UTF-8"?><svg id="a" xmlns="http://www.w3.org/2000/svg" viewBox="0 0 81 81"><defs><style>.b{fill:#7f54b3;}.c{fill:#fefdfe;}.d{fill:#7f54b2;}.e{fill:#fefefe;}</style></defs><path class="d" d="M0,50.38V22.71s.03,.03,.05,.04c0,0,.02-.01,.02-.02,.12-.44,.21-.89,.37-1.32,1.01-2.6,2.88-4.2,5.6-4.83,.08-.02,.25,.06,.23-.14,22.79,0,45.58,0,68.38,0,0,0-.02,.02-.02,.03,0,0-.01,.02,0,.02,.06,.06,.14,.07,.22,.08,3.15,.64,5.39,2.88,6.03,6.03,.01,.07-.02,.2,.13,.18v27.61l-.04-.04s-.05,.05-.06,.08c-.11,.6-.26,1.19-.52,1.74-1.42,2.96-3.78,4.51-7.07,4.52-7.7,.02-15.41,0-23.11,0-.39,0-.39,0-.24,.35,.98,2.39,1.95,4.78,2.93,7.17,.04,.11,.14,.21,.08,.36-.11-.06-.22-.12-.33-.18-4.5-2.5-8.99-5-13.49-7.51-.24-.14-.48-.2-.76-.2-10.2,0-20.4,0-30.6,0-1.12,0-2.2-.16-3.22-.63-2.38-1.09-3.85-2.92-4.41-5.48-.02-.07,.06-.24-.13-.2Zm21.55-12.73c.05,.15,.09,.25,.12,.36,.52,1.76,1.11,3.49,1.83,5.18,1.18,2.77,2.62,5.37,4.62,7.64,.57,.65,1.14,1.3,1.94,1.7,1.35,.67,2.71,.15,3.26-1.25,.21-.54,.28-1.11,.24-1.69-.15-2.38-.02-4.75,.21-7.11,.34-3.41,.82-6.81,1.54-10.16,.55-2.56,1.22-5.09,2.42-7.44,.71-1.39,.11-2.95-1.32-3.67-1.38-.7-2.93-.21-3.67,1.15-.59,1.09-1.08,2.22-1.48,3.39-1.41,4.09-2.11,8.34-2.63,12.61-.08,.65-.15,1.3-.23,1.98-.13-.11-.14-.23-.18-.33-1.15-2.98-1.97-6.06-2.64-9.19-.2-.94-.31-1.91-.67-2.82-.79-2-2.93-1.91-4-.75-.35,.38-.63,.81-.87,1.27-2.31,4.4-4.62,8.79-6.93,13.19-.06,.11-.09,.25-.23,.32-.03-.11-.06-.19-.08-.28-.73-3.01-1.36-6.05-1.92-9.1-.5-2.72-.93-5.45-1.35-8.18-.19-1.21-.81-1.92-1.85-2.14-.31-.06-.63-.06-.94-.04-1.81,.1-2.91,1.46-2.63,3.25,.76,4.83,1.58,9.65,2.59,14.43,.68,3.23,1.42,6.45,2.49,9.58,.31,.9,.63,1.81,1.27,2.55,.64,.74,1.37,.86,2.23,.39,.59-.33,1.06-.8,1.49-1.31,.94-1.12,1.7-2.35,2.36-3.65,1.6-3.13,3.16-6.28,4.74-9.43,.07-.15,.12-.31,.29-.46Zm36.47,1.44c-.01,1.91,.47,3.94,1.36,5.73,2.27,4.55,7.73,5.29,11.04,3.48,1.53-.84,2.68-2.06,3.63-3.5,2.16-3.3,3.06-6.94,2.88-10.86-.08-1.63-.43-3.2-1.14-4.68-1.91-3.96-6.1-5.75-10.19-4.33-1.84,.64-3.22,1.9-4.33,3.46-2.19,3.06-3.24,6.49-3.25,10.7Zm-20.62-.48c0,2.13,.37,4.19,1.34,6.15,2.28,4.64,7.79,5.35,11.07,3.54,1.55-.85,2.71-2.09,3.66-3.56,1.84-2.83,2.78-5.95,2.86-9.32,.05-2.16-.25-4.25-1.18-6.23-2.07-4.4-6.4-5.19-9.29-4.53-2,.46-3.55,1.6-4.79,3.18-2.48,3.15-3.62,6.76-3.67,10.76Z"/><path class="e" d="M21.55,37.65c-.17,.15-.21,.31-.29,.46-1.58,3.14-3.14,6.29-4.74,9.43-.66,1.29-1.42,2.53-2.36,3.65-.43,.51-.9,.98-1.49,1.31-.86,.48-1.59,.35-2.23-.39-.64-.74-.96-1.64-1.27-2.55-1.08-3.13-1.81-6.35-2.49-9.58-1.01-4.78-1.83-9.6-2.59-14.43-.28-1.79,.82-3.15,2.63-3.25,.31-.02,.63-.02,.94,.04,1.04,.22,1.66,.93,1.85,2.14,.42,2.73,.85,5.46,1.35,8.18,.56,3.05,1.18,6.09,1.92,9.1,.02,.09,.05,.17,.08,.28,.15-.07,.18-.21,.23-.32,2.31-4.4,4.62-8.79,6.93-13.19,.24-.46,.52-.89,.87-1.27,1.07-1.16,3.21-1.25,4,.75,.36,.91,.46,1.87,.67,2.82,.67,3.12,1.49,6.2,2.64,9.19,.04,.1,.05,.22,.18,.33,.08-.68,.15-1.33,.23-1.98,.53-4.28,1.22-8.52,2.63-12.61,.4-1.17,.89-2.31,1.48-3.39,.74-1.36,2.29-1.84,3.67-1.15,1.43,.72,2.03,2.28,1.32,3.67-1.2,2.36-1.87,4.88-2.42,7.44-.72,3.36-1.2,6.75-1.54,10.16-.24,2.36-.36,4.73-.21,7.11,.04,.58-.03,1.14-.24,1.69-.55,1.4-1.91,1.92-3.26,1.25-.8-.4-1.37-1.05-1.94-1.7-2-2.27-3.44-4.88-4.62-7.64-.72-1.69-1.31-3.42-1.83-5.18-.03-.11-.07-.21-.12-.36Z"/><path class="e" d="M58.02,39.09c.01-4.22,1.06-7.65,3.25-10.7,1.12-1.56,2.49-2.82,4.33-3.46,4.09-1.42,8.28,.37,10.19,4.33,.71,1.48,1.07,3.05,1.14,4.68,.18,3.92-.72,7.56-2.88,10.86-.94,1.44-2.1,2.66-3.63,3.5-3.31,1.81-8.77,1.07-11.04-3.48-.89-1.79-1.37-3.82-1.36-5.73Zm13.44-3.72c-.02-.31-.02-.63-.06-.94-.14-1.23-.46-2.41-1.17-3.44-.71-1.05-1.84-1.3-2.96-.7-.59,.31-1.04,.78-1.44,1.3-1.38,1.79-2.19,3.8-2.31,6.07-.09,1.68,.21,3.27,1.08,4.72,.75,1.24,1.9,1.51,3.15,.78,.94-.55,1.68-1.31,2.23-2.25,1-1.71,1.43-3.57,1.48-5.54Z"/><path class="c" d="M37.4,38.61c.05-4,1.19-7.61,3.67-10.76,1.24-1.58,2.79-2.73,4.79-3.18,2.89-.66,7.22,.12,9.29,4.53,.93,1.98,1.24,4.07,1.18,6.23-.08,3.37-1.02,6.48-2.86,9.32-.95,1.46-2.11,2.7-3.66,3.56-3.28,1.8-8.79,1.1-11.07-3.54-.96-1.95-1.33-4.02-1.34-6.15Zm13.42-3.18c0-.53-.04-1.06-.14-1.58-.2-1.06-.5-2.08-1.15-2.95-.7-.95-1.76-1.18-2.81-.65-.61,.31-1.08,.77-1.49,1.29-1.44,1.84-2.26,3.92-2.35,6.26-.07,1.57,.24,3.07,1.01,4.44,.76,1.37,1.96,1.67,3.3,.87,.99-.59,1.74-1.42,2.28-2.43,.89-1.64,1.29-3.41,1.36-5.27Z"/><path class="b" d="M71.47,35.38c-.05,1.97-.48,3.83-1.48,5.54-.55,.94-1.28,1.7-2.23,2.25-1.25,.73-2.4,.46-3.15-.78-.87-1.45-1.17-3.04-1.08-4.72,.12-2.27,.93-4.28,2.31-6.07,.4-.52,.86-.98,1.44-1.3,1.12-.6,2.25-.35,2.96,.7,.7,1.03,1.03,2.21,1.17,3.44,.04,.31,.04,.63,.06,.94Z"/><path class="b" d="M50.83,35.43c-.06,1.85-.47,3.63-1.36,5.27-.55,1.01-1.29,1.84-2.28,2.43-1.34,.8-2.54,.5-3.3-.87-.77-1.38-1.07-2.87-1.01-4.44,.1-2.35,.92-4.42,2.35-6.26,.41-.53,.88-.99,1.49-1.29,1.06-.53,2.11-.3,2.81,.65,.65,.88,.95,1.9,1.15,2.95,.1,.52,.13,1.05,.14,1.58Z"/></svg>