<?xml version="1.0" encoding="UTF-8"?><svg id="a" xmlns="http://www.w3.org/2000/svg" viewBox="0 0 81 81"><defs><style>.b{fill:#fa0a1b;}</style></defs><path class="b" d="M42.22,4.77c.3,.1,.62,.07,.92,.09,3.55,.26,6.98,1.03,10.29,2.32,4.51,1.76,8.49,4.32,11.96,7.7,3.97,3.86,6.89,8.39,8.77,13.59,1.04,2.88,1.68,5.84,1.94,8.89,.54,6.28-.5,12.28-3.11,18.02-.48,1.05-1.02,2.07-1.59,3.07-.07,.13-.14,.21-.32,.21-3.77,0-7.54,0-11.32,0-.02,0-.05,0-.06,0,6.87-7.94,9.02-16.93,5.62-26.96-2.17-6.42-6.45-11.22-12.41-14.43-11.79-6.36-26.53-2.74-34.15,8.34-7.65,11.14-5.66,26.15,4.66,34.98,10.23,8.76,26.05,8.59,36.11-1.83,.07,.05,.04,.12,.04,.19,0,3.83,0,7.67,0,11.5,0,.21-.08,.32-.25,.43-3.98,2.46-8.27,4.09-12.89,4.88-2.58,.44-5.18,.59-7.79,.45-4.85-.25-9.47-1.44-13.83-3.58-4.78-2.35-8.85-5.6-12.19-9.76-3.53-4.39-5.89-9.34-7.08-14.84-.63-2.91-.89-5.86-.77-8.84,.32-7.71,2.85-14.62,7.6-20.7,3.46-4.43,7.75-7.85,12.83-10.27,3.13-1.49,6.41-2.5,9.83-3.02,1.15-.17,2.31-.3,3.47-.36,.05,0,.11,.01,.13-.05h3.57Z"/><path class="b" d="M29.31,40.34c0-2.07,0-4.15,0-6.22,.01-3.82,.03-7.65,.04-11.47,0-.21,.06-.26,.26-.26,4.16,0,8.31,0,12.47,0,2.38,0,4.7,.37,6.9,1.34,3.18,1.41,5.36,3.79,6.74,6.95,.87,1.99,1.32,4.08,1.54,6.23,.2,1.96,.21,3.93,.04,5.9-.27,3.11-.99,6.09-2.62,8.79-2.1,3.48-5.19,5.57-9.16,6.38-1.21,.25-2.44,.34-3.68,.34-4.08,0-8.16,0-12.23,0-.26,0-.35-.05-.35-.34,.02-3.03,.02-6.06,.02-9.08,0-2.85,0-5.71,0-8.56h.04Zm11.01,.06h0c0,2.95,0,5.9,0,8.85,0,.22-.09,.49,.04,.63,.14,.14,.42,.05,.63,.04,1.82-.09,3.09-.76,3.82-2.59,.82-2.06,.93-4.24,.94-6.42,0-1.46-.15-2.92-.33-4.37-.16-1.28-.47-2.52-1.04-3.69-.44-.91-1.1-1.6-2.11-1.86-.56-.15-1.14-.18-1.72-.14-.2,.01-.24,.08-.24,.27,0,3.09,0,6.18,0,9.27Z"/><path class="b" d="M68.72,62.53c2.49,0,4.51,2.01,4.51,4.5,0,2.52-2,4.54-4.52,4.55-2.5,0-4.55-2.04-4.54-4.53,.01-2.52,2.02-4.51,4.55-4.51Z"/></svg>