<?xml version="1.0" encoding="UTF-8"?><svg id="a" xmlns="http://www.w3.org/2000/svg" viewBox="0 0 81 81"><defs><style>.b{fill:#94be47;}.c{fill:#5f8d3e;}.d{fill:#fefffe;}</style></defs><path class="b" d="M49.49,74.28c-1.75-.33-3.5-.65-5.25-.98-3.38-.63-6.77-1.27-10.15-1.9-3.08-.58-6.17-1.16-9.25-1.74-3.36-.63-6.72-1.27-10.09-1.9-1.33-.25-2.66-.49-4-.74v-.12c.18-.07,.21-.23,.23-.4,.25-2.01,.5-4.02,.76-6.03,.25-1.99,.51-3.98,.77-5.97,.27-2.11,.54-4.22,.81-6.33,.26-2.05,.54-4.1,.8-6.15,.22-1.75,.44-3.5,.66-5.25,.26-2.03,.53-4.06,.79-6.09,.15-1.14,.29-2.29,.43-3.44,0-.06,.01-.12,.02-.18,.09-.91,.49-1.53,1.44-1.81,2.1-.62,4.17-1.32,6.27-1.95,.43-.13,.66-.33,.77-.78,.7-2.8,1.69-5.5,3.09-8.04,1.23-2.22,2.74-4.22,4.81-5.73,1.45-1.06,3.04-1.8,4.83-2.01,1.69-.19,3.17,.3,4.34,1.58,.27,.29,.52,.43,.93,.43,2.01,0,3.5,1,4.72,2.49,.78,.95,1.32,2.04,1.78,3.17,.13,.31,.12,.78,.45,.88,.26,.08,.61-.14,.92-.23,.41-.11,.82-.23,1.23-.34,.28-.08,.56-.08,.82,.08-.03,.56-.07,1.13-.1,1.69-.11,1.61-.14,3.23-.26,4.84-.06,.84-.09,1.68-.11,2.52-.03,1.29-.22,2.58-.15,3.88,0,.14,.02,.29,0,.43-.22,1.12-.11,2.26-.2,3.38-.08,1.08-.19,2.17-.18,3.27,0,.29,.03,.6,0,.89-.12,1.1-.22,2.21-.21,3.32,.01,1.12-.21,2.22-.14,3.33,0,.02,0,.04,0,.06-.21,1.11-.06,2.25-.22,3.37-.11,.84-.06,1.69-.11,2.54-.07,1.25-.23,2.5-.16,3.76,0,.14,.02,.29,0,.43-.23,1.17-.12,2.37-.2,3.55-.07,1.07-.2,2.13-.17,3.21,0,.27,.04,.58-.02,.83-.18,.82-.12,1.66-.17,2.47-.09,1.63-.14,3.27-.27,4.9-.07,.84-.07,1.7-.1,2.54-.04,1.42-.2,2.83-.15,4.25Zm-27.77-20.08c-.58,1.91-1.13,3.71-1.68,5.51-.07,.24-.03,.43,.14,.61,.34,.35,.68,.69,1.08,.98,3.04,2.26,6.44,3.19,10.2,2.69,3.07-.41,5.34-2.03,6.77-4.78,.9-1.74,1.27-3.62,1.3-5.58,.03-2.61-.86-4.84-2.61-6.74-1.08-1.17-2.35-2.11-3.7-2.96-.73-.46-1.39-.99-1.97-1.62-.97-1.05-1.05-2.48-.2-3.62,.7-.94,1.72-1.28,2.81-1.36,1.68-.12,3.32,.14,4.89,.75,.19,.07,.38,.15,.56,.23q.46,.18,.63-.3l.02-.06c.67-1.98,1.33-3.96,2-5.94,.43-1.27,.43-1.28-.89-1.64-2.41-.67-4.85-.64-7.29-.19-1.94,.36-3.76,1.04-5.36,2.2-3.45,2.49-5.06,5.92-5.02,10.14,.02,2.23,.89,4.13,2.4,5.76,.71,.76,1.5,1.43,2.34,2.04,.72,.53,1.4,1.11,1.93,1.84,.55,.76,.86,1.6,.78,2.56-.09,1.15-.8,2.02-1.91,2.33-.73,.21-1.45,.09-2.16-.1-1.51-.4-2.86-1.13-4.11-2.05-.29-.22-.58-.43-.94-.69Zm5.34-31.9c1.71-.53,3.31-1.04,4.92-1.53,.32-.09,.39-.29,.45-.57,.29-1.39,.68-2.75,1.22-4.07,.81-1.97,1.88-3.77,3.49-5.2,.66-.58,1.39-1.04,2.2-1.47-.59-.4-1.2-.47-1.83-.39-.65,.08-1.26,.27-1.86,.53-1.9,.82-3.35,2.17-4.57,3.81-1.48,1.99-2.5,4.21-3.32,6.53-.26,.74-.52,1.48-.71,2.35Zm8.02-2.52c.19-.03,.29-.03,.39-.06,1.95-.61,3.9-1.22,5.86-1.82,.3-.09,.35-.26,.35-.53,.02-1.44-.11-2.87-.41-4.29-.11-.5-.19-1.03-.49-1.49-.75,.29-1.38,.72-1.96,1.23-1.31,1.15-2.18,2.6-2.85,4.18-.37,.87-.69,1.76-.89,2.78Zm8.17-8.64c-.02,.22,.04,.39,.08,.56,.11,.43,.21,.86,.3,1.3,.24,1.19,.34,2.4,.36,3.62,0,.22,.01,.42,.33,.33,.87-.27,1.73-.55,2.61-.81,.3-.09,.24-.26,.17-.47-.33-.96-.73-1.88-1.3-2.73-.25-.37-.53-.72-.86-1.01-.47-.41-.99-.75-1.68-.78Z"/><path class="c" d="M49.49,74.28c-.05-1.42,.12-2.83,.15-4.25,.02-.84,.03-1.7,.1-2.54,.13-1.63,.18-3.27,.27-4.9,.05-.82-.01-1.65,.17-2.47,.06-.25,.03-.55,.02-.83-.04-1.08,.09-2.14,.17-3.21,.08-1.18-.03-2.38,.2-3.55,.03-.14,.01-.28,0-.43-.06-1.26,.09-2.51,.16-3.76,.05-.85,0-1.71,.11-2.54,.15-1.12,.01-2.26,.22-3.37,0-.02,0-.04,0-.06-.07-1.12,.15-2.22,.14-3.33-.01-1.11,.09-2.22,.21-3.32,.03-.3,0-.6,0-.89-.02-1.1,.09-2.19,.18-3.27,.09-1.13-.02-2.27,.2-3.38,.03-.14,.01-.28,0-.43-.07-1.3,.12-2.59,.15-3.88,.02-.84,.05-1.69,.11-2.52,.12-1.61,.15-3.23,.26-4.84,.04-.56,.07-1.13,.1-1.69,.33,.04,.54,.26,.75,.48,1.12,1.11,2.26,2.22,3.37,3.34,.26,.26,.54,.37,.91,.39,1.56,.09,3.12,.21,4.67,.33,.61,.05,.69,.12,.78,.71,.32,2.1,.63,4.21,.95,6.31,.36,2.39,.72,4.77,1.07,7.16,.54,3.69,1.08,7.38,1.62,11.07,.38,2.61,.78,5.21,1.17,7.82,.5,3.37,1,6.74,1.49,10.11,.31,2.13,.65,4.25,.94,6.38,.14,1.02,.28,.86-.75,1.08-6.34,1.37-12.68,2.74-19.02,4.11-.3,.06-.58,.19-.89,.18Z"/><path class="d" d="M21.72,54.2c.36,.26,.65,.48,.94,.69,1.25,.92,2.6,1.65,4.11,2.05,.71,.19,1.43,.31,2.16,.1,1.1-.31,1.81-1.19,1.91-2.33,.08-.96-.23-1.8-.78-2.56-.53-.73-1.2-1.32-1.93-1.84-.84-.61-1.63-1.28-2.34-2.04-1.51-1.62-2.38-3.52-2.4-5.76-.04-4.22,1.57-7.66,5.02-10.14,1.6-1.15,3.42-1.84,5.36-2.2,2.44-.45,4.88-.48,7.29,.19,1.31,.36,1.31,.37,.89,1.64-.66,1.98-1.33,3.96-2,5.94l-.02,.06q-.17,.49-.63,.3c-.19-.08-.38-.15-.56-.23-1.57-.61-3.21-.87-4.89-.75-1.1,.08-2.11,.43-2.81,1.36-.85,1.14-.77,2.57,.2,3.62,.58,.63,1.25,1.16,1.97,1.62,1.34,.84,2.62,1.78,3.7,2.96,1.75,1.91,2.65,4.14,2.61,6.74-.03,1.96-.4,3.83-1.3,5.58-1.43,2.75-3.7,4.37-6.77,4.78-3.76,.5-7.16-.43-10.2-2.69-.39-.29-.74-.63-1.08-.98-.17-.18-.21-.37-.14-.61,.55-1.8,1.1-3.6,1.68-5.51Z"/></svg>