<?xml version="1.0" encoding="UTF-8"?><svg id="a" xmlns="http://www.w3.org/2000/svg" viewBox="0 0 81 81"><path d="M75.46,32.21c-1.27,15.66-8.18,27.96-22.07,35.82-8.67,4.91-17.72,4.83-26.3-.18C13.63,60.01,6.44,48.05,5.57,32.47c-.15-2.67,.28-5.47,.97-8.07,3.03-11.53,13.09-17.33,24.74-14.25,2.69,.71,5.25,1.99,7.8,3.18,.96,.45,1.6,.61,2.6,.03,5.03-2.93,10.43-4.6,16.31-3.85,8.61,1.1,14.78,7.12,16.61,16.09,.44,2.13,.58,4.32,.87,6.61Zm-15.72,22.99c.55-.68,1.25-1.48,1.87-2.34,5.3-7.34,8.44-15.35,7.15-24.56-.82-5.81-3.52-10.42-9.55-12.22-4.08-1.22-8.06-.46-11.78,1.32-10.9,5.24-17.17,14.15-19.78,25.75-1.16,5.14-.97,10.28,1.48,15.09,2.32,4.56,6.15,7,11.26,7,4.99,0,8.74-2.35,11.14-6.73,1.51-2.74,2.1-5.73,2.19-8.84,.1-3.82-.48-7.52-1.86-11.21-.53,.31-.94,.54-1.35,.79-2.43,1.52-4.88,3.01-7.29,4.57-1.06,.68-1.78,.5-2.39-.57-.48-.85-1.01-1.66-1.54-2.48-.6-.93-.4-1.61,.53-2.19,4.46-2.77,8.92-5.55,13.36-8.35,1.02-.64,1.69-.46,2.23,.61,2.26,4.47,3.91,9.15,4.28,14.15,.25,3.41,.05,6.86,.05,10.2Zm-38.33,.38c-2.22-15.08,3.23-27.09,13.69-37.67-2.36-.74-4.47-1.63-6.68-2.05-7.82-1.48-13.96,2.52-15.96,10.23-1.06,4.09-.93,8.19-.02,12.28,1.42,6.44,4.45,12.06,8.97,17.22Z"/></svg>