<?xml version="1.0" encoding="UTF-8"?><svg id="a" xmlns="http://www.w3.org/2000/svg" viewBox="0 0 81 81"><path d="M2.68,77.35c8.85-8.81,17.71-17.61,26.55-26.43,1.41-1.41,2.75-2.89,4.13-4.34l.45,.24c0,1.21,0,2.41,0,3.62,0,5.32,.05,10.65-.03,15.97-.02,1.5,.46,1.89,1.92,1.87,6.44-.08,12.88,.02,19.32-.07,4.98-.07,8.63-2.66,9.93-6.81,1.52-4.87-.28-9.32-4.76-11.81-.23-.13-.44-.3-.92-.62,.64-.41,1.12-.73,1.6-1.03,5.91-3.69,5.87-11.79-.26-15.13-1.98-1.08-4.42-1.38-6.7-1.8-1.35-.25-2.78-.05-4.36-.05,9.44-9.52,18.76-18.9,28.08-28.29,.22,.11,.6,.18,.64,.34,.1,.37,.03,.78,.03,1.17V78.32H2.68v-.97Z"/><path d="M41.98,52.78c3.86,0,7.43-.05,10.99,.02,2.31,.05,4,1.67,4.16,3.78,.19,2.4-1.03,4.21-3.54,4.41-3.55,.28-7.13,.18-10.7,.17-.31,0-.87-.56-.88-.88-.07-2.44-.04-4.88-.04-7.51Z"/><path d="M47.71,38c1.45,0,2.91-.03,4.36,0,2.65,.08,4.35,1.6,4.38,3.88,.03,2.26-1.68,3.81-4.36,3.85-2.91,.04-5.81-.03-8.72,.03-1.11,.03-1.47-.36-1.43-1.45,.07-1.62,.09-3.25,0-4.86-.07-1.24,.46-1.54,1.58-1.48,1.39,.07,2.79,.02,4.19,.02Z"/></svg>