<?xml version="1.0" encoding="UTF-8"?><svg id="a" xmlns="http://www.w3.org/2000/svg" viewBox="0 0 226.21 52.64"><defs><style>.b{fill:#fff;}.c{fill:#e01e1e;}</style></defs><path class="c" d="M219.88,40.48L8.66,52.62c-3.65,.21-6.74-1.87-6.9-4.65L0,17.57c-.16-2.78,2.67-5.2,6.33-5.41L217.55,.01c3.65-.21,6.74,1.87,6.9,4.65l1.75,30.41c.16,2.78-2.67,5.2-6.33,5.41Z"/><g><path class="b" d="M40.01,23.2l5.68-.33c4.04-.23,5.95,.96,6.09,3.33,.08,1.33-.49,2.34-2.33,3.25,2.6,.52,2.98,2.03,3.05,3.2,.15,2.58-1.52,3.88-5.72,4.13l-5.97,.34-.8-13.92Zm6.53,5.24c1.09-.06,1.94-.64,1.88-1.62-.06-1.01-1.01-1.54-2.24-1.47l-2.52,.14,.18,3.1,2.69-.15Zm.2,5.84c1.5-.09,2.23-.85,2.17-1.79-.06-1-.98-1.57-2.23-1.49l-2.69,.15,.19,3.27,2.56-.15Z"/><path class="b" d="M58.17,22.16l.64,11.2,6.22-.36,.16,2.72-9.76,.56-.8-13.92,3.54-.2Z"/><path class="b" d="M65.97,28.73c-.25-4.41,2.38-7.35,6.64-7.6,4.24-.24,7.17,2.38,7.43,6.78,.25,4.36-2.3,7.28-6.6,7.53-4.33,.25-7.21-2.34-7.46-6.71Zm10.26-.55c-.19-3.28-1.56-4.5-3.47-4.39-1.91,.11-3.15,1.48-2.96,4.76,.18,3.2,1.57,4.34,3.49,4.23,1.91-.11,3.13-1.4,2.94-4.6Z"/><path class="b" d="M95.25,24.75l-3.67,.23c-.34-1.36-1.31-2.19-2.86-2.11-1.78,.1-2.9,1.34-2.72,4.57,.19,3.24,1.44,4.52,3.25,4.42,1.48-.08,2.37-1.24,2.56-2.63l3.67-.18c-.23,2.78-1.56,5.21-5.97,5.46-4.24,.24-7.13-2.62-7.37-6.9-.25-4.28,2.27-7.16,6.53-7.41,3.47-.2,6.09,1.71,6.57,4.54Z"/><path class="b" d="M107.45,33.29l-4-5.97-1.88,2.48,.22,3.81-3.65,.21-.8-13.92,3.65-.21,.34,6,4.52-6.28,3.99-.23-3.99,5.59,5.4,8.3-3.81,.22Z"/><path class="b" d="M112.46,19.03l10.63-.61,.14,2.73-7.08,.41,.16,2.84,6.03-.35,.15,2.68-6.05,.35,.17,2.91,7.18-.4,.16,2.75-10.69,.62-.8-13.92Z"/><path class="b" d="M130.71,18c5.42-.17,7.89,2.39,8.12,6.44,.24,4.2-2.07,7.16-7.38,7.47l-4.85,.28-.8-13.92c.37-.02,3.62-.22,4.91-.26Zm-.72,11.37l1.4-.08c2.04-.12,3.96-1.42,3.78-4.68-.17-2.91-1.82-4.17-4.26-4.03l-1.42,.08,.5,8.7Z"/><path class="b" d="M145.6,27.01l3.65-.24c.33,1.1,1.46,1.67,2.99,1.59,1.48-.08,2.74-.58,2.68-1.67-.05-.94-1.24-1.21-2.61-1.37l-2.51-.28c-2.34-.24-3.91-1.46-4.07-3.72-.2-2.71,2.42-4.51,5.8-4.7,3.61-.21,6.13,1.7,6.52,3.92l-3.55,.22c-.25-1.25-1.27-1.68-2.76-1.59-1.6,.09-2.32,.78-2.28,1.53,.04,.73,.47,1.12,1.95,1.31l2.49,.29c4.06,.44,4.55,2.76,4.63,4.18,.13,2.3-2.41,4.21-6.11,4.42-3.07,.18-6.34-.96-6.8-3.89Z"/><path class="b" d="M160.6,16.27l5.69-.33c3.28-.19,5.88,1.32,6.05,4.31,.16,2.76-1.83,4.52-5.08,4.71l-2.61,.15,.28,4.88-3.54,.2-.8-13.92Zm6.42,6.21c1.26-.07,2.12-1.09,2.06-2.21-.07-1.17-1.14-1.94-2.31-1.88l-2.53,.15,.24,4.09,2.55-.15Z"/><path class="b" d="M176.98,15.33l3.64-.21,6.1,13.62-3.48,.2-1.27-2.9-5.03,.29-.96,3.03-3.51,.2,4.51-14.23Zm4.02,7.93l-2.01-4.89-1.46,5.09,3.46-.2Z"/><path class="b" d="M187.93,14.7l5.18-.3,3.44,9.04,2.41-9.37,5.15-.3,.8,13.92-3.53,.2-.6-10.37-2.65,10.56-2.63,.15-3.82-10.15,.59,10.34-3.54,.2-.8-13.92Z"/></g><path class="b" d="M21.61,22.95c4.71-.28,8.75,3.07,8.99,7.48,.23,4.3-3.18,8.1-7.97,8.44-4.78,.33-8.86-3.05-9.1-7.46-.24-4.41,3.35-8.17,8.08-8.45Zm-5.23,4.3c-1.84,2.24-1.89,6.21,1.15,8.62,3.07,2.44,7.16,1.68,9.08-.12l-10.23-8.51Zm11.36,7.34c1.94-2.39,1.85-6.44-1.34-8.79-3.11-2.3-7.12-1.42-8.88,.29l10.22,8.5Z"/></svg>