<?xml version="1.0" encoding="UTF-8"?><svg xmlns="http://www.w3.org/2000/svg" viewBox="0 0 234.74 230.6"><defs><style>.b{fill:#fff;}.c{fill:#7c4639;}.d{fill:#686868;}.d,.e{mix-blend-mode:multiply;}.f{fill:#848484;}.g{fill:#db826a;}.h{fill:#161515;}.i{fill:#a0a0a0;}.j{isolation:isolate;}.k{fill:#e0e0e0;}.l{fill:#eaeaea;}.m{fill:#aaa;}.n{fill:#cecece;}.o{fill:#ffb18f;}</style></defs><g class="j"><g id="a"><g><path class="i" d="M33.32,134.31c2.98-21.38,55.99-49.52,92.19-45.46,36.2,4.06,70.03,27.86,78.69,45.46,8.66,17.59-4.06,80.93-4.06,80.93H47.49s-19.33-43.89-14.17-80.93Z"/><path class="h" d="M75.01,98.06s27.52-11.02,50.5-9.21c23.78,1.88,40.06,12.29,40.06,12.29,0,0-22.09,4.04-44.48,3.75-21.06-.27-42.39-4.8-45.81-6.73"/><path class="h" d="M204.48,134.92l-170.82-1.18s-.06-6.15,7.27-13.48c7.32-7.32,10.81-9.71,10.81-9.71,0,0,56.61,7.31,68.74,7.16,12.13-.16,58.85-8.83,58.85-8.83,0,0,11.43,8.31,15.5,12.38,4.07,4.07,9.66,13.67,9.66,13.67Z"/><rect class="h" x="30.66" y="151.95" width="178.21" height="24.86"/><rect class="h" x="29.01" y="191.18" width="178.21" height="24.86"/><path class="o" d="M81.59,58.8c-.54,7.31,6.77,32.48,14.62,43.3,7.85,10.82,19.48,17.59,26.35,18.13,6.87,.54,17.14-7.78,24.98-21.84,8.82-15.83,13.08-40.95,13.08-40.95l-79.03,1.35Z"/><path class="g" d="M114.35,90.52s3.47-2.14,5.26-2.57c1.26-.3,6.51,3.1,5.83,3.51-.68,.41-11.64,0-11.1-.94Z"/><path class="c" d="M103.71,90.41c.23-.75,7.72,8.52,17.38,8.57,5.84,.03,9.14-1,9.22,.08,.13,1.87-3.21,4.17-6.49,4.98-3.22,.79-11.43,2.34-18.4-2.79-1.61-1.19-2.51-8.23-1.71-10.85Z"/><path class="g" d="M104.7,88.47c.07,1.41-3.52-.44-4.18,1.76-.81,2.71,1.28,3.69,.83,3.99s-3.02-1.33-1.57-5.12c.86-2.27,4.83-2.51,4.92-.63Z"/><path class="i" d="M43.27,118.21C24.93,132.67,3.37,187.9,.13,205.77c-3.25,17.86,57.71,24.27,68.81,18.31,11.1-5.96-6.29-80.56-12.79-89.22-6.49-8.66-9.1-19.63-12.88-16.64Z"/><g><path class="i" d="M48.44,226.11c9.28,.42,17.15-.24,20.5-2.03,1.84-.99,2.89-3.86,3.35-8.01l-23.84,10.04Z"/><path class="h" d="M60.32,144.67l-32.56-6.73c-3.01,5.06-5.95,10.63-8.73,16.37l46.61,9.64c-1.74-7.34-3.61-14.07-5.33-19.28Z"/><path class="h" d="M53.47,185.6l3.97,9.43,6.25,1.29,3.6-17.43-54.3-11.23c-2.47,5.81-4.69,11.52-6.58,16.81l33.35,6.9,13.71-5.77Z"/><path class="h" d="M57.44,195.03l-17.68-3.66L.1,208.07c.7,5.32,7.28,9.49,16.19,12.49l44.08-18.56-2.94-6.97Z"/><polygon class="i" points="39.76 191.37 57.44 195.03 53.47 185.6 39.76 191.37"/><path class="h" d="M72.33,204.43l-45.16,19.02c7.04,1.46,14.52,2.35,21.27,2.66l23.84-10.04c.35-3.21,.34-7.18,.05-11.64Z"/></g><path class="d" d="M48.57,150.28s-6.77,19.22-11.09,23.28c-4.33,4.06-12.18,1.08-17.05,4.6-4.87,3.52-5.68,14.07-5.68,14.07,0,0,10.86-8.12,21.54-4.06,10.67,4.06,18.52-3.79,18.52-3.79l-6.23-34.1Z"/><path class="d" d="M49.65,192.99s-15.46-4-21.79,1.68c-4.53,4.06-4.4,8.94-4.4,8.94,0,0,3.73-4.37,8.43-6,7.02-2.42,22.74,7.27,16.4-.78l1.35-3.85Z"/><path class="i" d="M191.47,118.21c18.33,14.46,39.89,69.69,43.14,87.55,3.25,17.86-57.71,24.27-68.81,18.31-11.1-5.96,6.29-80.56,12.78-89.22,6.5-8.66,9.1-19.63,12.88-16.64Z"/><g><path class="h" d="M206.55,137.23l-30.57,3.03c-1.79,4.65-3.86,11.54-5.85,19.41l45.95-4.55c-3.02-6.3-6.24-12.4-9.54-17.89Z"/><path class="h" d="M221.09,166.13l-53.69,5.32c-1.36,6.36-2.57,12.92-3.48,19.18l64.33-6.37c-2.05-5.69-4.47-11.87-7.17-18.13Z"/><path class="h" d="M184.04,210.47h49.89c.72-1.47,.98-3.03,.68-4.7-.63-3.46-1.95-8.34-3.8-14.04h-67.05c-.72,5.12-1.23,10-1.45,14.37l21.73,4.38Z"/><path class="h" d="M162.19,210.47c0,7.12,1.03,12.22,3.62,13.61,7.85,4.21,40.63,2.23,58-5.6l-39.76-8.01h-21.85Z"/></g><path class="d" d="M186.17,151.06s6.76,19.22,11.1,23.28c4.33,4.06,12.18,1.08,17.05,4.6,4.87,3.52,5.68,14.07,5.68,14.07,0,0-10.86-8.12-21.54-4.06-10.67,4.06-18.52-3.79-18.52-3.79l6.23-34.1Z"/><path class="d" d="M185.09,193.77s15.46-4,21.79,1.68c4.53,4.06,4.4,8.94,4.4,8.94,0,0-3.73-4.37-8.43-6-7.02-2.42-22.75,7.27-16.4-.78l-1.35-3.85Z"/><path class="d" d="M212.46,173.04s-2.55-6.96-7.42-8.86c-4.87-1.89-11.84-6.9-11.84-6.9,0,0,2.58,12.6,5.26,13.53,6.38,2.23,14,2.23,14,2.23Z"/><g><rect class="n" x="74.34" y="225.06" width="16.24" height="1.51"/><rect class="n" x="155.96" y="225.06" width="16.24" height="1.51"/></g><path class="d" d="M22.28,172.26s2.55-6.96,7.42-8.86c4.87-1.89,11.84-6.9,11.84-6.9,0,0-2.59,12.6-5.26,13.53-6.38,2.23-14,2.23-14,2.23Z"/><path class="o" d="M161.36,47.8c0,32.93-18.44,38.74-40.27,38.74s-41.72,0-39.53-39.32c1.21-21.68,17.7-39.32,39.53-39.32s40.27,18.18,40.27,39.9Z"/><path class="h" d="M125.5,.02s-5.59,4.91-18.63,9.56c-13.04,4.65-25.83,20.27-26.73,40.03-.9,19.76,2.07,36.19,6.97,35.28,4.91-.9,8.55-5.17,20.72-3.87,12.17,1.29,18.38-.29,29.44,1.94,10.85,2.19,16.17,3.49,16.95,4.26,.77,.77,17.72-27.02,5.71-58.4-5.62-14.67-25.23-20.42-28.02-22.73-2.21-1.83-.95-6.46-6.42-6.07Z"/><path class="b" d="M104.7,92.54s-.07,3.85,.62,5.42c.39,.9,.05,2.84,.82,3.29s6.78,3.42,13.36,2.91c6.59-.52,5.25-1.48,5.25-1.48l-.9-.45s2.41-.43,3.87-.71,1.42-1.87,1.42-1.87c0,0-10.2,.97-13.36,.19-3.16-.77-10.6-7.88-11.08-7.3Z"/><path class="b" d="M88.92,54.9s-.05,11.49,2.04,14.33c2.09,2.84,27.14,5.68,27.14,5.68,0,0-4.91-6.14-12.27-11.36-6.53-4.64-15.5-8.41-16.92-8.65Z"/><path class="b" d="M155.79,54.9s.05,11.49-2.04,14.33-27.14,5.68-27.14,5.68c0,0,4.91-6.14,12.27-11.36,6.53-4.64,15.5-8.41,16.92-8.65Z"/><g><rect class="f" x="40.16" y="226.24" width="152.65" height="4.36"/><g><rect class="k" x="40.16" y="125.44" width="152.65" height="100.89"/><rect class="l" x="40.16" y="125.44" width="152.65" height="2.06"/></g><g class="e"><path class="m" d="M151.6,190.69c-8.87-13.93-17.79-27.83-26.69-41.73-5.25-8.2-14.68-7.93-19.66,.43-5.55,9.31-11.27,18.53-16.92,27.78-3.15,5.16-6.3,10.33-9.07,14.87-3.66,7.71,1.19,15.8,8.99,16.07,2.64,.09,5.29-.03,7.94-.05,15.24-.16,30.48-.34,45.72-.47,3.45-.03,6.47-.97,8.81-3.59,3.36-3.77,3.73-8.81,.88-13.29Zm-9.14,14.71c-14.36,.21-28.72,.32-43.08,.47-3.46,.04-6.93,.13-10.39,.09-1.3-.01-2.59-.33-3.89-.51-4.63-2.29-6.59-7.96-3.97-12.31,6.93-11.5,13.95-22.94,20.94-34.4,1.87-3.07,3.76-6.13,5.62-9.2,3.45-5.68,11.17-5.96,14.78-.38,9.24,14.28,18.42,28.61,27.51,43,3.78,5.98-.33,13.13-7.53,13.24Z"/><path class="m" d="M120.92,151.15c-3.22-5.01-8.51-4.83-11.6,.3-4.62,7.66-9.32,15.27-13.98,22.9-1.85,3.04-3.68,6.09-5.67,9.39,17.36-.19,34.4-.37,51.65-.56-.4-.69-.65-1.18-.95-1.64-6.48-10.13-12.95-20.27-19.45-30.39Zm-5.76,1.46c2.55-.05,4.35,1.95,4.15,4.75-.34,4.64-.76,9.28-1.15,13.92-.02,.25-.09,.49-.19,.97-1.74,.03-3.36,.05-5.22,.08-.11-1.04-.23-2.01-.33-2.99-.42-3.94-.87-7.88-1.25-11.83-.27-2.79,1.44-4.83,3.98-4.88Zm3.91,26.38c-.8,1.93-3.23,2.8-5.27,1.89-1.86-.83-2.7-2.8-1.92-4.51,.84-1.85,3.43-2.72,5.37-1.81,1.71,.8,2.52,2.77,1.83,4.44Z"/><path class="m" d="M137.99,188.2c-1.59-.23-2.35,.38-2.65,2.01-.38,2.05-1.04,4.05-1.59,6.07-.11,0-.22,0-.33,0-.78-2.64-1.56-5.27-2.36-7.99-1.34,.01-2.58,.03-4.05,.04,.05,4.36,.1,8.49,.15,12.75,.9-.02,1.64-.03,2.5-.05-.02-2.79-.04-5.48-.06-8.17h.32c.8,2.7,1.59,5.4,2.41,8.18,.94-.03,1.74-.06,2.58-.08,.77-2.81,1.51-5.5,2.25-8.19,.1,.01,.19,.02,.29,.03,.05,2.68,.11,5.35,.17,8.17,.9-.02,1.63-.03,2.49-.05-.06-4.31-.11-8.49-.16-12.7-.84,0-1.42,.06-1.97-.02Z"/><path class="m" d="M96.41,193.91c-1.03-.3-2.1-.46-3.08-.86-.49-.2-.82-.8-1.22-1.22,.5-.38,.96-.96,1.52-1.11,1.47-.38,2.55,.25,3.08,1.71,.83-.06,1.58-.11,2.33-.16-.4-2.89-2.17-4.06-5.5-3.74-2.39,.23-3.82,1.43-3.94,3.3-.12,1.81,1.04,3.2,3.23,3.83,.97,.27,1.99,.4,2.91,.78,.49,.21,1.09,.82,1.12,1.28,.03,.47-.49,1.21-.95,1.42-1.34,.61-2.93,.74-3.64-.76-.75-1.59-1.72-1.24-3.01-.91,.72,3.41,3.01,4.75,6.71,4.09,2.22-.4,3.51-1.74,3.58-3.73,.07-1.95-1-3.3-3.12-3.91Z"/><path class="m" d="M117.6,189.02c-1.61,3.99-3.09,8.03-4.62,12.05,1.86,.53,2.89,.13,3.37-1.62,.13-.48,.99-.94,1.6-1.08,.84-.19,1.78-.2,2.62-.02,.6,.13,1.46,.61,1.58,1.09,.49,2.01,1.81,1.85,3.51,1.54-1.66-4.02-3.26-7.97-4.92-11.89-.41-.96-2.74-1.03-3.13-.07Zm-.12,7.08c.54-1.55,1.01-2.88,1.51-4.31,.51,1.49,.97,2.83,1.48,4.31-.77,0-1.78,0-2.99,0Z"/><path class="m" d="M109.32,198.04c-1.19,1.75-3.72,1.77-4.71-.07-1.04-1.93-1.07-4.02-.06-5.99,.71-1.4,2.7-1.9,3.93-1.04,.59,.41,1.01,1.07,1.55,1.66,.71-.19,1.42-.39,2.12-.58-.28-2.64-3.34-4.14-6.22-3.56-3.15,.63-4.92,3.33-4.67,7.17,.23,3.47,2.29,5.71,5.44,5.91,2.89,.18,4.91-1.3,5.49-4.18-.67-.22-1.36-.45-2.11-.71-.28,.52-.48,.98-.76,1.38Z"/></g></g></g></g></g></svg>