<?xml version="1.0" encoding="UTF-8"?><svg xmlns="http://www.w3.org/2000/svg" viewBox="0 0 234.74 225.22"><defs><style>.b{fill:#848484;}.c{fill:#3f3f3f;}.d{fill:#161515;}.e{isolation:isolate;}.f{fill:#dee0e1;}.g{fill:#232323;}.h{fill:#e0e0e0;}.i{fill:#444;}.j{fill:#eaeaea;}.k{fill:#2b2b2b;}.l{fill:#fbfbfb;}.m{fill:#aaa;}.n{fill:#353535;}.o{fill:#474747;}.p{fill:#f7c5c5;}.q{fill:#cecece;}.r{mix-blend-mode:multiply;}</style></defs><g class="e"><g id="a"><g><path class="d" d="M33.32,128.94c2.98-21.38,55.99-49.52,92.19-45.46,36.2,4.06,70.03,27.86,78.69,45.46,8.66,17.59-4.06,80.93-4.06,80.93H47.49s-19.33-43.89-14.17-80.93Z"/><path class="d" d="M63.46,82.66s-4.33-7.85,5.68-20.03c10.01-12.18,57.05-35.22,81.95-16.82,24.9,18.4,29.16,31.03,27.66,36.85-1.5,5.82-38.97,30.85-41.68,41.81-2.71,10.96-15.43,29.62-16.28,29.64-.84,.02-11.33-21.65-19.72-33.02-8.39-11.37-37.62-38.43-37.62-38.43Z"/><g><path class="l" d="M97.33,106.6c-2.87-4.63-4.62-9.75-6.5-14.83-2.92-7.92-5.03-16.07-5.91-24.43-.83-7.84-.94-15.76,2.64-23.15,2.65-5.48,6.61-9.52,12.84-10.81,.69,.23,1.39,.47,1.78-.45,5.03-.35,10.06-.22,15.09,0,.14,.18,.3,.53,.42,.52,2.73-.28,2.48,1.54,2.47,3.33-.03,14.03-.02,28.07-.03,42.1-3.85-.14-7.58,.58-10.88,2.49-4.82,2.8-9.19,3.01-13.29-1.2-.32-.33-.79-.51-1.2-.75-.79-.47-1.6-.53-2.7,.02,2.16,2.77,3.86,5.79,6.43,8.12,1.45,1.31,3.25,1.88,5.22,1.88,3.15-.01,6.31-.07,9.46,.03,1.35,.04,2.13-.5,2.94-1.51,1.34-1.67,2.12-3.84,4.18-4.9-.04,5.49-.08,10.98-.12,16.47-.07,.03-.14,.06-.22,.08-1.57,.44-3.7-.7-4.68,.61-1.13,1.51,.76,3.12,1.16,4.73,1.02,4.15,2.03,8.33,3.66,12.3l.03,2.53c-.71,.09-1.37-.04-2.06-.3-5.74-2.18-10.99-5.22-15.93-8.86-1.42-1.04-2.4-2.71-4.28-3.11h.01c.08-.45-.07-.78-.53-.93Zm-4.84-43.58c.35,.28,.46,.45,.57,.45,7.55,.03,15.1,.04,22.65,.07,1.45,0,1.39-.67,.76-1.59-1.22-1.75-2.59-3.33-4.61-4.25-2.8-1.28-5.63-1.14-8.52-.39-4.05,1.05-7.59,3-10.85,5.71Zm2.1-20.46c2.12-.18,3.9,.11,5.64,.6,4.88,1.36,9.35,3.68,13.84,5.97,.38,.19,.66,.88,1.15,.42,.5-.47,.16-.96-.23-1.42-3.13-3.72-6.68-6.92-11.21-8.81-3.71-1.54-6.66-.49-9.18,3.24Z"/><path class="f" d="M120.13,78.88c0-14.03,0-28.07,.03-42.1,0-1.79,.26-3.61-2.47-3.33-.12,.01-.28-.34-.42-.52,6.53-.05,13.08-.47,19.58-.04,7.39,.49,12.47,4.8,15.58,11.43,2.72,5.79,3.41,11.99,3,18.25-1.02,15.55-5.69,30.1-12.6,43.98l-.48,.82-.04,.08c-.41,.22-.88,.36-1.21,.66-5.16,4.68-11.1,8.11-17.47,10.84-1.08,.46-2.17,1.28-3.51,.83-.01-.84-.02-1.69-.03-2.53,1.24-4.27,2.49-8.53,3.71-12.8q1.28-4.49-3.4-4.86c-.08,0-.15-.04-.23-.06,.04-5.49,.08-10.98,.12-16.47,1.67,1.37,2.63,3.3,3.97,4.93,.54,.66,.93,1.46,1.99,1.44,3.85-.05,7.71,0,11.56-.11,1.35-.04,2.61-.63,3.65-1.52,2.76-2.36,4.59-5.46,6.69-8.43-1.18-.53-2.05-.37-2.89,.18-1.31,.87-2.77,1.57-3.92,2.62-2.11,1.91-4.16,1.84-6.65,.7-4.62-2.13-9.26-4.34-14.57-4.01Zm27.53-15.44c-3.41-3.83-11.03-6.98-15.72-6.7-4.13,.25-7.96,3.17-8.72,6.7h24.44Zm-2.3-20.97c-2.75-4.06-6.51-4.8-10.78-2.44-3.7,2.05-6.63,4.99-9.6,7.91-.27,.27-.69,.55-.47,.98,.26,.51,.76,.43,1.21,.21,1.91-.91,3.8-1.86,5.72-2.74,4.37-2.01,8.75-3.95,13.92-3.92Z"/><path class="p" d="M120.11,119.79c1.33,.44,2.42-.37,3.51-.83,6.36-2.73,12.31-6.16,17.47-10.84,.33-.3,.8-.44,1.21-.66-1.83,4.71-4.55,8.93-7.23,13.18-3.72,5.89-8.01,11.29-13.15,16.02-1.37,1.26-2.18,1.39-3.65,.05-7.31-6.68-12.75-14.74-17.49-23.32-1.05-1.91-2.43-3.68-2.92-5.87,1.88,.4,2.86,2.07,4.28,3.11,4.94,3.64,10.18,6.68,15.93,8.86,.69,.26,1.35,.39,2.06,.3Z"/><path class="f" d="M102.18,32.92c-.4,.93-1.09,.69-1.78,.45,.5-.51,1.09-.67,1.78-.45Z"/><path class="p" d="M142.34,107.37l.48-.82c-.02,.36-.04,.71-.48,.82Z"/><path class="p" d="M97.33,106.6c.47,.15,.61,.48,.53,.94-.48-.14-.48-.55-.53-.94Z"/><path class="c" d="M120.13,78.88c5.31-.33,9.96,1.88,14.57,4.01,2.49,1.15,4.53,1.22,6.65-.7,1.15-1.04,2.61-1.75,3.92-2.62,.84-.56,1.71-.71,2.89-.18-2.11,2.97-3.93,6.06-6.69,8.43-1.04,.89-2.3,1.48-3.65,1.52-3.85,.1-7.71,.06-11.56,.11-1.07,.01-1.46-.79-1.99-1.44-1.34-1.63-2.3-3.57-3.97-4.93-2.06,1.06-2.84,3.23-4.18,4.9-.81,1.01-1.58,1.55-2.94,1.51-3.15-.1-6.3-.04-9.46-.03-1.98,0-3.78-.56-5.22-1.88-2.57-2.33-4.26-5.35-6.43-8.12,1.1-.55,1.91-.49,2.7-.02,.41,.24,.88,.42,1.2,.75,4.1,4.21,8.47,4,13.29,1.2,3.3-1.91,7.03-2.63,10.88-2.49Z"/><path class="c" d="M92.49,63.01c3.26-2.71,6.8-4.65,10.85-5.71,2.89-.75,5.72-.89,8.52,.39,2.01,.92,3.39,2.5,4.61,4.25,.63,.91,.69,1.59-.76,1.59-7.55-.03-15.1-.04-22.65-.07-.11,0-.22-.17-.57-.45Z"/><path class="c" d="M120.16,99.54c.07,.02,.15,.06,.23,.06q4.67,.37,3.4,4.86c-1.22,4.27-2.47,8.54-3.71,12.8-1.63-3.98-2.63-8.15-3.66-12.3-.4-1.61-2.29-3.22-1.16-4.73,.98-1.31,3.11-.17,4.68-.61,.08-.02,.15-.05,.22-.08Z"/><path class="c" d="M94.59,42.55c2.52-3.73,5.47-4.78,9.18-3.24,4.53,1.88,8.08,5.09,11.21,8.81,.39,.47,.73,.96,.23,1.42-.49,.46-.77-.23-1.15-.42-4.48-2.29-8.95-4.61-13.84-5.97-1.74-.49-3.52-.78-5.64-.6Z"/><path class="c" d="M147.65,63.44h-24.44c.76-3.54,4.59-6.46,8.72-6.7,4.7-.28,12.31,2.87,15.72,6.7Z"/><path class="c" d="M145.36,42.47c-5.17-.03-9.56,1.92-13.92,3.92-1.92,.88-3.82,1.83-5.72,2.74-.45,.21-.94,.29-1.21-.21-.22-.43,.2-.71,.47-.98,2.97-2.91,5.9-5.86,9.6-7.91,4.27-2.36,8.03-1.62,10.78,2.44Z"/></g><path class="n" d="M58.86,82.39c-.94-.26,16.78-59.27,40.16-75.6,13.4-9.35,38.32-9.11,50.5,1.17,15.96,13.47,33.56,73.89,32.75,75.78-.81,1.89-20.96-40.37-62.36-41.43-42.22-1.08-58.09,40.89-61.06,40.08Z"/><path class="n" d="M58.86,82.39s2-4.04,4.23-3.11c15.63,6.5,49.78,38.15,55.01,55.31,6.77,22.19,3.82,35.22,3.82,35.22,0,0-10.55-28.69-26.25-48.72-12.52-15.98-36.81-38.7-36.81-38.7Z"/><path class="n" d="M182.27,83.74s-2.85-5.55-4.6-4.6c-14.58,7.9-49.11,38.47-54.33,55.59-6.77,22.19-1.43,35.08-1.43,35.08,0,0,7.9-27.66,23.6-47.68,12.52-15.98,36.76-38.38,36.76-38.38Z"/><path class="i" d="M123.27,5.59c-14.63,0-27.31,28.56-30.35,37.97,7.48-.88,16.41-1.41,27-1.25,11.14,.17,20.73,1.06,28.83,2.25-2.54-10.01-5.84-38.97-25.47-38.97Z"/><path class="n" d="M43.27,112.84C24.93,127.3,3.37,182.53,.13,200.39c-3.25,17.86,57.71,24.27,68.81,18.31,11.1-5.96-6.29-80.56-12.79-89.22-6.49-8.66-9.1-19.63-12.88-16.64Z"/><path class="o" d="M145.51,122.13c5.29-6.75,12.67-14.64,19.43-21.51-5.83,4.14-12.56,9.93-19.98,18.04-15.01,16.41-20.11,34.49-21.72,46.97,2.84-8.48,10.28-28.21,22.27-43.5Z"/><path class="g" d="M48.57,144.91s-6.77,19.22-11.09,23.28c-4.33,4.06-12.18,1.08-17.05,4.6-4.87,3.52-5.68,14.07-5.68,14.07,0,0,10.86-8.12,21.54-4.06,10.67,4.06,18.52-3.79,18.52-3.79l-6.23-34.1Z"/><path class="k" d="M49.65,187.62s-15.46-4-21.79,1.68c-4.53,4.06-4.4,8.94-4.4,8.94,0,0,3.73-4.37,8.43-6,7.02-2.42,22.74,7.27,16.4-.78l1.35-3.85Z"/><path class="n" d="M191.47,112.84c18.33,14.46,39.89,69.69,43.14,87.55,3.25,17.86-57.71,24.27-68.81,18.31-11.1-5.96,6.29-80.56,12.78-89.22,6.5-8.66,9.1-19.63,12.88-16.64Z"/><path class="g" d="M186.17,144.91s6.76,19.22,11.1,23.28c4.33,4.06,12.18,1.08,17.05,4.6,4.87,3.52,5.68,14.07,5.68,14.07,0,0-10.86-8.12-21.54-4.06-10.67,4.06-18.52-3.79-18.52-3.79l6.23-34.1Z"/><path class="k" d="M185.09,187.62s15.46-4,21.79,1.68c4.53,4.06,4.4,8.94,4.4,8.94,0,0-3.73-4.37-8.43-6-7.02-2.42-22.75,7.27-16.4-.78l-1.35-3.85Z"/><path class="k" d="M212.46,166.89s-2.55-6.96-7.42-8.86c-4.87-1.89-11.84-6.9-11.84-6.9,0,0,2.58,12.6,5.26,13.53,6.38,2.23,14,2.23,14,2.23Z"/><rect class="h" x="46.95" y="120.07" width="152.65" height="100.89"/><rect class="b" x="46.95" y="220.87" width="152.65" height="4.36"/><g><rect class="q" x="74.34" y="219.69" width="16.24" height="1.51"/><rect class="q" x="155.96" y="219.69" width="16.24" height="1.51"/></g><rect class="j" x="46.95" y="120.07" width="152.65" height="2.06"/><path class="k" d="M22.28,166.89s2.55-6.96,7.42-8.86c4.87-1.89,11.84-6.9,11.84-6.9,0,0-2.59,12.6-5.26,13.53-6.38,2.23-14,2.23-14,2.23Z"/><g class="r"><path class="m" d="M114.96,186.97c.48-8.86,3.16-16.05,6.57-23.02,1.98-4.04,1.14-3.46,5.64-2.55,10.3,2.09,18.78,7.51,26.84,13.84,.93,.73,1.06,1.64,.52,2.52-3.42,5.65-6.29,11.65-10.86,16.54-3.61,3.86-7.58,7.26-12.84,8.53-2.24,.54-4.67,.64-6.98,.47-3-.22-4.63-2.58-6.08-4.91-2.37-3.8-2.88-8.05-2.83-11.42Zm5.39-2.73c-.16,3.21,.05,6.22,1.72,8.92,.97,1.56,2.32,2.65,4.15,2.94,4.2,.66,7.31-1.46,10.3-4.16-7.38,1.52-12.8-.86-16.18-7.71Zm14.37-2.89c.97,3.61,5.56,6.42,9.59,4.68-1.64-4.38-4.91-6-9.59-4.68Zm-3.61-1.91c-1.67-4.21-5.45-5.99-9.46-4.46,1.76,4.28,5.88,6.22,9.46,4.46Z"/><path class="m" d="M114.86,169.06l-3.1,11.06c-3.9-.98-7.13-3.18-9.95-6.01-4.83-4.85-7.9-10.79-10.41-17.07-.76-1.9-1.47-3.82-2.23-5.73-.52-1.3-.35-2.26,1-3,1.93-1.05,3.81-2.22,5.66-3.42,5.67-3.68,11.98-5.47,18.61-6.31,1.94-.25,3.87-.56,5.8-.85,1.83-.28,2.68,.11,3.09,1.76,1.31,5.23,2.55,10.48,3.79,15.73,.17,.72,.13,1.48,.2,2.3-.91-.32-1.66-.76-2.46-.83-2.96-.26-4.75,.9-6.03,3.7-.71,1.54-1.41,3.09-2.11,4.61-5.78-.89-9.63,3.57-10.21,10.08,2.51-2.49,4.64-5.31,8.36-6.03Zm-7.26-12.85c-4.82-.68-8.41,2.1-8.55,6.56,4.99,.76,7.86-2.06,8.55-6.56Zm4.79-2.4c3.21,3.23,7.64,3.11,10.54-.23-3.12-3.13-6.69-3.08-10.54,.23Z"/></g></g></g></g></svg>