<?xml version="1.0" encoding="UTF-8"?><svg xmlns="http://www.w3.org/2000/svg" xmlns:xlink="http://www.w3.org/1999/xlink" viewBox="0 0 190.03 237.66"><defs><style>.d{fill:#0a1925;}.e,.f{fill:#fff;}.g,.h{opacity:.3;}.g,.i{fill:#b20d02;}.j{fill:#848484;}.k{fill:#f0b89f;}.l{fill:#161515;}.m{fill:url(#c);}.n{fill:#dd1616;}.o{isolation:isolate;}.p{fill:#0d0d2b;}.f,.q,.r{opacity:.5;}.s{fill:#e0e0e0;}.q,.t{fill:#db825e;}.u{fill:#0f5482;}.v{fill:#ea537a;}.w{fill:#08496d;}.x{fill:#eaeaea;}.y{fill:url(#b);}.a`{fill:#56a2cc;}.aa{fill:#aaa;}.ab{fill:#353535;}.ac{fill:#eb1a04;}.ad{fill:#aececc;}.ae{fill:#cecece;}.af{fill:#a6183d;}.ag{mix-blend-mode:multiply;}.r{fill:none;stroke:#fff;stroke-linecap:round;stroke-miterlimit:10;}</style><linearGradient id="b" x1="-249.21" y1="-122.42" x2="-249.21" y2="-151.93" gradientTransform="translate(391.64 166.74) rotate(-4.35)" gradientUnits="userSpaceOnUse"><stop offset="0" stop-color="#db825e" stop-opacity="0"/><stop offset="1" stop-color="#db825e"/></linearGradient><linearGradient id="c" x1="-279.49" y1="-121.83" x2="-279.49" y2="-151.34" xlink:href="#b"/></defs><g class="o"><g id="a"><g><path class="l" d="M189.97,144.2c-.64,13.19-1.91,22.02-1.7,34.14,.21,12.12,.13,23.8,.13,23.8,0,0-.03,.02-.08,.06-3.11,2.07-6.32,4.01-9.63,5.79-14.23,7.67-30.19,12.56-47.14,13.92-1.05,.08-2.11,.15-3.17,.21-2.18,.12-4.38,.18-6.59,.18-7.05,0-13.96-.61-20.67-1.77-22.93-3.98-43.63-14.46-60.14-29.48,2.34-16.34,6.59-45.61,8.23-53.87,2.83-14.36,12.35-19.27,20.81-20.21,7.71-.85,18.66-2.55,24.5-4.05,5.84-1.49,7.6-3.45,7.6-3.45,0,0,37.87-2.5,45.02,.91,7.14,3.4,16,4.54,28.06,8.59,10.48,3.52,15.42,12.04,14.78,25.23Z"/><path class="k" d="M106.59,96.86v19.07s2.77,17,14.89,17,16.17-18.72,16.17-18.72v-23.73l-31.06,6.38Z"/><path class="ad" d="M102.01,118.04s-1.12,14.09,4.12,23.02c3.51,5.99,5.97,6.7,5.97,6.7l4.48-7.71-.93-1.89-13.65-20.13Z"/><path class="ab" d="M137.64,97.4s.78-2.13,4.22,3.62c3.44,5.74,5.26,9.36,5.26,9.36,0,0,3.2,18.93-12.22,33.82l-12.7-16.75s10.57-4.93,15.43-22.39v-7.66Z"/><path class="ab" d="M106.59,103.37s-1.24-1.52-4.48,6.1l-3.98,8.56s-.48,14.89,9.22,26.96l10.97-17.71s-8.39-6.01-11.74-19.09v-4.82Z"/><g><polygon class="u" points="126.09 127.45 122.2 127.29 115.66 138.16 120.04 147.07 126.58 147.07 132.63 136.08 126.09 127.45"/><path class="u" d="M132.25,222.12c-1.28,.07-2.58,.12-3.87,.15-.9,.02-1.81,.03-2.72,.03-6.43,0-12.74-.5-18.88-1.47l13.27-73.76h6.54l5.67,75.06Z"/><g><path class="w" d="M122.2,127.29s2.71,.58,3.89,2.39c1.18,1.81,4.16,6.81,1.08,11.06-3.08,4.25-11.51-2.58-11.51-2.58l4.38,8.91h6.54l6.05-10.99-6.54-8.63-3.89-.16Z"/><path class="w" d="M132.25,222.12c-1.28,.07-2.58,.12-3.87,.15-.54-15.06-2.25-61.75-2.72-67.23-.56-6.53-5.62-7.98-5.62-7.98h6.54l5.67,75.06Z"/></g></g><path class="t" d="M106.59,100.24s4.25,4.77,10.95,6.53c6.7,1.75,15.88-.16,20.1-4.2v-12.08l-31.06,6.38v3.38Z"/><g><path class="l" d="M89.1,21.53s-6.01,2.04-8.19,8.87c-2.18,6.83,3.34,28.73,4.79,34.73,1.45,5.99,5.07,5.07,5.07,5.07l5.43-47.56-7.1-1.11Z"/><path class="l" d="M143.04,18.57s6.2,1.36,9.12,7.91c2.92,6.55-.17,28.93-.95,35.04-.78,6.11-4.48,5.6-4.48,5.6l-10.62-46.68,6.93-1.88Z"/><path class="k" d="M96.63,64.52c.24,4.4-1.57,13.19-5.97,13.43-4.4,.24-9.39-2.2-9.96-12.55-.24-4.4,3.13-8.16,7.53-8.4,4.4-.24,8.16,3.13,8.4,7.53Z"/><g><path class="t" d="M84.73,69.86c0-2.17,1.76-3.93,3.93-3.93s3.93,1.76,3.93,3.93-1.76,3.93-3.93,3.93-3.93-1.76-3.93-3.93Z"/><path class="t" d="M92.6,69.86c-.06-.66,.8-8.14-3.93-9.25-4.73-1.12-5.37,4.63-5.37,4.63,0,0,1.83-3.86,4.66-2.33,2.83,1.53,.92,5.96,.92,5.96l3.72,.99Z"/></g><path class="k" d="M140.27,62.12c.24,4.4,3.01,12.94,7.41,12.69,4.4-.24,9.09-3.22,8.52-13.57-.24-4.4-4-7.77-8.4-7.53-4.4,.24-7.77,4-7.53,8.4Z"/><g><path class="t" d="M152.38,66.44c0-2.17-1.75-3.94-3.92-3.95-2.17,0-3.94,1.75-3.95,3.92,0,2.17,1.75,3.94,3.92,3.95,2.17,0,3.94-1.75,3.95-3.92Z"/><path class="t" d="M144.52,66.41c.06-.66-.77-8.14,3.97-9.24,4.74-1.1,5.35,4.65,5.35,4.65,0,0-1.82-3.87-4.66-2.35-2.84,1.52-.94,5.96-.94,5.96l-3.73,.98Z"/></g><path class="q" d="M96.63,64.52c.24,4.4-1.57,13.19-5.97,13.43-4.4,.24-9.39-2.2-9.96-12.55-.24-4.4,3.13-8.16,7.53-8.4,4.4-.24,8.16,3.13,8.4,7.53Z"/><path class="q" d="M140.27,62.12c.24,4.4,3.01,12.94,7.41,12.69,4.4-.24,9.09-3.22,8.52-13.57-.24-4.4-4-7.77-8.4-7.53-4.4,.24-7.77,4-7.53,8.4Z"/><path class="k" d="M120.48,100.2h0c-16.45,.91-30.7-14.88-31.6-31.33l-1.3-23.57c-.91-16.45,11.7-30.52,28.15-31.43h0c16.45-.91,30.52,11.7,31.43,28.15l1.3,23.57c.91,16.45-11.52,33.71-27.97,34.61Z"/><path class="t" d="M118.63,66.67c-3.29,.18-7.69,4.42-5.46,4.29,2.23-.12,9.35-.51,11.36-.63,2.02-.11-3.28-3.81-5.9-3.67Z"/><path class="y" d="M133.92,64.22h0c-4.28,.33-8.02-2.88-8.34-7.16l-1.14-14.92c-.33-4.28,2.88-8.02,7.16-8.34h0c4.28-.33,8.02,2.88,8.34,7.16l1.14,14.92c.33,4.28-2.88,8.02-7.16,8.34Z"/><path class="m" d="M103.77,67.11h0c-4.28,.33-8.02-2.88-8.34-7.16l-1.14-14.92c-.33-4.28,2.88-8.02,7.16-8.34h0c4.28-.33,8.02,2.88,8.34,7.16l1.14,14.92c.33,4.28-2.88,8.02-7.16,8.34Z"/><path class="ab" d="M136.14,32.47c-2.56-1.25-6.33-1.66-8.24-.04-1.83,1.55-1.3,3.84,1.14,4.57,1.67,.5,6.34,1.58,8.88,3.2,1.79,1.14,4.43,.64,3.63-2.2-.79-2.83-3.05-4.37-5.42-5.53Z"/><path class="ab" d="M97.48,34.6c2.41-1.53,6.11-2.35,8.18-.94,1.99,1.34,1.71,3.67-.63,4.67-1.6,.68-6.13,2.27-8.48,4.15-1.65,1.33-4.33,1.12-3.85-1.79,.48-2.9,2.55-4.68,4.78-6.09Z"/><path class="ab" d="M113.45,46.5l-1.32-1.51c3.34-2.91,7-3.11,10.58-.58l-1.16,1.64c-2.86-2.02-5.43-1.88-8.11,.45Z"/><g><path class="d" d="M133.2,54.52h0c-1.76,.1-3.26-1.25-3.36-3.01l-.09-1.59c-.1-1.76,1.25-3.26,3.01-3.36h0c1.76-.1,3.26,1.25,3.36,3.01l.09,1.59c.1,1.76-1.25,3.26-3.01,3.36Z"/><g class="h"><path class="p" d="M122.07,43.95l.4,7.33c.32,5.81,5.29,10.25,11.09,9.93h0c5.81-.32,10.25-5.29,9.93-11.09l-.36-6.53s-9.74-5.71-21.07,.36Z"/><path class="a`" d="M132.98,62.23c-6.07,0-11.17-4.76-11.51-10.9l-.44-7.97,.56-.3c11.7-6.26,21.63-.59,22.05-.34l.46,.27,.39,7.07c.35,6.35-4.53,11.8-10.88,12.15-.21,.01-.43,.02-.64,.02Zm-9.87-17.69l.37,6.68c.14,2.54,1.26,4.88,3.16,6.57,1.9,1.7,4.34,2.56,6.88,2.42,2.54-.14,4.88-1.26,6.57-3.16,1.7-1.9,2.56-4.34,2.42-6.88l-.33-5.96c-1.97-.96-9.97-4.24-19.06,.33Z"/></g><path class="ab" d="M132.98,62.23c-6.07,0-11.17-4.76-11.51-10.9l-.44-7.97,.56-.3c11.7-6.26,21.63-.59,22.05-.34l.46,.27,.39,7.07c.35,6.35-4.53,11.8-10.88,12.15-.21,.01-.43,.02-.64,.02Zm-9.87-17.69l.37,6.68c.14,2.54,1.26,4.88,3.16,6.57,1.9,1.7,4.34,2.56,6.88,2.42,2.54-.14,4.88-1.26,6.57-3.16,1.7-1.9,2.56-4.34,2.42-6.88l-.33-5.96c-1.97-.96-9.97-4.24-19.06,.33Z"/><path class="ab" d="M122.07,45.87c-.71,0-1.39-.4-1.72-1.08-.46-.95-.07-2.1,.88-2.56,.47-.23,11.69-5.56,22.72-.37,.96,.45,1.37,1.59,.92,2.55-.45,.96-1.59,1.37-2.55,.92-9.4-4.42-19.32,.3-19.42,.35-.27,.13-.56,.19-.84,.19Z"/></g><g><path class="d" d="M102.83,56.19h0c1.76-.1,3.11-1.6,3.01-3.36l-.09-1.59c-.1-1.76-1.6-3.11-3.36-3.01h0c-1.76,.1-3.11,1.6-3.01,3.36l.09,1.59c.1,1.76,1.6,3.11,3.36,3.01Z"/><g class="h"><path class="p" d="M91.74,46.42l.36,6.53c.32,5.81,5.29,10.25,11.09,9.93h0c5.81-.32,10.25-5.29,9.93-11.09l-.4-7.33s-13.79-5.24-20.98,1.95Z"/><path class="a`" d="M102.6,63.9c-2.84,0-5.55-1.03-7.68-2.94-2.29-2.06-3.65-4.88-3.82-7.96l-.38-6.98,.32-.32c7.56-7.57,21.46-2.41,22.05-2.18l.61,.23,.44,7.98c.17,3.08-.87,6.03-2.92,8.33-2.06,2.29-4.88,3.65-7.96,3.82-.22,.01-.43,.02-.65,.02Zm-9.83-17.08l.33,6.07c.14,2.54,1.26,4.88,3.16,6.57,1.9,1.7,4.34,2.56,6.88,2.42,5.25-.29,9.28-4.79,8.99-10.04l-.37-6.65c-2.62-.85-13.1-3.78-18.99,1.63Z"/></g><path class="ab" d="M102.6,63.9c-2.84,0-5.55-1.03-7.68-2.94-2.29-2.06-3.65-4.88-3.82-7.96l-.38-6.98,.32-.32c7.56-7.57,21.46-2.41,22.05-2.18l.61,.23,.44,7.98c.17,3.08-.87,6.03-2.92,8.33-2.06,2.29-4.88,3.65-7.96,3.82-.22,.01-.43,.02-.65,.02Zm-9.83-17.08l.33,6.07c.14,2.54,1.26,4.88,3.16,6.57,1.9,1.7,4.34,2.56,6.88,2.42,5.25-.29,9.28-4.79,8.99-10.04l-.37-6.65c-2.62-.85-13.1-3.78-18.99,1.63Z"/><path class="ab" d="M91.75,48.33c-.64,0-1.27-.32-1.63-.91-.55-.9-.27-2.08,.63-2.63,10.4-6.37,22.13-2.3,22.63-2.12,1,.36,1.51,1.45,1.16,2.45-.35,.99-1.45,1.51-2.44,1.16h0c-.11-.04-10.53-3.62-19.34,1.78-.31,.19-.66,.28-1,.28Z"/></g><path class="l" d="M96.19,22.64s1.83-2.95,3.49,.65c1.51,3.27,3.06,6.41,7.07,8.23,2.05,.93,5.92,1.44,3.56-3.78-1.93-4.27-2.17-8.91-2.17-8.91,0,0,9.1,10.95,26.68,7.21,17.58-3.74,18.33-19.12,18.26-21.46s-5.57,2.28-12.04,.93c-6.47-1.35-26.99-10.39-39.41-1.98-10.5,7.1-12.54,18-12.54,18l7.1,1.11Z"/><g><path class="af" d="M135.3,78.53c-.48,2.72-1.78,5.95-4.93,8.46-1.67,1.33-3.85,2.46-6.71,3.21-6.61,1.75-10.93-.22-13.65-2.82-2.27-2.17-3.43-4.78-3.89-6.02-.17-.46-.24-.73-.24-.73,0,0,16.29-1.52,29.45-7.69,0,0,.52,2.46-.03,5.59Z"/><path class="e" d="M135.3,78.53h0c-2.78,2.06-9.21,3.44-15.79,3.8-5,.27-9.97-.04-13.38-.97-.17-.46-.24-.73-.24-.73,0,0,16.29-1.52,29.45-7.69,0,0,.52,2.46-.03,5.59Z"/><path class="v" d="M130.37,86.98h0c-1.67,1.34-3.85,2.47-6.71,3.22-6.61,1.75-10.93-.22-13.65-2.82,2.25-1.62,5.71-2.65,9.54-2.86,4.42-.24,8.46,.65,10.81,2.47Z"/><g><path class="r" d="M126.96,86.26c-2.6-.78-5.82-.97-8.36-.72"/><path class="f" d="M117.24,85.68c0-.17,.14-.31,.31-.31s.31,.14,.31,.31-.14,.31-.31,.31-.31-.14-.31-.31Z"/><path class="f" d="M127.77,86.56c0-.17,.14-.31,.31-.31s.31,.14,.31,.31-.14,.31-.31,.31-.31-.14-.31-.31Z"/></g></g></g><path class="ab" d="M166.62,186.96s5.6-7.13,16.71-1.47c0,0-6.46-8.23-16.71-2.75v4.22Z"/><g><rect class="s" x="15.28" y="120.46" width="152.65" height="100.89"/><g class="ag"><path class="aa" d="M126.21,155.44c-.33,.53-.83,.83-1.41,1.07-3.37,1.38-6.74,2.78-10.11,4.18-.14,.06-.29,.12-.44,.18-1.05,.42-1.88,.17-2.23-.68-.36-.86,.05-1.64,1.08-2.07,2.91-1.21,5.83-2.42,8.75-3.63,.62-.26,1.23-.51,1.85-.76,1.26-.52,1.69-.4,2.51,.65v1.06Z"/><path class="aa" d="M86.81,149.65c4.94,11.93,9.88,23.86,14.8,35.75-1.72,0-3.38,.03-5.04,0-3.16-.07-6.31-.18-9.47-.29-4.39-.14-8.78-.3-13.18-.43-.36-.01-.54-.13-.69-.47-1.86-4.52-3.72-9.03-5.6-13.53-.17-.41-.11-.66,.2-.98,6.16-6.55,12.3-13.1,18.45-19.66,.13-.14,.22-.32,.33-.49l.2,.11Z"/><path class="aa" d="M88.42,147.82c.08-1.21,.87-2.23,1.97-2.49,1.23-.28,2.42,.25,2.92,1.42,1.09,2.54,2.13,5.1,3.19,7.65,3.86,9.33,7.72,18.66,11.58,27.99,.13,.32,.27,.66,.32,1,.19,1.3-.58,2.47-1.79,2.81-1.27,.35-2.53-.23-3.04-1.47-2.29-5.5-4.57-11.01-6.85-16.52-2.65-6.39-5.3-12.79-7.94-19.18-.16-.39-.25-.81-.37-1.22Z"/><path class="aa" d="M65.51,170.92l6.01,14.51c-.19,.09-.36,.18-.54,.25-2.06,.86-4.12,1.74-6.2,2.55-.42,.17-.97,.19-1.41,.09-1.32-.31-2.61-.72-3.91-1.09-.45-.13-.73-.38-.91-.83-.96-2.36-1.96-4.71-2.91-7.07-.11-.28-.1-.72,.04-.99,.66-1.29,1.37-2.56,2.09-3.82,.14-.24,.36-.51,.61-.61,2.34-1,4.7-1.97,7.13-2.99Z"/><path class="aa" d="M66.13,189.43l6.01-2.49c.37,.89,.72,1.74,1.07,2.58,1.43,3.44,2.85,6.88,4.28,10.32,.27,.65,.23,.75-.41,1.02-1.57,.66-3.15,1.3-4.73,1.96-.43,.18-.69,.11-.88-.35-1.76-4.28-3.53-8.55-5.3-12.82-.02-.05-.03-.11-.05-.22Z"/><path class="aa" d="M104.61,169.49l-4.37-10.56c1.7-1.36,3.67-1.19,4.89,.55,1.42,2.03,2.41,4.26,2.57,6.78,.07,1.18-.49,2.03-1.55,2.54-.49,.24-.99,.44-1.54,.68Z"/><path class="aa" d="M113.92,142.74c-.11,.31-.19,.63-.35,.91-1.7,3-3.41,6-5.12,8.99-.5,.88-1.34,1.14-2.13,.69-.75-.43-.95-1.29-.46-2.15,1.71-3.02,3.43-6.03,5.14-9.05,.28-.49,.62-.85,1.21-.91,.95-.1,1.64,.52,1.7,1.5Z"/><path class="aa" d="M126.1,172.28c0,1.1-.86,1.68-2.06,1.36-2.29-.62-4.58-1.25-6.86-1.88-1.06-.29-2.12-.58-3.17-.88-.94-.27-1.4-1.02-1.17-1.86,.23-.84,1.02-1.25,1.96-1,3.38,.92,6.77,1.85,10.15,2.79,.82,.23,1.17,.69,1.17,1.47Z"/></g><rect class="j" x="15.28" y="221.25" width="152.65" height="4.36"/><g><rect class="ae" x="42.67" y="220.07" width="16.24" height="1.51"/><rect class="ae" x="124.29" y="220.07" width="16.24" height="1.51"/></g><rect class="x" x="15.28" y="120.46" width="152.65" height="2.06"/></g><g><path class="k" d="M37.62,154.75s-9.58,3.75-12.02,4.5c-2.45,.75-8.9,3.85-9.64,8l-.02,11.9s-6.72-4.91-9.27-8.74c-2.55-3.83,0-3.51-4.15-7.98-4.15-4.47,.64-6.7-1.6-10.21-2.23-3.51,0-6.64,2.23-10.66,2.23-4.02,9.89-6.89,12.76-7.85,2.87-.96,12.44-2.55,13.4-2.55s1.61,.8,1.81,1.82c.27,1.36-.31,3.09-2.28,3.8-.26,.1-.54,.17-.86,.23,.51-.04,4.64-.43,6.33-.63,1.65-.2,3.13,.41,3.29,2.05h0c.01,.16,.01,.33,0,.5-.1,1.86-1.38,3.37-3.94,4.01-.03,0-.06,.02-.1,.03,.08-.02,.18-.03,.28-.05,.06,0,.08-.01,.08-.01h.01c.7-.12,1.68-.26,2.48-.23h.02c.51,.02,.94,.1,1.16,.3,.84,.75,0,11.77,0,11.77Z"/><path class="q" d="M28.84,136.79l-.91,.24s-3.72,.42-5.95,1.06c-2.23,.64-8.51,3.94-10,4.89-1.48,.96-4.66,3.46-5.52,3.96,.12-.17,2.1-2.92,4.78-5.37,2.76-2.53,8.72-4.98,10.74-5.62,2.02-.64,8.47-.64,9.14-2.97,.27,1.36-.31,3.09-2.28,3.8Z"/><path class="q" d="M37.62,138.94c-.1,1.86-1.38,3.37-3.94,4.01-1.33,.19-7.33,1.08-10.57,1.81-3.66,.82-5.2,1.49-7.43,3.63-2.16,2.08-5,3.43-5.18,3.52,1.53-1.44,5.34-6.9,7.09-7.49,1.76-.59,5.1-1.79,9.18-2.39,4.07-.61,4.31-.71,7.34-1.28,3.03-.56,3.5-2.31,3.5-2.31h0c.01,.17,.01,.33,0,.5Z"/><path class="q" d="M37.93,149.28s-9.09,1.59-11.88,1.91c-2.79,.32-5.42,1.8-7.66,3.97-2.23,2.17-3.99,3.45-3.99,3.45,0,0,4.44-5.6,5.45-6.71,1.01-1.11,2.84-1.9,7.07-2.62,4.23-.72,11.07-2.12,11.07-2.12l-.06,2.12Z"/></g><path class="ab" d="M188.41,199.94c-.04,7.72-2.32,22.36-2.32,22.36l-3.52-14.31c3.31-1.78,2.74-5.98,5.84-8.05Z"/><g><path class="k" d="M168.74,214.35s-6.92,7.61-12.29,9.42c-1.89,.64-3.58,.57-4.72-.8l-.16-.2c-.1-.14-.2-.29-.29-.46-.64-1.16-1.24-2.35-1.8-3.54l-.02-.04h0c-2.76-5.97-4.25-12.09-2.83-15.7,1.7-4.35,2.55-7.14,2.76-10.97s1.07-6.17,3.19-8.72c2.12-2.55,1.93-6.92,5.32-7.58,1.45-.28,2.39,1.95,2.93,3.91,.4,1.49,.58,2.82,.58,2.82l5.42,14.68,1.9,17.18Z"/><path class="q" d="M160.83,179.66l-2.51,25.79-1.87,18.31c-1.89,.64-3.58,.57-4.72-.8l-.16-.2-2.09-4-.02-.04h0c-.6-2.3-.78-5.6,1.81-8.21-.86-1.22-1.57-2.98-.74-4.95,1.57-3.73,4.93-3.41,6.2-5.62,1.28-2.22-.11-5.97-.53-8.95-.43-2.97,1.51-5.56,2.87-9.14,1.75-4.6-1.17-6.09-1.17-6.09,1.45-.28,2.39,1.95,2.93,3.91Z"/></g><g><polygon class="n" points="169.9 193.04 168.96 202.78 167.7 215.75 157.41 214.75 159.62 192.04 162.21 192.3 169.9 193.04"/><path class="i" d="M159.47,193.32l2.18-22.39c.68-7.02,3.54-12.48,6.38-12.2,2.84,.28,4.59,6.19,3.91,13.2l-2.18,22.39c-3.57,1.15-7,.81-10.29-1Z"/><path class="n" d="M172.09,170.65l-2.18,22.39c-2.65,.86-5.24,.89-7.74,.1-.86-.27-1.7-.64-2.54-1.1l2.18-22.39c.68-7.01,3.54-12.48,6.38-12.2,2.84,.28,4.59,6.19,3.91,13.2Z"/><path class="g" d="M168.96,202.78l-1.26,12.97-10.29-1,2.21-22.7,2.18-22.39c.68-7.01,3.54-12.48,6.38-12.2,0,0-3.18,1.13-4.52,17.15-.69,8.18-1.23,13.76-1.45,17.7-.01,.29-.03,.57-.04,.84-.15,3.27-.03,5.32,.47,6.8,1.12,3.28,4.64,4.04,6.32,2.84Z"/></g><g><path class="k" d="M186.25,217.42c.96,2.44,.32,3.67-.48,5.58s-4.95,6.54-7.82,10.05c-2.87,3.51-10.21,5.9-15.47,3.83-5.26-2.07-8.61-4.63-10.37-7.18-.45-.66-.74-1.4-.89-2.15h0c-.43-2.14,.19-4.36,.89-5.25,0,0-2.2-2.74-1.54-7.28,.21-1.41,.78-2.55,2.34-2.77,0,0-3.19-4.24-.16-6.8,3.03-2.55,5.58,.48,8.61,1.44s7.23-.31,7.23-.31l1.91-19.62s7.93,.64,10.64,1.75c2.71,1.11,5.42,4.45,4.47,7.33-.96,2.87-1.52,4.15,.2,7.18,1.72,3.03,1.72,6.89,.76,9.03-.96,2.14-1.28,2.72-.32,5.17Z"/><path class="q" d="M168.59,206.58s1.48-.91,2.58-2.19c1.09-1.28,2.26-4.47,2.58-6.06,.32-1.6,1.49-2.24,2.13-2.29,0,0-2.07-.58-3.64,2.93-1.57,3.51-3.28,3.81-3.28,3.81l-.37,3.8"/><path class="q" d="M180.34,207.92c-.09,.35-1.53,6.02-2.87,8.6-1.38,2.66-7.02,3.99-12.02,3.94-4.69-.05-6.09-.78-9.15-3.14-1.02-.78-3.4-4.31-5.1-4.13,.37-.49,.92-.83,1.69-.94,3.08,2.97,8.93,6.29,12.07,5.79,3.14-.5,10.16-1.84,11.44-3.76,1.23-1.84,3.75-6.06,3.93-6.36Z"/><path class="q" d="M179.38,222.81c-.06,.29-1.2,4.93-4.03,6.58-2.93,1.7-5.16,2.82-10.59,1.75s-8.88-3.72-10.74-4.79c-1.86-1.07-2.74,.1-2.81,1.19-.43-2.13,.19-4.35,.89-5.25,0,0,.75,1.98,4.2,3.52,3.46,1.54,7.66,4.2,11.54,4.2s6.54-1.07,8.03-2.07c1.44-.98,3.38-4.9,3.5-5.14Z"/></g><path class="ac" d="M171.7,197s-.06,0-.09,0c-.53-.05-.91-.52-.86-1.05l2.48-25.44c.04-.4-.26-.76-.66-.8l-1.49-.15c-.53-.05-.91-.52-.86-1.05,.05-.53,.52-.91,1.05-.86l1.49,.15c1.45,.14,2.52,1.44,2.38,2.89l-2.48,25.44c-.05,.49-.46,.86-.95,.86Z"/></g></g></g></svg>