<?xml version="1.0" encoding="UTF-8"?><svg xmlns="http://www.w3.org/2000/svg" viewBox="0 0 234.74 225.22"><defs><style>.b{fill:#7c4639;}.c{fill:#848484;}.d{fill:#db826a;}.e{fill:#161515;}.f{isolation:isolate;}.g{fill:#232323;}.h{fill:#e0e0e0;}.i{fill:#444;}.j{fill:#e01e1e;}.k{fill:#eaeaea;}.l{fill:#2b2b2b;}.m{fill:#aaa;}.n{fill:#353535;}.o{fill:#474747;}.p{fill:#cecece;}.q{fill:#ffb18f;}.r{mix-blend-mode:multiply;}</style></defs><g class="f"><g id="a"><g><path class="e" d="M33.32,128.94c2.98-21.38,55.99-49.52,92.19-45.46,36.2,4.06,70.03,27.86,78.69,45.46,8.66,17.59-4.06,80.93-4.06,80.93H47.49s-19.33-43.89-14.17-80.93Z"/><path class="e" d="M63.46,82.66s-4.33-7.85,5.68-20.03c10.01-12.18,58.19-23.01,83.09-4.6,24.9,18.4,28.02,18.81,26.52,24.63-1.5,5.82-38.97,30.85-41.68,41.81-2.71,10.96-15.43,29.62-16.28,29.64-.84,.02-11.33-21.65-19.72-33.02-8.39-11.37-37.62-38.43-37.62-38.43Z"/><path class="q" d="M81.59,53.43c-.54,7.31,6.77,32.48,14.62,43.3,7.85,10.82,19.48,17.59,26.35,18.13,6.87,.54,17.67-7.5,24.98-21.84,7.31-14.34,13.08-40.95,13.08-40.95l-79.03,1.35Z"/><path class="d" d="M160.04,54.62c-.68-.9-1.45-1.74-2.34-2.49l-76.11,1.3c-.42,5.61,3.81,21.77,9.34,33.87,8.66-2.89,17.46-5.96,22.59-8.27,4.87-2.19,1.95-6.93,6.39-7.74,4.44-.81,3.62,7.31,7.41,8.39,2.7,.77,14.65,5.25,22.54,8.25,4.87-11.65,8.75-27.27,10.17-33.32Z"/><path class="j" d="M64.31,79.82s13.49-15.43,52.6-15.16c39.11,.27,58.27,15.93,58.27,15.93,0,0-34.45-13.09-60.85-12.14-22.48,.81-50.02,11.37-50.02,11.37Z"/><path class="n" d="M58.86,82.39c-.94-.26,16.78-59.27,40.16-75.6,13.4-9.35,38.32-9.11,50.5,1.17,15.96,13.47,33.56,73.89,32.75,75.78-.81,1.89-20.96-15.72-62.36-16.78-42.22-1.08-58.09,16.24-61.06,15.43Z"/><path class="n" d="M58.86,82.39s2-4.04,4.23-3.11c15.63,6.5,49.78,38.15,55.01,55.31,6.77,22.19,3.82,35.22,3.82,35.22,0,0-10.55-28.69-26.25-48.72-12.52-15.98-36.81-38.7-36.81-38.7Z"/><path class="n" d="M182.27,83.74s-2.85-5.55-4.6-4.6c-14.58,7.9-49.11,38.47-54.33,55.59-6.77,22.19-1.43,35.08-1.43,35.08,0,0,7.9-27.66,23.6-47.68,12.52-15.98,36.76-38.38,36.76-38.38Z"/><path class="d" d="M114.35,85.14s3.47-2.14,5.26-2.57c1.26-.3,6.51,3.1,5.83,3.51s-11.64,0-11.1-.94Z"/><path class="b" d="M110.2,97.77c-.29-.73,4.95-2.29,10.79-2.47,5.83-.18,9.59,.44,8.64,.96-.59,.33-5.17,.05-8.54,.31-3.37,.26-10.04,3.31-10.89,1.2Z"/><path class="d" d="M109.47,94.91c1.22,.71-2.29,2.71-.81,4.47,1.82,2.16,3.79,.95,3.79,1.49s-2.76,1.8-5.14-1.49c-1.42-1.96,.54-5.41,2.16-4.47Z"/><path class="i" d="M123.27,5.59c-14.63,0-27.31,47.72-30.35,63.45,7.48-1.47,16.41-2.35,27-2.08,11.14,.29,20.73,1.77,28.83,3.76-2.54-16.74-5.84-65.12-25.47-65.12Z"/><path class="j" d="M120.79,166.89c-1.43-12.5-6.35-31.27-21.87-48.24-9.42-10.29-17.72-16.85-24.49-21.03,7.23,7.34,15.48,16.12,21.25,23.47,12.68,16.18,22,38.01,25.12,45.8Z"/><path class="n" d="M43.27,112.84C24.93,127.3,3.37,182.53,.13,200.39c-3.25,17.86,57.71,24.27,68.81,18.31,11.1-5.96-6.29-80.56-12.79-89.22-6.49-8.66-9.1-19.63-12.88-16.64Z"/><path class="o" d="M145.51,122.13c5.29-6.75,12.67-14.64,19.43-21.51-5.83,4.14-12.56,9.93-19.98,18.04-15.01,16.41-20.11,34.49-21.72,46.97,2.84-8.48,10.28-28.21,22.27-43.5Z"/><path class="g" d="M48.57,144.91s-6.77,19.22-11.09,23.28c-4.33,4.06-12.18,1.08-17.05,4.6-4.87,3.52-5.68,14.07-5.68,14.07,0,0,10.86-8.12,21.54-4.06,10.67,4.06,18.52-3.79,18.52-3.79l-6.23-34.1Z"/><path class="l" d="M49.65,187.62s-15.46-4-21.79,1.68c-4.53,4.06-4.4,8.94-4.4,8.94,0,0,3.73-4.37,8.43-6,7.02-2.42,22.74,7.27,16.4-.78l1.35-3.85Z"/><path class="n" d="M191.47,112.84c18.33,14.46,39.89,69.69,43.14,87.55,3.25,17.86-57.71,24.27-68.81,18.31-11.1-5.96,6.29-80.56,12.78-89.22,6.5-8.66,9.1-19.63,12.88-16.64Z"/><path class="g" d="M186.17,144.91s6.76,19.22,11.1,23.28c4.33,4.06,12.18,1.08,17.05,4.6,4.87,3.52,5.68,14.07,5.68,14.07,0,0-10.86-8.12-21.54-4.06-10.67,4.06-18.52-3.79-18.52-3.79l6.23-34.1Z"/><path class="l" d="M185.09,187.62s15.46-4,21.79,1.68c4.53,4.06,4.4,8.94,4.4,8.94,0,0-3.73-4.37-8.43-6-7.02-2.42-22.75,7.27-16.4-.78l-1.35-3.85Z"/><path class="l" d="M212.46,166.89s-2.55-6.96-7.42-8.86c-4.87-1.89-11.84-6.9-11.84-6.9,0,0,2.58,12.6,5.26,13.53,6.38,2.23,14,2.23,14,2.23Z"/><rect class="h" x="46.95" y="120.07" width="152.65" height="100.89"/><g class="r"><path class="m" d="M156.11,177.67c-.51-.9-1.62-1.15-2.74-.58-1.03,.53-2.07,1.06-3.07,1.64-.59,.34-1,.29-1.43-.26-1.19-1.51-2.47-2.95-3.6-4.5-.96-1.32-1.98-2.24-3.76-1.92-.7,.13-1.45-.05-2.16,.04-1.09,.13-1.5-.23-1.44-1.37,.04-.91,.25-1.35,1.23-1.24,.59,.07,1.2-.03,1.8,.02,.9,.07,1.2-.31,1.17-1.19-.06-1.88,.04-3.77-.06-5.65-.05-.99,.37-1.57,1.12-2.07,1.32-.9,2.63-1.83,3.93-2.75,1.03-.73,1.26-2.01,.55-2.94-.66-.86-1.91-.94-2.9-.19-1.89,1.42-3.75,2.87-5.69,4.21-.63,.44-.8,.9-.78,1.59,.04,1.68,.05,3.36,.07,5.41-1.83-.07-3.5-.18-5.17-.18-8.26,.01-16.52,.04-24.78,.1-.98,0-1.36-.25-1.3-1.27,.08-1.36,.04-2.73,0-4.09-.02-.4-.15-.95-.43-1.16-2.32-1.71-4.66-3.39-7.04-5-.88-.6-2.07-.19-2.61,.71-.51,.84-.31,1.71,.61,2.39,1.64,1.22,3.32,2.37,4.91,3.65,.42,.34,.74,1.03,.77,1.57,.1,2,.07,4.01,.05,6.01,0,.72,.25,1.02,.98,.99,1.03-.04,2.06,0,3.13,0,.04,.52,.03,.88,.09,1.23,.17,1.06-.25,1.43-1.32,1.34-1.03-.09-2.09,.05-3.12-.02-.95-.07-1.58,.31-2.14,1.03-1.39,1.81-2.84,3.57-4.21,5.39-.47,.62-.9,.66-1.53,.33-1.2-.64-2.41-1.27-3.63-1.87-1.1-.54-2.04-.27-2.58,.68-.53,.95-.21,2.04,.86,2.62,1.97,1.07,4,2.03,5.94,3.15,1.03,.6,1.64,.36,2.31-.51,1.38-1.82,2.92-3.52,4.21-5.39,.88-1.27,1.86-1.78,3.39-1.66,2.05,.16,1.74-.24,1.87,1.92,.07,1.15-.26,1.82-1.35,2.33-1.59,.74-3.07,1.72-4.64,2.53-.73,.38-1.04,.83-1.02,1.68,.07,2.12,.03,4.25,.04,6.37,.03,3.43,.01,3.4-2.76,5.45-2.09,1.55-4.14,3.15-6.18,4.76-.94,.74-1.15,2.04-.53,2.91,.61,.85,1.69,.95,2.74,.15,3.25-2.47,6.47-4.98,9.72-7.45,.63-.48,.86-1.05,.84-1.85-.06-2.73-.06-5.45-.04-8.18,0-.4,.09-.98,.35-1.17,.79-.56,1.7-.97,2.74-1.54,.03,.86,.05,1.45,.08,2.04,.11,1.91-.08,3.9,.39,5.71,1.57,6.1,5.64,9.8,11.73,11.26,1.95,.47,2.16,.24,2.16-1.7-.03-9.26-.07-18.52-.1-27.79,0-1.7,.02-1.73,1.89-1.4,.02,.49,.06,1,.06,1.51,.04,9.22,.07,18.44,.11,27.67,0,1.89,.19,2.04,2.1,1.72,7.26-1.24,12.84-8.55,12.13-15.91-.09-.98-.23-1.96-.34-2.94l.65-.11c.53,.27,1.05,.58,1.6,.8,.99,.4,1.32,1.06,1.27,2.14-.09,2.12,.09,4.25-.04,6.37-.1,1.73,.28,2.95,1.84,4.02,3.07,2.1,5.94,4.49,8.91,6.73,.83,.63,1.99,.47,2.59-.31,.66-.85,.62-1.7-.15-2.48-.22-.23-.44-.47-.7-.66-2.61-1.99-5.25-3.94-7.82-5.98-.45-.36-.82-1.09-.84-1.66-.09-2.84-.09-5.69-.05-8.54,.01-.88-.29-1.39-1.07-1.79-1.71-.87-3.39-1.81-5.06-2.75-.32-.18-.76-.5-.79-.8-.1-1.01-.05-2.03-.06-3.36,.89,.09,1.58,.28,2.24,.19,1.24-.16,2.02,.37,2.73,1.3,1.51,1.97,3.04,3.92,4.64,5.82,.31,.37,1.09,.79,1.4,.65,2.14-1,4.23-2.1,6.28-3.27,1.1-.63,1.36-1.72,.82-2.67Z"/><path class="m" d="M97.7,142.42c.77,.33,1.55,.65,2.34,.93,6.31,2.21,11.71,5.68,15.7,11.15,1.06,1.46,1.07,1.45-.12,2.81-1.42,1.64-1.98,3.53-1.69,5.68,.09,.68,.38,.95,1.09,.95,5.09-.04,10.18-.05,15.27-.05,.77,0,1.07-.32,1.16-1.04,.28-2.31-.43-4.29-2.04-5.91-.72-.72-.7-1.26-.15-2.05,2.61-3.74,5.87-6.8,9.89-8.93,2.39-1.27,4.97-2.2,7.47-3.24,1.16-.48,1.77-1.49,1.4-2.55-.34-.98-1.3-1.51-2.3-1.19-8.29,2.64-15.32,7.03-20.08,14.55-.36,.56-.69,.72-1.35,.65-1.03-.11-2.08-.13-3.1,0-.74,.09-1.13-.07-1.57-.69-1.3-1.82-2.7-3.56-4.06-5.33-2.9-2.62-6.07-4.8-9.56-6.44-2.24-1.05-4.61-1.82-6.96-2.63-1.04-.36-1.99,.2-2.3,1.18-.31,.98,0,1.74,.97,2.16Z"/></g><rect class="c" x="46.95" y="220.87" width="152.65" height="4.36"/><g><rect class="p" x="74.34" y="219.69" width="16.24" height="1.51"/><rect class="p" x="155.96" y="219.69" width="16.24" height="1.51"/></g><rect class="k" x="46.95" y="120.07" width="152.65" height="2.06"/><path class="l" d="M22.28,166.89s2.55-6.96,7.42-8.86c4.87-1.89,11.84-6.9,11.84-6.9,0,0-2.59,12.6-5.26,13.53-6.38,2.23-14,2.23-14,2.23Z"/></g></g></g></svg>