<?xml version="1.0" encoding="UTF-8"?><svg xmlns="http://www.w3.org/2000/svg" viewBox="0 0 224.73 230.18"><defs><style>.b{fill:#fff;}.c{fill:#d1d1d1;}.d{fill:#848484;}.e{fill:#a81111;}.f{isolation:isolate;}.g{fill:#e0e0e0;}.h{fill:#0f5482;}.i{fill:#08496d;}.j{fill:#e01e1e;}.k{fill:#eaeaea;}.l{fill:#aaa;}.m{fill:#bcbcbc;}.n{fill:#cecece;}.o{mix-blend-mode:multiply;}</style></defs><g class="f"><g id="a"><g><path class="m" d="M24.11,160.81c-.64,0-1.27-.03-1.9-.09-5.46-.55-10-3.52-13.14-8.59-8.82-14.24,.16-25.36,7.36-34.29,8.15-10.1,12.82-16.79,6.28-26.66l7.27-4.81c10.39,15.69,.88,27.47-6.77,36.95-7.63,9.45-12.03,15.67-6.74,24.23,1.73,2.79,3.83,4.23,6.6,4.51,10.19,1.03,25.84-12.94,31.01-18.42l6.34,5.98c-2.11,2.24-20.45,21.21-36.33,21.21Z"/><path class="j" d="M17.05,95.97c-2.64,0-5.08-.65-7.3-1.95C1.24,89.06,.1,76.7,0,75.3l8.69-.65c.19,2.36,1.59,9.6,5.46,11.85,2.08,1.2,5.01,.92,8.72-.83,3.57-1.69,5.52-3.63,5.8-5.76,.52-3.99-4.23-9.44-6.62-11.45l5.62-6.66c1.12,.94,10.9,9.51,9.64,19.24-.69,5.26-4.29,9.48-10.71,12.52-3.41,1.62-6.6,2.42-9.55,2.42Z"/><path class="m" d="M200.62,160.81c-15.88,0-34.21-18.96-36.33-21.21l6.34-5.98c5.17,5.47,20.8,19.45,31.01,18.42,2.77-.28,4.87-1.71,6.6-4.51,5.29-8.55,.89-14.78-6.74-24.23-7.64-9.47-17.16-21.26-6.77-36.95l7.27,4.81c-6.53,9.86-1.87,16.56,6.28,26.66,7.21,8.93,16.18,20.05,7.36,34.29-3.14,5.07-7.68,8.04-13.14,8.59-.63,.06-1.26,.09-1.9,.09Z"/><path class="j" d="M207.68,95.97c-2.94,0-6.13-.81-9.55-2.42-6.42-3.04-10.03-7.25-10.71-12.52-1.27-9.72,8.52-18.29,9.64-19.24l5.62,6.66c-1.89,1.61-7.18,7.19-6.62,11.46,.28,2.13,2.23,4.06,5.8,5.75,3.71,1.76,6.64,2.04,8.72,.83,3.87-2.24,5.27-9.49,5.46-11.85l8.69,.65c-.1,1.39-1.24,13.76-9.75,18.72-2.22,1.3-4.66,1.95-7.3,1.95Z"/><path class="m" d="M61.57,123.57s-10.62-.77-10.38,6.33c.24,7.1,2.17,44.55,2.17,46.23s8.21,5.04,11.23,1.03c3.02-4-3.02-53.59-3.02-53.59Z"/><path class="m" d="M169.63,123.92s11.37-.77,11.11,6.33c-.26,7.1-2.32,44.55-2.32,46.23s-8.78,5.04-12.01,1.03c-3.23-4,3.23-53.59,3.23-53.59Z"/><path class="e" d="M88.32,115.63c-.66-.16-26.11,5.3-27.43,6.48-1.32,1.19,6.58,80.48,6.58,80.48h95.8l7.98-79.9-22.69-7.07h-60.24Z"/><g><polygon class="h" points="148.45 132.02 144.56 131.86 138.02 142.73 142.4 151.64 148.94 151.64 154.99 140.65 148.45 132.02"/><path class="h" d="M154.6,226.7c-1.28,.07-2.58,.12-3.87,.15-.9,.02-1.81,.03-2.72,.03-6.43,0-12.74-.5-18.88-1.47l13.27-73.76h6.54l5.67,75.06Z"/><g><path class="i" d="M144.56,131.86s2.71,.58,3.89,2.39c1.18,1.81,4.16,6.81,1.08,11.06-3.08,4.25-11.51-2.58-11.51-2.58l4.38,8.91h6.54l6.05-10.99-6.54-8.63-3.89-.16Z"/><path class="i" d="M154.6,226.7c-1.28,.07-2.58,.12-3.87,.15-.54-15.06-2.25-61.75-2.72-67.23-.56-6.53-5.62-7.98-5.62-7.98h6.54l5.67,75.06Z"/></g></g><g><rect class="g" x="37.63" y="125.03" width="152.65" height="100.89"/><g class="o"><path class="l" d="M148.56,160.01c-.33,.53-.83,.83-1.41,1.07-3.37,1.38-6.74,2.78-10.11,4.18-.14,.06-.29,.12-.44,.18-1.05,.42-1.88,.17-2.23-.68-.36-.86,.05-1.64,1.08-2.07,2.91-1.21,5.83-2.42,8.75-3.63,.62-.26,1.23-.51,1.85-.76,1.26-.52,1.69-.4,2.51,.65v1.06Z"/><path class="l" d="M109.16,154.23c4.94,11.93,9.88,23.86,14.8,35.75-1.72,0-3.38,.03-5.04,0-3.16-.07-6.31-.18-9.47-.29-4.39-.14-8.78-.3-13.18-.43-.36-.01-.54-.13-.69-.47-1.86-4.52-3.72-9.03-5.6-13.53-.17-.41-.11-.66,.2-.98,6.16-6.55,12.3-13.1,18.45-19.66,.13-.14,.22-.32,.33-.49l.2,.11Z"/><path class="l" d="M110.78,152.39c.08-1.21,.87-2.23,1.97-2.49,1.23-.28,2.42,.25,2.92,1.42,1.09,2.54,2.13,5.1,3.19,7.65,3.86,9.33,7.72,18.66,11.58,27.99,.13,.32,.27,.66,.32,1,.19,1.3-.58,2.47-1.79,2.81-1.27,.35-2.53-.23-3.04-1.47-2.29-5.5-4.57-11.01-6.85-16.52-2.65-6.39-5.3-12.79-7.94-19.18-.16-.39-.25-.81-.37-1.22Z"/><path class="l" d="M87.87,175.49l6.01,14.51c-.19,.09-.36,.18-.54,.25-2.06,.86-4.12,1.74-6.2,2.55-.42,.17-.97,.19-1.41,.09-1.32-.31-2.61-.72-3.91-1.09-.45-.13-.73-.38-.91-.83-.96-2.36-1.96-4.71-2.91-7.07-.11-.28-.1-.72,.04-.99,.66-1.29,1.37-2.56,2.09-3.82,.14-.24,.36-.51,.61-.61,2.34-1,4.7-1.97,7.13-2.99Z"/><path class="l" d="M88.48,194.01l6.01-2.49c.37,.89,.72,1.74,1.07,2.58,1.43,3.44,2.85,6.88,4.28,10.32,.27,.65,.23,.75-.41,1.02-1.57,.66-3.15,1.3-4.73,1.96-.43,.18-.69,.11-.88-.35-1.76-4.28-3.53-8.55-5.3-12.82-.02-.05-.03-.11-.05-.22Z"/><path class="l" d="M126.96,174.07l-4.37-10.56c1.7-1.36,3.67-1.19,4.89,.55,1.42,2.03,2.41,4.26,2.57,6.78,.07,1.18-.49,2.03-1.55,2.54-.49,.24-.99,.44-1.54,.68Z"/><path class="l" d="M136.28,147.31c-.11,.31-.19,.63-.35,.91-1.7,3-3.41,6-5.12,8.99-.5,.88-1.34,1.14-2.13,.69-.75-.43-.95-1.29-.46-2.15,1.71-3.02,3.43-6.03,5.14-9.05,.28-.49,.62-.85,1.21-.91,.95-.1,1.64,.52,1.7,1.5Z"/><path class="l" d="M148.45,176.85c0,1.1-.86,1.68-2.06,1.36-2.29-.62-4.58-1.25-6.86-1.88-1.06-.29-2.12-.58-3.17-.88-.94-.27-1.4-1.02-1.17-1.86,.23-.84,1.02-1.25,1.96-1,3.38,.92,6.77,1.85,10.15,2.79,.82,.23,1.17,.69,1.17,1.47Z"/></g><rect class="d" x="37.63" y="225.83" width="152.65" height="4.36"/><g><rect class="n" x="65.02" y="224.64" width="16.24" height="1.51"/><rect class="n" x="146.65" y="224.64" width="16.24" height="1.51"/></g><rect class="k" x="37.63" y="125.03" width="152.65" height="2.06"/></g><rect class="c" x="99.42" y="115.63" width="31.38" height="5.81" rx="1.67" ry="1.67"/><rect class="m" x="99.42" y="112.72" width="31.38" height="5.81" rx="1.67" ry="1.67"/><rect class="c" x="99.42" y="109.81" width="31.38" height="5.81" rx="1.67" ry="1.67"/><g><g><path class="m" d="M67.38,88.84c0,1.04-1.1,1.88-2.45,1.88h-.92c-1.35,0-2.45-.84-2.45-1.88V56.59c0-1.04,1.1-1.88,2.45-1.88h.92c1.35,0,2.45,.84,2.45,1.88v32.25Z"/><path class="m" d="M168.69,88.84c0,1.04-1.1,1.88-2.45,1.88h-.92c-1.35,0-2.45-.84-2.45-1.88V56.59c0-1.04,1.1-1.88,2.45-1.88h.92c1.35,0,2.45,.84,2.45,1.88v32.25Z"/></g><g><g><circle class="m" cx="78.42" cy="3.07" r="3.07"/><polygon class="m" points="80.2 27.45 76.65 27.45 77.51 3.07 79.18 3.07 80.2 27.45"/><path class="m" d="M84.75,41.04c0,1.04-.94,1.88-2.11,1.88h-8.44c-1.17,0-2.11-.84-2.11-1.88V24.54c0-1.04,.94-1.88,2.11-1.88h8.44c1.17,0,2.11,.84,2.11,1.88v16.5Z"/></g><g><circle class="m" cx="151.83" cy="3.07" r="3.07"/><polygon class="m" points="153.6 27.45 150.06 27.45 150.92 3.07 152.58 3.07 153.6 27.45"/><path class="m" d="M158.16,41.04c0,1.04-.94,1.88-2.11,1.88h-8.44c-1.17,0-2.11-.84-2.11-1.88V24.54c0-1.04,.94-1.88,2.11-1.88h8.44c1.17,0,2.11,.84,2.11,1.88v16.5Z"/></g></g><path class="c" d="M165.41,54.39c-.88-17.62-23.06-31.72-50.29-31.72s-49.4,14.11-50.29,31.72c-.02,.17-.03,.35-.03,.53v50.5c0,3.49,3.66,6.31,8.16,6.31h84.31c4.51,0,8.16-2.83,8.16-6.31V54.92c0-.18-.01-.35-.03-.53Z"/><path class="m" d="M157.28,107.5H72.97c-4.51,0-8.16-1.81-8.16-4.04v4.24c0,2.23,3.66,4.04,8.16,4.04h84.31c4.51,0,8.16-1.81,8.16-4.04v-4.24c0,2.23-3.66,4.04-8.16,4.04Z"/><path class="m" d="M152.8,92.51v-27.16c0-.15,0-.3-.02-.44-.66-14.69-17.26-26.45-37.65-26.45s-36.99,11.76-37.65,26.45c-.01,.15-.02,.29-.02,.44v27.16h75.34Z"/><path class="j" d="M152.8,92.51v-25.47c0-.14,0-.28-.02-.41-.66-13.77-17.26-24.8-37.65-24.8s-36.99,11.03-37.65,24.8c-.01,.14-.02,.27-.02,.41v25.47h75.34Z"/><path class="e" d="M152.77,66.63c-.66-13.77-17.26-24.8-37.65-24.8s-36.99,11.03-37.65,24.8c-.01,.14-.02,.27-.02,.41v5.63c0-.14,0-.28,.02-.41,.66-13.77,17.26-24.8,37.65-24.8s36.99,11.03,37.65,24.8c.01,.14,.02,.27,.02,.41v-5.63c0-.14,0-.28-.02-.41Z"/><path class="b" d="M115.13,76.09c7.98,0,14.45,4.86,14.45,10.86h-28.91c0-6,6.47-10.86,14.45-10.86Z"/><g><path class="b" d="M96.87,66.13c.65,.34,.89,1.15,.55,1.8h0c-.34,.65-1.15,.89-1.8,.55l-7.68-4.09c-.65-.34-.89-1.15-.55-1.8h0c.34-.65,1.15-.89,1.8-.55l7.68,4.09Z"/><path class="b" d="M133.38,66.13c-.65,.34-.89,1.15-.55,1.8h0c.34,.65,1.15,.89,1.8,.55l7.68-4.09c.65-.34,.89-1.15,.55-1.8h0c-.34-.65-1.15-.89-1.8-.55l-7.68,4.09Z"/></g></g></g></g></g></svg>