<?xml version="1.0" encoding="UTF-8"?><svg id="a" xmlns="http://www.w3.org/2000/svg" viewBox="0 0 46.66 46.9"><path d="M41.37,11.01c0,1.59-.57,2.95-1.65,4.11-.56,.59-.65,1.08-.28,1.85,.26,.54,.76,.61,1.29,.61,3,0,5.43,2.12,5.87,5.12,.43,2.94-1.67,5.91-4.6,6.49-.42,.09-.87,.12-1.3,.13-.57,0-.98,.24-1.21,.76-.22,.52-.1,.97,.24,1.42,.47,.61,.99,1.22,1.3,1.91,1.17,2.58,.27,5.59-2.09,7.2-2.27,1.56-5.38,1.27-7.35-.68-.71-.71-1.68-.66-2.1,.14-.13,.26-.16,.6-.16,.9-.03,2.49-1.49,4.63-3.79,5.53-3.74,1.47-7.86-1.33-7.91-5.38,0-.62-.19-1.11-.79-1.37-.65-.29-1.1-.21-1.62,.29-1.7,1.62-3.69,2.15-5.92,1.42-2.21-.72-3.55-2.3-3.96-4.6-.34-1.92,.2-3.62,1.54-5.04,.44-.46,.67-.95,.42-1.57-.26-.63-.78-.78-1.41-.78-2.81-.01-5.17-1.84-5.75-4.58-.8-3.77,1.9-6.79,5.04-7.12,.24-.03,.48-.06,.72-.06,.61,0,1.01-.28,1.23-.85,.22-.57,.14-1.08-.3-1.52-1.25-1.26-1.79-2.77-1.73-4.54,.09-2.67,2.36-5.14,5-5.46,1.95-.24,3.62,.34,5.01,1.71,.53,.52,1.1,.49,1.71,.2,.52-.25,.64-.69,.64-1.23-.01-2.96,1.92-5.4,4.81-5.93,3.4-.62,6.34,1.76,6.81,4.9,.05,.33,.08,.68,.08,1.01,0,.56,.24,.96,.74,1.18,.52,.24,.98,.1,1.41-.25,.48-.39,.94-.83,1.48-1.12,3.88-2.1,8.58,.76,8.57,5.19Zm-25.08,24.63c.14,.01,.38,.02,.61,.05,2.78,.42,4.69,2.64,4.66,5.38,0,.81,.43,1.41,1.17,1.71,.74,.3,1.44,.17,2.04-.37,.53-.48,.61-1.12,.62-1.79,.03-3.14,2.82-5.54,5.89-5.09,1.19,.17,2.18,.71,3.04,1.54,1.05,1.01,2.71,.64,3.17-.7,.28-.82,.02-1.51-.56-2.13-1.35-1.44-1.8-3.13-1.29-5.06,.53-2.01,2.39-3.83,5.18-3.83,1.32,0,2.21-1.32,1.77-2.56-.3-.84-.98-1.24-2.08-1.26-2.67-.05-4.94-1.89-5.19-4.91-.14-1.66,.41-3.06,1.55-4.24,.75-.78,.78-1.91,.07-2.68-.76-.83-1.98-.83-2.82,0-1.92,1.87-4.72,2.1-6.79,.53-1.41-1.07-2.09-2.51-2.1-4.29,0-1.03-.69-1.83-1.65-1.96-1.15-.16-2.24,.74-2.2,2.14,.07,2.68-1.89,5.18-5.19,5.3-1.53,.06-2.83-.53-3.91-1.61-.43-.43-.94-.62-1.54-.55-.8,.09-1.36,.54-1.62,1.3-.26,.77-.07,1.46,.5,2.03,2.68,2.68,1.61,6.84-1.09,8.4-.9,.52-1.86,.67-2.87,.73-.91,.05-1.62,.77-1.71,1.61-.11,1.04,.39,1.85,1.34,2.12,.29,.08,.61,.08,.92,.09,1.64,.07,3,.72,4.02,2.02,1.59,2.03,1.47,5.04-.48,6.97-.82,.81-.78,1.98,.01,2.77,.73,.73,1.91,.71,2.7-.06,1.04-1.01,2.26-1.56,3.82-1.58Z"/><path d="M23.34,15.62c4.15,0,7.71,3.32,7.77,7.74,.05,4.39-3.47,7.92-7.79,7.93-4.28,0-7.8-3.54-7.79-7.85,0-4.32,3.49-7.8,7.82-7.81Zm-.06,11.7c2.15,0,3.89-1.7,3.91-3.85,.01-2.13-1.69-3.87-3.83-3.88-2.17-.01-3.89,1.68-3.9,3.84,0,2.14,1.7,3.88,3.82,3.89Z"/></svg>