<?xml version="1.0" encoding="UTF-8"?><svg id="a" xmlns="http://www.w3.org/2000/svg" viewBox="0 0 39.12 39.12"><defs><style>.b{fill:#fff;}.c{fill:#59c961;}</style></defs><circle class="c" cx="19.56" cy="19.56" r="19.56"/><path class="b" d="M21.85,16.66c1.14,0,2.24,0,3.34,0,1.09,0,2.02,.77,2.15,1.85,.05,.43-.03,.88-.09,1.32-.28,1.9-.59,3.79-.87,5.69-.17,1.16-1.06,1.96-2.22,1.96-3.39,0-6.79,0-10.18,0-1.01,0-1.84-.56-2.11-1.53-.12-.43-.1-.91-.11-1.37-.01-1.41,0-2.83,0-4.24,0-1.28,.91-2.23,2.19-2.26,.49,0,.99,0,1.48,0,.14,0,.2-.04,.25-.17,.85-1.93,1.71-3.85,2.56-5.78,.17-.38,.39-.53,.8-.52,1.52,.03,2.79,1.32,2.8,2.84,0,.64,0,1.28,0,1.92,0,.09,0,.17,0,.27Zm-5.03,9.36c.14,0,.23,0,.33,0,2.32,0,4.63,0,6.95,0,.5,0,.75-.22,.83-.72,.32-2.08,.64-4.17,.95-6.25,.09-.58-.2-.91-.79-.91-1.28,0-2.56,0-3.85,0-.59,0-.86-.27-.86-.85,0-.92,0-1.84,0-2.76,0-.64-.42-1.2-.98-1.33-.03,.06-.06,.11-.09,.17-.8,1.81-1.61,3.61-2.4,5.42-.06,.13-.09,.28-.09,.43,0,2.18,0,4.36,0,6.54v.28Zm-1.48-.03c0-.1,0-.2,0-.3,0-.82,0-1.64,0-2.46,0-1.13,0-2.27,0-3.4,0-.21-.06-.27-.27-.26-.37,.01-.74,0-1.11,0-.48,0-.75,.28-.75,.75,0,.21,0,.43,0,.64,0,1.43,0,2.86,0,4.29,0,.39,.18,.7,.53,.73,.52,.04,1.04,.01,1.6,.01Z"/></svg>