<?xml version="1.0" encoding="UTF-8"?><svg id="a" xmlns="http://www.w3.org/2000/svg" viewBox="0 0 53 45.46"><path d="M7.58,28.36c-1.92,0-3.62-.01-5.32,0-.92,0-1.67-.22-2.09-1.14-.44-.96,.02-1.65,.64-2.28C8.87,16.89,16.92,8.83,24.99,.79c1.06-1.06,1.96-1.05,3.03,.02,8.07,8.04,16.12,16.11,24.18,24.17,.63,.63,1.06,1.33,.61,2.28-.43,.92-1.19,1.12-2.1,1.11-1.7-.02-3.39,0-5.22,0-.03,.59-.06,1.06-.06,1.54,0,4.31,0,8.61,0,12.92,0,2.04-.61,2.63-2.65,2.63-10.86,0-21.71,0-32.57,0-2.02,0-2.62-.61-2.62-2.66,0-4.26,0-8.52,0-12.79,0-.49,0-.98,0-1.64Zm11.4,13.29c0-.59,0-1.07,0-1.56,0-2.69-.05-5.38,.02-8.07,.07-3.12,1.59-5.41,4.4-6.68,2.75-1.24,5.44-.9,7.84,.99,1.91,1.51,2.81,3.54,2.8,5.98-.01,3.08,0,6.17,0,9.28h7.67c0-.59,0-1.08,0-1.57,0-4.35,0-8.7,0-13.05,0-1.71,.56-2.26,2.23-2.29,.78-.01,1.56,0,2.33,0L26.7,5.11c-6.54,6.52-13.14,13.1-19.65,19.59,.43,0,1.1,0,1.77,0,1.97,0,2.48,.51,2.48,2.44,0,4.35,0,8.7,0,13.05,0,.47,0,.95,0,1.47h7.66Zm11.34-.02c0-3.31,.1-6.49-.03-9.66-.08-2.07-1.75-3.52-3.69-3.58-1.87-.06-3.69,1.28-3.8,3.27-.19,3.29-.05,6.6-.05,9.97h7.58Z"/></svg>