<?xml version="1.0" encoding="UTF-8"?><svg id="a" xmlns="http://www.w3.org/2000/svg" viewBox="0 0 42.66 47.4"><path d="M21.38,28.39c3.16,0,6.31,0,9.47,0,5.89,.02,10.97,4.4,11.64,10.2,.25,2.19,.16,4.43,.14,6.65-.01,1.14-1.13,2.1-2.29,2.15-1.14,.05-2.3-.83-2.43-1.98-.11-.97-.05-1.95-.07-2.93-.03-1.18,.04-2.37-.14-3.53-.5-3.24-3.35-5.71-6.64-5.73-6.46-.04-12.92-.05-19.37,0-3.81,.03-6.82,3.1-6.87,6.92-.02,1.59,0,3.18,0,4.77-.01,1.25-.77,2.16-1.98,2.44-.94,.22-2.05-.33-2.54-1.28-.13-.25-.23-.54-.23-.81,0-2.14-.14-4.29,.07-6.41,.49-5.01,4.22-9.13,9.19-10.15,1.63-.33,3.36-.26,5.04-.29,2.34-.04,4.69-.01,7.03-.01Z"/><path d="M21.32,23.73c-6.55-.02-11.9-5.38-11.85-11.86C9.51,5.23,14.77,.01,21.37,0c6.17,0,11.8,4.92,11.83,11.88,.03,6.53-5.39,11.87-11.89,11.84Zm.04-18.91c-3.96,0-7.07,3.09-7.08,7.03,0,3.92,3.1,7.05,7.05,7.08,3.89,.03,7.07-3.18,7.07-7.14,0-3.82-3.17-6.96-7.04-6.96Z"/></svg>