<?xml version="1.0" encoding="UTF-8"?><svg id="a" xmlns="http://www.w3.org/2000/svg" viewBox="0 0 47.25 47.2"><path d="M23.38,47.2C10.65,47.2,.16,36.74,0,23.88-.07,17.59,2.3,11.65,6.7,7.16,11.17,2.6,17.19,.06,23.65,0h.2c12.79,0,23.29,10.42,23.4,23.23,.12,13.3-10.26,23.83-23.64,23.97h-.23Zm-.1-43.55c-5.32,.08-10.27,2.22-13.96,6.03-3.74,3.86-5.75,9-5.65,14.45,.18,10.54,9.18,19.45,19.65,19.45h.34c11.38-.21,20.15-9.11,19.95-20.26-.19-11.03-8.98-19.67-20.01-19.67h-.32Z"/><path d="M23.61,46.99C10.95,47.12,.36,36.67,.21,23.87,.05,10.88,10.51,.32,23.65,.2c12.65-.11,23.28,10.35,23.39,23.03,.12,13.17-10.2,23.62-23.44,23.76Zm.05-3.22c11.43-.21,20.35-9.27,20.15-20.46-.19-11.2-9.33-20.04-20.54-19.87C12.09,3.62,3.27,12.83,3.47,24.13c.19,10.81,9.47,19.84,20.19,19.64Z"/><path d="M23.41,38.85c-.51,0-1.01-.22-1.34-.58-.3-.33-.45-.76-.4-1.21,.11-1.14-.37-1.58-1.4-2.1-2.2-1.1-3.49-3.1-3.72-5.8-.05-.62,.1-1.19,.44-1.6,.3-.36,.73-.57,1.22-.61,.05,0,.1,0,.15,0,.99,0,1.72,.78,1.82,1.93,.17,2.01,1.53,3.3,3.46,3.3h.13c1.84-.06,3.29-1.55,3.31-3.41,.02-1.92-1.44-3.38-3.47-3.47-3.28-.15-5.52-1.73-6.65-4.7-1.34-3.49,.43-7.49,3.93-8.92,.64-.26,.81-.52,.72-1.11-.05-.33,0-.67,.05-.93,.16-.85,.88-1.47,1.71-1.47,.05,0,.11,0,.16,0,1.05,.11,1.7,.75,1.62,1.61-.12,1.2,.4,1.57,1.53,2.07,2.35,1.04,3.74,3.08,4.03,5.9,.06,.64-.1,1.23-.47,1.65-.32,.37-.77,.59-1.26,.61h0c-1.09,0-1.8-.78-1.91-1.99-.18-1.91-1.59-3.29-3.37-3.29h-.17c-1.93,.1-3.37,1.6-3.36,3.48,0,1.68,1.21,3.09,2.86,3.36,.29,.05,.59,.08,.89,.11,.46,.05,.94,.1,1.41,.21,3.05,.73,5.22,3.36,5.39,6.54,.17,3.09-1.76,5.96-4.68,6.97-.73,.25-.92,.51-.81,1.11,.04,.2,.01,.4,0,.58-.12,1.03-.84,1.73-1.77,1.75h-.04Z"/><path d="M19.98,18.22c.01,1.77,1.29,3.28,3.04,3.55,.76,.12,1.54,.14,2.28,.31,2.99,.72,5.07,3.26,5.23,6.35,.16,2.96-1.69,5.78-4.55,6.76-.73,.25-1.09,.56-.95,1.34,.03,.18,0,.38-.02,.57-.1,.88-.75,1.51-1.57,1.52-.85,.02-1.67-.65-1.58-1.57,.12-1.27-.45-1.77-1.51-2.3-2.26-1.13-3.4-3.13-3.61-5.63-.1-1.11,.52-1.91,1.48-1.99,.94-.08,1.66,.64,1.76,1.74,.19,2.16,1.71,3.55,3.8,3.49,1.95-.06,3.49-1.64,3.5-3.61,.02-2-1.51-3.57-3.66-3.67-3.15-.15-5.35-1.65-6.47-4.57-1.31-3.41,.42-7.27,3.82-8.66,.7-.28,.95-.62,.85-1.33-.04-.28,0-.58,.05-.86,.15-.8,.87-1.38,1.65-1.3,.82,.08,1.52,.56,1.44,1.38-.13,1.35,.54,1.78,1.65,2.28,2.42,1.07,3.64,3.13,3.91,5.74,.12,1.14-.57,1.99-1.54,2.04-.93,.05-1.59-.66-1.7-1.8-.19-2.08-1.81-3.57-3.75-3.47-2.03,.1-3.57,1.7-3.55,3.68Z"/></svg>