<?xml version="1.0" encoding="UTF-8"?><svg id="a" xmlns="http://www.w3.org/2000/svg" viewBox="0 0 45.5 41.7"><defs><style>.b{fill:#611fe9;}</style></defs><path class="b" d="M41.52,41.7h-2.69V21.71c0-.57-.41-1.03-.91-1.03h-8.52c-.5,0-.91,.46-.91,1.03v19.97H4.01V17.24c1.32-.41,2.53-1.07,3.24-2.55,1.76,3.43,6.11,3.29,7.85,.1,.89,1.62,2.19,2.46,3.82,2.45,1.63,0,2.95-.81,3.9-2.42,.98,1.49,2.19,2.46,3.87,2.41,1.64-.04,2.95-.8,3.86-2.47,.98,1.59,2.24,2.48,3.92,2.46,1.66-.02,2.92-.87,3.86-2.44,.8,1.26,1.82,2.09,3.2,2.42v24.49Zm-25.53-5.67c2.73,0,5.45,0,8.18,0,.89,0,.99-.1,.99-1.01,0-4.44,0-8.88,0-13.32,0-.83-.18-1.02-1.01-1.02-2.11,0-4.22,0-6.33,0-2.26,0-4.51-.01-6.77,0-1.16,0-2.32,.03-3.47,.04-.59,0-.81,.28-.81,.89,.01,4.48,0,8.97,0,13.45,0,.84,.14,.98,.97,.98,2.75,0,5.5,0,8.24,0Z"/><path class="b" d="M0,11.83c1.49-2.25,2.9-4.36,4.3-6.48,1.07-1.61,2.16-3.22,3.21-4.85,.23-.36,.48-.49,.86-.48,1.1,.03,2.21,0,3.4,0-.52,1.25-1,2.41-1.48,3.56-1.07,2.55-2.15,5.1-3.2,7.66-.18,.44-.4,.58-.82,.58-2.05-.03-4.09-.01-6.28-.01Z"/><path class="b" d="M45.45,11.83c-1.27,0-2.47,0-3.67,0-.9,0-1.8,.02-2.7-.02-.19,0-.47-.19-.55-.38-1.56-3.68-3.1-7.37-4.64-11.06-.03-.07-.05-.16-.1-.32,1.29,0,2.52,0,3.76,.01,.12,0,.26,.16,.35,.29,2.5,3.74,4.99,7.49,7.48,11.24,.02,.03,.03,.08,.09,.24Z"/><path class="b" d="M29.85,11.8h-6.5V.05c.79,0,1.58,0,2.38,0,.55,0,1.26-.18,1.61,.13,.35,.32,.34,1.14,.47,1.75,.64,3.04,1.28,6.09,1.91,9.13,.05,.23,.09,.46,.14,.73Z"/><path class="b" d="M22.19,11.8h-6.53c.29-1.4,.58-2.75,.86-4.1,.5-2.37,1-4.73,1.48-7.1,.08-.42,.22-.57,.61-.56,1.19,.03,2.37,0,3.59,0V11.8Z"/><path class="b" d="M14.56,11.81h-6.49c.09-.23,.16-.42,.23-.61,1.48-3.53,2.96-7.06,4.43-10.59,.17-.4,.35-.59,.77-.57,1.15,.04,2.29,.01,3.53,.01l-2.46,11.76Z"/><path class="b" d="M37.38,11.83c-.62,0-1.26,0-1.91,0-1.34,0-2.68,0-4.02,0-.29,0-.49-.02-.57-.43-.76-3.7-1.54-7.4-2.31-11.09-.01-.06,0-.13-.02-.26,1.27,0,2.53,0,3.79,.01,.11,0,.27,.15,.33,.28,1.59,3.78,3.17,7.57,4.75,11.36,0,.01-.01,.04-.04,.14Z"/><path class="b" d="M22.19,13.1c-.09,1.48-1.49,2.91-3.03,3-1.69,.1-3.03-.98-3.53-3h6.56Z"/><path class="b" d="M38.93,13.02h6.56c-.23,1.78-1.69,3.11-3.32,3.07-1.65-.04-3.08-1.38-3.24-3.07Z"/><path class="b" d="M7.92,13.04h6.47c.12,1.41-1.37,2.93-3.02,3.09-1.62,.16-3.32-1.35-3.45-3.09Z"/><path class="b" d="M23.46,13.1h6.46c-.12,1.67-1.58,3.01-3.22,3-1.68-.01-3.15-1.36-3.24-3Z"/><path class="b" d="M.08,13.03H6.55c-.03,1.64-1.58,3.09-3.28,3.07-1.64-.02-3.17-1.48-3.2-3.07Z"/><path class="b" d="M31.19,13.11h6.47c-.06,1.58-1.48,2.92-3.12,2.99-1.65,.07-3.16-1.27-3.34-2.99Z"/></svg>