<?xml version="1.0" encoding="UTF-8"?><svg id="a" xmlns="http://www.w3.org/2000/svg" viewBox="0 0 39.71 39.71"><defs><style>.b{fill:#fff;}.c{fill:#e01e1e;}</style></defs><circle class="c" cx="19.86" cy="19.86" r="19.86"/><path class="b" d="M19.86,10.94c4.92,0,8.93,3.99,8.92,8.93-.01,4.81-3.8,8.84-8.81,8.91-5.01,.06-9.05-3.98-9.04-8.91,.01-4.94,3.98-8.91,8.93-8.92Zm-5.71,4.46c-2.05,2.38-2.34,6.81,.68,9.7,3.05,2.92,7.36,2.34,9.47,.45L14.15,15.4Zm11.39,8.92c2.16-2.54,2.31-7.07-.87-9.9-3.1-2.76-7.33-2.04-9.28-.25l10.14,10.15Z"/></svg>