<?xml version="1.0" encoding="UTF-8"?><svg id="a" xmlns="http://www.w3.org/2000/svg" xmlns:xlink="http://www.w3.org/1999/xlink" viewBox="0 0 76.76 67.68"><defs><style>.j{fill:url(#c);}.k{fill:url(#f);}.l{fill:url(#g);}.m{fill:url(#b);}.n{fill:url(#i);}.o{fill:url(#h);}.p{fill:url(#d);}.q{fill:url(#e);}</style><linearGradient id="b" x1="1.09" y1="51.55" x2="52.2" y2="16.89" gradientTransform="matrix(1, 0, 0, 1, 0, 0)" gradientUnits="userSpaceOnUse"><stop offset="0" stop-color="#6320ee"/><stop offset=".16" stop-color="#6524ed"/><stop offset=".33" stop-color="#6d30ec"/><stop offset=".5" stop-color="#7946e9"/><stop offset=".67" stop-color="#8b63e6"/><stop offset=".85" stop-color="#a189e2"/><stop offset="1" stop-color="#b9b1de"/></linearGradient><linearGradient id="c" x1="3.71" y1="55.42" x2="54.83" y2="20.76" xlink:href="#b"/><linearGradient id="d" x1="15.64" y1="73.01" x2="66.76" y2="38.35" xlink:href="#b"/><linearGradient id="e" x1="22.51" y1="83.14" x2="73.62" y2="48.47" xlink:href="#b"/><linearGradient id="f" x1="-11.26" y1="33.34" x2="39.85" y2="-1.32" xlink:href="#b"/><linearGradient id="g" x1="-3.3" y1="45.08" x2="47.81" y2="10.41" xlink:href="#b"/><linearGradient id="h" x1="12.62" y1="68.56" x2="63.74" y2="33.89" xlink:href="#b"/><linearGradient id="i" x1="4.84" y1="57.09" x2="55.95" y2="22.42" xlink:href="#b"/></defs><path class="m" d="M8.97,31.76c-.24-1.45-.4-2.86-.18-4.3,.52-3.35,2.94-4.69,5.48-5.09,1.49-.24,2.96-.09,4.37,.49,.17,.07,.33,.16,.51,.25-1.82,3.68-2.2,7.55-1.74,11.53,.47,3.99,1.96,7.56,4.54,10.68-.19,.26-.32,.48-.49,.66-1.03,1.06-1.55,2.34-1.71,3.79-.19,1.64-.21,3.26,.26,4.86,.2,.7,.58,1.27,1.22,1.64,.73,.43,1.46,.85,2.25,1.3-.15,.08-.31,.21-.49,.23-5.23,.66-10.44,.67-15.59-.63-2.15-.54-4.22-1.33-6.18-2.39C.42,54.35-.03,53.74,0,52.82c.04-1.04,0-2.09,.17-3.1,.31-1.83,1.55-2.96,3.14-3.78,1.57-.82,3.26-1.27,4.97-1.67,.88-.2,1.75-.46,2.57-.82,.46-.2,.87-.6,1.18-1,.36-.48,.42-1.08,.04-1.63-.96-1.43-1.67-2.96-2-4.66-.04-.21-.23-.41-.4-.56-.74-.7-1.19-1.58-1.45-2.54-.2-.74-.02-1.02,.73-1.29Z"/><path class="j" d="M38.6,50.81c-1.67-.21-3.37-.29-5-.66-3.69-.84-6.71-2.84-9.25-5.62-2.63-2.88-4.18-6.29-4.68-10.14-.6-4.61,.32-8.96,2.96-12.76,3.16-4.54,7.43-7.51,13.06-8.32,1.65-.24,3.25-.12,4.88,.04,4.35,.44,8.07,2.24,11.09,5.36,4.7,4.87,6.35,10.68,5.01,17.32-.97,4.76-3.6,8.46-7.48,11.27-2.4,1.75-5.11,2.84-8.07,3.26-.82,.12-1.66,.11-2.5,.16l-.02,.08ZM22.08,31.8c-.03,9.17,7.18,16.42,16.33,16.47,8.09,.05,16.18-6.6,16.18-16.16,0-9.99-7.64-16.3-16.35-16.45-7.22-.12-16.19,5.82-16.16,16.14Z"/><path class="p" d="M57.24,22.49c1.88-.34,3.65-.35,5.35,.5,.67,.33,1.39,.55,2.07,.85,1.7,.73,2.74,2.04,3.02,3.84,.17,1.08,.08,2.21,.09,3.31,0,.24-.03,.47-.05,.74l.45,.09s.05,.09,.05,.13c-.07,.68-.08,1.37-.24,2.02-.1,.41-.35,.84-.66,1.12-.56,.5-.82,1.1-.95,1.81-.27,1.46-.72,2.83-1.64,4.03-.44,.56-.23,1.45,.4,1.96,.82,.66,1.82,.9,2.8,1.18,1.55,.44,3.12,.85,4.66,1.36,1.19,.39,2.25,1.04,3.07,2.03,.63,.76,.99,1.64,1.06,2.61,.06,.93,.03,1.87,.02,2.81,0,.63-.25,1.21-.79,1.54-.81,.5-1.65,.93-2.51,1.34-.15,.07-.47-.02-.61-.15-3.76-3.74-7.51-7.49-11.26-11.25-1.11-1.12-2.37-1.92-4-2.05-.71-.06-.76-.21-.43-.84,1.44-2.77,2.18-5.75,2.29-8.84,.11-3.05-.39-6.05-1.7-8.86-.19-.4-.32-.82-.5-1.3Z"/><path class="q" d="M51.74,49.41c-.13-.09-.24-.17-.35-.25-.49-.37-.56-.79-.15-1.26,.29-.34,.62-.64,.94-.94,.87-.84,1.72-1.71,2.62-2.52,.59-.53,.69-.47,1.22-.05,.23,.18,.61,.32,.88,.27,.9-.17,1.64,.15,2.25,.72,1.74,1.63,3.48,3.28,5.17,4.96,3.11,3.09,6.19,6.21,9.28,9.32,1.37,1.38,1.52,3.3,.2,4.83-.84,.97-1.82,1.86-2.84,2.64-1.17,.9-3,.66-4.04-.38-3.05-3.06-6.09-6.12-9.15-9.17-1.51-1.5-3.04-2.98-4.55-4.49-.44-.44-.85-.94-1.21-1.45-.49-.68-.6-1.43-.27-2.23Z"/><path class="k" d="M19.86,9.5c-.07-1.15-.2-2.25-.2-3.35,0-3.35,2.72-6.03,6.07-6.14,1.81-.05,3.53,.15,5.1,1.14,.23,.14,.5,.21,.76,.29,1.99,.59,3.42,2.3,3.55,4.39,.07,1.2,.01,2.41,.01,3.62,.9,.28,.27,.99,.51,1.51-2.57,.41-4.95,1.16-7.22,2.31-2.26,1.15-4.1,2.84-6.03,4.64-.41-1.17-.81-2.18-1.12-3.21-.21-.68-.44-1.3-1-1.8-.8-.71-.99-1.72-1.12-2.72-.06-.47,.08-.56,.67-.68Z"/><path class="l" d="M54.27,17.94c-.15-.1-.34-.18-.47-.31-2.78-2.97-6.15-4.98-10.03-6.15-.89-.27-1.83-.38-2.78-.57-.36-.94-.28-1.18,.51-1.4-.07-1.09-.21-2.17-.2-3.25,0-3.04,1.83-5.3,4.78-6.01,2.02-.49,3.95-.2,5.83,.65,.59,.26,1.21,.45,1.8,.71,1.77,.77,2.86,2.1,3.04,4.02,.12,1.27,.02,2.55,.02,3.85l.5,.12c-.09,1.35-.07,2.72-1.32,3.68-.22,.17-.34,.55-.4,.85-.27,1.3-.57,2.59-1.27,3.82Z"/><path class="o" d="M23.51,47.19c7.86,6.77,16.41,7.68,25.59,3.13,.35,.91,.59,1.95,1.12,2.83,.53,.89,1.34,1.61,2.08,2.48-.86,.33-1.64,.65-2.43,.92-4.71,1.58-9.55,2.01-14.48,1.58-3.5-.31-6.9-1.04-10.16-2.36-.8-.33-1.56-.76-2.33-1.17-.57-.3-.92-.81-.92-1.44,0-1.22,.03-2.45,.12-3.67,.08-.98,.81-1.62,1.41-2.3Z"/><path class="n" d="M30.92,31.76c-.26-1.62-.49-3.2-.09-4.8,.63-2.51,2.66-4.27,5.23-4.6,1.79-.23,3.49,.05,5.14,.79,.53,.24,1.07,.44,1.62,.63,1.94,.7,3.01,2.13,3.28,4.12,.14,1.04,.03,2.11,.04,3.17,0,.22,0,.44,0,.69l.43,.08c.02,.05,.05,.08,.05,.11,.04,1.38-.25,2.62-1.3,3.63-.29,.28-.38,.78-.51,1.2-.21,.7-.31,1.44-.56,2.12-.2,.57-.48,1.14-.85,1.61-.62,.81-.64,1.81,.17,2.46,.42,.34,.99,.48,1.49,.71,.14,.07,.29,.13,.43,.19-.13,.1-.25,.23-.4,.3-1.29,.68-2.63,1.21-4.07,1.47-2.72,.51-5.36,.27-7.92-.77-.48-.2-.94-.45-1.49-.72,.32-.2,.61-.37,.89-.55,.43-.27,.89-.5,1.29-.82,.64-.53,.72-1.02,.33-1.76-.24-.45-.55-.87-.75-1.34-.42-1-.76-2.04-1.17-3.04-.19-.46-.41-.95-.74-1.3-.69-.74-1.08-1.6-1.27-2.57-.13-.69,.06-.93,.74-1.04Z"/></svg>