<?xml version="1.0" encoding="UTF-8"?><svg id="a" xmlns="http://www.w3.org/2000/svg" xmlns:xlink="http://www.w3.org/1999/xlink" viewBox="0 0 67.62 67.68"><defs><style>.d{fill:url(#c);}.e{fill:url(#b);}</style><linearGradient id="b" x1="43.24" y1="11.83" x2="12.24" y2="59.59" gradientTransform="matrix(1, 0, 0, 1, 0, 0)" gradientUnits="userSpaceOnUse"><stop offset="0" stop-color="#b9b1de"/><stop offset=".24" stop-color="#9c80e3"/><stop offset=".47" stop-color="#8356e7"/><stop offset=".69" stop-color="#7138eb"/><stop offset=".87" stop-color="#6626ed"/><stop offset="1" stop-color="#6320ee"/></linearGradient><linearGradient id="c" x1="66.64" y1="27.02" x2="35.64" y2="74.78" xlink:href="#b"/></defs><path class="e" d="M38.96,66.79c-1.72,.2-3.19,.44-4.67,.54-8.86,.63-17.69,.54-26.4-1.38-1.83-.4-3.61-1.17-5.3-2.01-1.8-.9-2.73-2.47-2.56-4.58,.07-.8,.07-1.61,0-2.41-.26-2.92,1.01-5.17,3.07-7.07,3.36-3.1,7.45-4.83,11.77-6.1,.87-.26,1.77-.46,2.66-.66,1.5-.35,2.81-1.64,2.93-3.16,.05-.63-.13-1.4-.49-1.92-1.33-1.95-2.42-3.99-3.04-6.28-.09-.35-.36-.71-.65-.92-2.14-1.54-3.86-6.26-2.78-8.69,.51-1.13,.24-1.96,.04-2.95-1.09-5.3-.07-10.21,3.02-14.6C19.65,.22,25.75-1.33,30.33,1.25c1.78,1,3.38,1.87,5.48,2,1.76,.12,2.96,1.46,3.87,2.96,1.16,1.93,1.74,4.07,1.79,6.26,.06,2.61-.21,5.24-.34,7.86-.01,.29-.1,.6,0,.86,1.3,3.79,.34,7.03-2.39,9.84-.24,.25-.42,.57-.58,.89-1.03,2.05-2.07,4.09-3.07,6.16-.33,.68-.54,1.41-.79,2.12-.11,.3-.13,.65-.29,.92-4.92,8.33-2.97,19.03,4.44,25.1,.11,.09,.19,.21,.51,.57Z"/><path class="d" d="M34.45,51.1c-.03-9.12,7.35-16.54,16.49-16.59,9.18-.05,16.67,7.37,16.67,16.52,0,9.17-7.44,16.62-16.6,16.61-9.11,0-16.54-7.42-16.56-16.54Zm24.82,2.3c.49,0,.89-.41,.88-.9-.02-.85-.04-1.64,.03-2.41,.12-1.14-.31-1.45-1.4-1.4-1.7,.08-3.4,.03-5.2,.02-.14,0-.25-.11-.25-.25,0-1.92-.04-3.7,.02-5.47,.03-.94-.34-1.19-1.27-1.09-.7,.07-1.4,.07-2.09,0-1.07-.13-1.33,.3-1.28,1.26,.07,1.35,.02,2.7,.02,4.05q0,1.51-1.56,1.51c-.66,0-1.32-.02-1.97,0-1.05,.04-2.54-.3-3.03,.25-.57,.63-.21,2.06-.33,3.13-.12,1.07,.3,1.38,1.34,1.33,1.73-.08,3.46-.03,5.3-.02,.14,0,.25,.11,.25,.25,0,.43,0,.76,0,1.09,0,1.53-.03,3.07,.03,4.6,.01,.29,.34,.79,.55,.8,1.04,.06,2.08,.05,3.2,.04,.48,0,.87-.39,.87-.88v-5.67c0-.14,.11-.25,.25-.25h5.65Z"/></svg>