<?xml version="1.0" encoding="UTF-8"?><svg id="a" xmlns="http://www.w3.org/2000/svg" viewBox="0 0 46.98 47"><path d="M23.57,0C10.52,0,0,10.49,0,23.54c0,12.76,10.52,23.33,23.13,23.46,13.34,.14,23.96-10.72,23.85-23.48C47.12,10.72,36.54,0,23.57,0Zm-.07,42.65c-10.52,.02-19.09-8.53-19.11-19.07-.02-10.65,8.45-19.25,19.08-19.24,10.66,0,19.07,8.45,19.17,18.87,.11,10.83-8.45,19.42-19.14,19.45Z"/><path d="M34.33,13.4c-.38-.73-1.09-1.09-1.79-1.08-.32,0-.65,.05-.99,.17-4.38,1.46-8.76,2.92-13.14,4.37-.85,.28-1.38,.82-1.66,1.68-1.33,4.02-2.68,8.03-4.02,12.04-.14,.43-.25,.87-.41,1.42-.01,.16-.02,.3-.01,.45-.02,.41,.07,.8,.28,1.16,.38,.73,1.09,1.09,1.79,1.08,.32,0,.65-.05,.99-.17,4.38-1.46,8.76-2.92,13.14-4.37,.85-.28,1.38-.82,1.66-1.68,1.33-4.02,2.68-8.03,4.02-12.04,.14-.43,.25-.87,.41-1.42,.01-.16,.02-.3,.01-.45,.02-.41-.07-.8-.28-1.16Zm-9.29,5.84c1.24-.41,2.48-.82,3.71-1.23,.04,0,.1,.02,.21,.05-.28,.86-.57,1.7-.85,2.55-.57,1.71-1.13,3.43-1.73,5.14-.09,.27-.33,.59-.58,.69-1.31,.45-2.62,.9-3.94,1.34-1.24,.41-2.48,.82-3.71,1.23-.04,0-.1-.02-.21-.05,.28-.86,.57-1.7,.85-2.55,.57-1.71,1.13-3.43,1.73-5.14,.09-.27,.33-.59,.58-.69,1.31-.45,2.62-.9,3.94-1.34Z"/></svg>