<?xml version="1.0" encoding="UTF-8"?><svg id="a" xmlns="http://www.w3.org/2000/svg" viewBox="0 0 38.37 38.37"><defs><style>.b{fill:#fff;}.c{fill:#6320ee;}</style></defs><circle class="c" cx="19.18" cy="19.18" r="19.18"/><path class="b" d="M16.82,23.91c0-.77,0-1.54,0-2.31,0-.11-.05-.25-.12-.33-1.96-2.32-3.92-4.64-5.88-6.96-.32-.38-.35-.77-.08-1.1,.17-.21,.4-.29,.66-.29,1.31,0,2.62,0,3.93,0,3.87,0,7.75,0,11.62,0,.37,0,.65,.13,.81,.47,.16,.33,.06,.63-.17,.9-1.97,2.33-3.94,4.66-5.9,6.99-.08,.09-.13,.24-.13,.35,0,2.05,0,4.1,0,6.14,0,.52-.36,.87-.87,.84-.1,0-.2-.04-.29-.09-1.02-.51-2.05-1.02-3.07-1.53-.34-.17-.5-.44-.49-.82,0-.75,0-1.51,0-2.26h0Zm-3.74-9.39c.07,.09,.11,.14,.15,.19,1.62,1.91,3.23,3.83,4.86,5.73,.25,.29,.35,.59,.34,.97-.01,1.37,0,2.73-.01,4.1,0,.2,.07,.3,.24,.38,.38,.17,.74,.37,1.11,.55,.05,.03,.11,.04,.19,.07,0-.08,0-.12,0-.16,0-1.69,0-3.38,0-5.08,0-.31,.09-.55,.29-.79,1.34-1.57,2.67-3.15,4.01-4.73,.34-.4,.68-.81,1.05-1.24H13.07Z"/></svg>