<?xml version="1.0" encoding="UTF-8"?><svg id="a" xmlns="http://www.w3.org/2000/svg" width="86.67" height="135.31" xmlns:xlink="http://www.w3.org/1999/xlink" viewBox="0 0 86.67 135.31"><defs><linearGradient id="b" x1="35.51" y1="130" x2="83.64" y2="90.76" gradientUnits="userSpaceOnUse"><stop offset="0" stop-color="#521ac4"/><stop offset="1" stop-color="#d6dbe5"/></linearGradient><linearGradient id="c" x1="45.36" y1="145.16" x2="51.66" y2="41.13" xlink:href="#b"/><linearGradient id="d" x1="49.66" y1="133.75" x2="39.69" y2="72.08" xlink:href="#b"/><linearGradient id="e" x1="55.64" y1="130.32" x2="46.98" y2="81.18" gradientUnits="userSpaceOnUse"><stop offset="0" stop-color="#d6dbe5" stop-opacity="0"/><stop offset="1" stop-color="#611fe9"/></linearGradient><linearGradient id="f" x1="0" y1="75.38" x2="55.89" y2="75.38" gradientUnits="userSpaceOnUse"><stop offset="0" stop-color="#d6dbe5"/><stop offset="1" stop-color="#521ac4"/></linearGradient><linearGradient id="g" x1="26.54" y1="63.15" x2="39.53" y2="130.84" xlink:href="#f"/><linearGradient id="h" x1="44.69" y1="135.67" x2="36.53" y2="85.97" gradientTransform="translate(4.57 1.13) rotate(1.27)" gradientUnits="userSpaceOnUse"><stop offset="0" stop-color="#d6dbe5" stop-opacity="0"/><stop offset=".11" stop-color="#d3d6e5" stop-opacity=".02"/><stop offset=".24" stop-color="#cccbe5" stop-opacity=".08"/><stop offset=".38" stop-color="#c0b7e5" stop-opacity=".19"/><stop offset=".53" stop-color="#af9ce6" stop-opacity=".33"/><stop offset=".68" stop-color="#9979e7" stop-opacity=".52"/><stop offset=".84" stop-color="#7f4fe7" stop-opacity=".74"/><stop offset="1" stop-color="#611fe9"/></linearGradient><linearGradient id="i" x1="13.59" y1="57.34" x2="49.5" y2="-1.15" xlink:href="#b"/></defs><path d="M86.67,99.99c-3.09,16.16-15.02,28.97-30.32,33.55-.4,.12-.05,.03-.46,.14-17.57-2.37-27.09-15.08-16.53-31.61-6.25,21.42,32.95,30.69,47.31-2.07Z" fill="url(#b)"/><path d="M69.98,126.66c-6.85,4.95-14.09,7.02-14.09,7.02-8.07-.44-18.45-6.51-23.19-12.16-12.37-14.73-10.11-38.03,5.24-52.74,7.06-6.76,14.92-7.14,21.46-15.72,0,0,6.24,10.41-3.44,26.19-5.16,8.42-15.46,13.09-17.09,25.05-2.15,15.8,13.54,32.48,31.11,22.37Z" fill="url(#c)"/><path d="M69.98,126.66c-6.85,4.95-14.09,7.02-14.09,7.02-8.07-.44-21.38-7.32-26.13-12.97-12.37-14.73-10.9-36.16,7.03-51.89,7.35-6.45,16.06-7.18,22.61-15.76-4.28,19.08-29.2,20.79-29.87,48.99-.62,25.96,23.34,37.32,40.45,24.61Z" fill="url(#d)"/><path d="M38.87,104.29c1.63-11.96,11.92-16.63,17.09-25.05,9.68-15.78,3.44-26.19,3.44-26.19-.03,.03-.05,.06-.08,.1,2.54,17.32-8.81,20.88-20.55,36.46-6.43,8.84-6.73,22.26-1.24,29.82,10.68,15.68,25.78,12.05,32.44,7.24-17.57,10.12-33.26-6.57-31.11-22.37Z" fill="url(#e)"/><path d="M50.09,15.45c2.93,9.37-.07,37.51-16.42,55.38-23.38,25.53-3.28,60.12,22.22,62.85-9.63,2.75-25.89,3.38-40.79-9.09-19.68-16.48-20.54-48.69-.12-70.12,9.38-9.85,22.27-15.54,29.75-27.24,3.83-5.99,5.36-11.78,5.36-11.78Z" fill="url(#f)"/><path d="M50.09,15.45c2.93,9.37-10.16,28.91-26.82,46.49-20.86,22.02-14.6,71.74,32.62,71.74-9.63,2.75-25.89,3.38-40.79-9.09-19.68-16.48-20.54-48.69-.12-70.12,9.38-9.85,22.27-15.54,29.75-27.24,3.83-5.99,5.36-11.78,5.36-11.78Z" fill="url(#g)"/><path d="M28.96,65.44c-12.81,16.48-13.98,43.03,2.55,58.85,5.48,4.69,11.44,7.38,17.62,8.57-22.26-7.13-37.26-39.29-15.07-62.47,16.75-17.5,18.76-45.26,16.05-54.69,0,0-.01,.04-.03,.09,.86,18.61-5.91,30.08-21.12,49.65Z" fill="url(#h)"/><path d="M43.48,0s8.25,12.28-7.52,26.7c-6.14,5.62-6.55,6.73-9.87,10.93,0,0,.75-4.95,9.88-17.15C39.56,15.69,45.04,9.69,43.48,0Z" fill="url(#i)"/><path d="M43.48,0c6.1,17.04-7,21.45-17.39,37.63,3.32-4.2,4.1-4.76,10.25-10.38C52.11,12.83,43.48,0,43.48,0Z" fill="#611fe9"/></svg>