<?xml version="1.0" encoding="UTF-8"?><svg id="a" xmlns="http://www.w3.org/2000/svg" width="104.44" height="104.44" viewBox="0 0 104.44 104.44"><circle cx="52.22" cy="52.22" r="52.22" fill="#6320ee"/><g><path d="M76.04,69.99c-1.7,8.88-8.25,15.92-16.67,18.44-.22,.07-.03,.01-.25,.07-9.66-1.3-14.89-8.29-9.09-17.38-3.44,11.77,18.11,16.87,26-1.14Z" fill="#fff"/><path d="M66.86,84.65c-3.77,2.72-7.74,3.86-7.74,3.86-4.43-.24-10.14-3.58-12.75-6.68-6.8-8.1-5.56-20.9,2.88-28.99,3.88-3.72,8.2-3.93,11.8-8.64,0,0,3.43,5.72-1.89,14.4-2.84,4.63-8.5,7.19-9.39,13.77-1.18,8.68,7.44,17.86,17.1,12.29Z" fill="#fff"/><path d="M66.86,84.65c-3.77,2.72-7.74,3.86-7.74,3.86-4.43-.24-11.75-4.02-14.36-7.13-6.8-8.1-5.99-19.88,3.87-28.52,4.04-3.54,8.83-3.95,12.43-8.66-2.35,10.49-16.05,11.43-16.42,26.93-.34,14.27,12.83,20.51,22.23,13.53Z" fill="#fff"/><path d="M49.77,72.36c.9-6.57,6.55-9.14,9.39-13.77,5.32-8.67,1.89-14.4,1.89-14.4-.01,.02-.03,.04-.04,.05,1.4,9.52-4.84,11.48-11.3,20.04-3.53,4.86-3.7,12.24-.68,16.39,5.87,8.62,14.17,6.62,17.83,3.98-9.66,5.56-18.28-3.61-17.1-12.29Z" fill="#fff"/><path d="M55.93,23.52c1.61,5.15-.04,20.62-9.03,30.44-12.85,14.03-1.8,33.05,12.22,34.55-5.3,1.51-14.23,1.86-22.42-5-10.82-9.06-11.29-26.76-.06-38.54,5.16-5.41,12.24-8.54,16.35-14.97,2.11-3.29,2.95-6.48,2.95-6.48Z" fill="#fff"/><path d="M55.93,23.52c1.61,5.15-5.59,15.89-14.74,25.55-11.47,12.11-8.03,39.43,17.93,39.43-5.3,1.51-14.23,1.86-22.42-5-10.82-9.06-11.29-26.76-.06-38.54,5.16-5.41,12.24-8.54,16.35-14.97,2.11-3.29,2.95-6.48,2.95-6.48Z" fill="#fff"/><path d="M44.32,51c-7.04,9.06-7.68,23.65,1.4,32.35,3.01,2.58,6.29,4.06,9.69,4.71-12.24-3.92-20.48-21.6-8.28-34.34,9.21-9.62,10.31-24.88,8.82-30.06,0,0,0,.02-.02,.05,.47,10.23-3.25,16.54-11.61,27.29Z" fill="#fff"/><path d="M52.3,15.03s4.54,6.75-4.13,14.68c-3.38,3.09-3.6,3.7-5.43,6.01,0,0,.41-2.72,5.43-9.43,1.97-2.63,4.99-5.93,4.13-11.26Z" fill="#fff"/><path d="M52.3,15.03c3.35,9.37-3.85,11.79-9.56,20.68,1.82-2.31,2.26-2.62,5.63-5.71,8.67-7.92,3.92-14.98,3.92-14.98Z" fill="#fff"/></g></svg>