<?xml version="1.0" encoding="UTF-8"?><svg id="a" xmlns="http://www.w3.org/2000/svg" width="105.5" height="105.5" viewBox="0 0 105.5 105.5"><circle cx="52.75" cy="52.75" r="52.5" fill="#fff" stroke="#b3b3b3" stroke-miterlimit="10" stroke-width=".5"/><g><path d="M76.7,70.62c-1.71,8.93-8.3,16.01-16.76,18.54-.22,.07-.03,.01-.25,.07-9.71-1.31-14.97-8.33-9.13-17.47-3.46,11.84,18.21,16.96,26.14-1.15Z" fill="#6320ee"/><path d="M67.47,85.36c-3.79,2.73-7.79,3.88-7.79,3.88-4.46-.24-10.19-3.6-12.82-6.72-6.84-8.14-5.59-21.02,2.89-29.15,3.9-3.74,8.24-3.95,11.86-8.69,0,0,3.45,5.75-1.9,14.47-2.85,4.65-8.54,7.23-9.44,13.84-1.19,8.73,7.48,17.95,17.19,12.36Z" fill="#6320ee"/><path d="M67.47,85.36c-3.79,2.73-7.79,3.88-7.79,3.88-4.46-.24-11.82-4.05-14.44-7.17-6.84-8.14-6.02-19.99,3.89-28.68,4.06-3.56,8.88-3.97,12.49-8.71-2.37,10.55-16.14,11.49-16.51,27.07-.34,14.35,12.9,20.63,22.35,13.6Z" fill="#6320ee"/><path d="M50.28,73c.9-6.61,6.59-9.19,9.44-13.84,5.35-8.72,1.9-14.47,1.9-14.47-.01,.02-.03,.04-.04,.05,1.41,9.57-4.87,11.54-11.36,20.15-3.55,4.89-3.72,12.3-.68,16.48,5.9,8.67,14.25,6.66,17.93,4-9.71,5.59-18.38-3.63-17.19-12.36Z" fill="#6320ee"/><path d="M56.48,23.9c1.62,5.18-.04,20.73-9.08,30.6-12.92,14.11-1.81,33.23,12.28,34.73-5.32,1.52-14.31,1.87-22.54-5.02-10.88-9.11-11.35-26.9-.06-38.75,5.19-5.44,12.31-8.59,16.44-15.05,2.12-3.31,2.96-6.51,2.96-6.51Z" fill="#6320ee"/><path d="M56.48,23.9c1.62,5.18-5.62,15.97-14.82,25.69-11.53,12.17-8.07,39.64,18.03,39.64-5.32,1.52-14.31,1.87-22.54-5.02-10.88-9.11-11.35-26.9-.06-38.75,5.19-5.44,12.31-8.59,16.44-15.05,2.12-3.31,2.96-6.51,2.96-6.51Z" fill="#6320ee"/><path d="M44.8,51.52c-7.08,9.11-7.72,23.78,1.41,32.52,3.03,2.59,6.32,4.08,9.74,4.74-12.3-3.94-20.59-21.71-8.33-34.52,9.26-9.67,10.37-25.01,8.87-30.22,0,0,0,.02-.02,.05,.48,10.28-3.27,16.62-11.67,27.44Z" fill="#6320ee"/><path d="M52.83,15.36s4.56,6.79-4.15,14.76c-3.4,3.1-3.62,3.72-5.46,6.04,0,0,.41-2.73,5.46-9.48,1.98-2.65,5.01-5.96,4.15-11.32Z" fill="#6320ee"/><path d="M52.83,15.36c3.37,9.42-3.87,11.86-9.61,20.8,1.83-2.32,2.27-2.63,5.66-5.74,8.71-7.97,3.95-15.06,3.95-15.06Z" fill="#6320ee"/></g></svg>