<?xml version="1.0" encoding="UTF-8"?><svg id="a" xmlns="http://www.w3.org/2000/svg" width="104.22" height="104.22" xmlns:xlink="http://www.w3.org/1999/xlink" viewBox="0 0 104.22 104.22"><defs><linearGradient id="b" x1="47.82" y1="86.3" x2="74.22" y2="64.78" gradientUnits="userSpaceOnUse"><stop offset="0" stop-color="#521ac4"/><stop offset="1" stop-color="#d6dbe5"/></linearGradient><linearGradient id="c" x1="53.22" y1="94.62" x2="56.67" y2="37.56" xlink:href="#b"/><linearGradient id="d" x1="55.58" y1="88.36" x2="50.11" y2="54.54" xlink:href="#b"/><linearGradient id="e" x1="58.86" y1="86.48" x2="54.11" y2="59.52" gradientUnits="userSpaceOnUse"><stop offset="0" stop-color="#d6dbe5" stop-opacity="0"/><stop offset="1" stop-color="#611fe9"/></linearGradient><linearGradient id="f" x1="28.34" y1="56.34" x2="58.99" y2="56.34" gradientUnits="userSpaceOnUse"><stop offset="0" stop-color="#d6dbe5"/><stop offset="1" stop-color="#521ac4"/></linearGradient><linearGradient id="g" x1="42.9" y1="49.63" x2="50.02" y2="86.76" xlink:href="#f"/><linearGradient id="h" x1="50.2" y1="81.24" x2="45.72" y2="53.98" gradientTransform="translate(5.31 8.22) rotate(1.27)" gradientUnits="userSpaceOnUse"><stop offset="0" stop-color="#d6dbe5" stop-opacity="0"/><stop offset=".11" stop-color="#d3d6e5" stop-opacity=".02"/><stop offset=".24" stop-color="#cccbe5" stop-opacity=".08"/><stop offset=".38" stop-color="#c0b7e5" stop-opacity=".19"/><stop offset=".53" stop-color="#af9ce6" stop-opacity=".33"/><stop offset=".68" stop-color="#9979e7" stop-opacity=".52"/><stop offset=".84" stop-color="#7f4fe7" stop-opacity=".74"/><stop offset="1" stop-color="#611fe9"/></linearGradient><linearGradient id="i" x1="35.79" y1="46.45" x2="55.49" y2="14.36" xlink:href="#b"/></defs><circle cx="52.11" cy="52.11" r="52.11" fill="#6320ee"/><g><path d="M75.88,69.84c-1.7,8.86-8.24,15.89-16.63,18.4-.22,.07-.03,.01-.25,.07-9.64-1.3-14.86-8.27-9.07-17.34-3.43,11.75,18.07,16.83,25.95-1.14Z" fill="url(#b)"/><path d="M66.72,84.47c-3.76,2.71-7.73,3.85-7.73,3.85-4.43-.24-10.12-3.57-12.72-6.67-6.79-8.08-5.55-20.86,2.87-28.93,3.87-3.71,8.18-3.92,11.77-8.63,0,0,3.42,5.71-1.89,14.36-2.83,4.62-8.48,7.18-9.37,13.74-1.18,8.66,7.43,17.82,17.06,12.27Z" fill="url(#c)"/><path d="M66.72,84.47c-3.76,2.71-7.73,3.85-7.73,3.85-4.43-.24-11.73-4.02-14.33-7.11-6.79-8.08-5.98-19.84,3.86-28.46,4.03-3.54,8.81-3.94,12.4-8.65-2.35,10.47-16.02,11.4-16.38,26.87-.34,14.24,12.8,20.47,22.19,13.5Z" fill="url(#d)"/><path d="M49.66,72.2c.89-6.56,6.54-9.12,9.37-13.74,5.31-8.66,1.89-14.36,1.89-14.36-.01,.02-.03,.04-.04,.05,1.39,9.5-4.83,11.45-11.27,20-3.53,4.85-3.69,12.21-.68,16.35,5.86,8.6,14.14,6.61,17.8,3.97-9.64,5.55-18.24-3.6-17.06-12.27Z" fill="url(#e)"/><path d="M55.81,23.47c1.6,5.14-.04,20.58-9.01,30.37-12.82,14-1.8,32.98,12.19,34.47-5.28,1.51-14.2,1.86-22.37-4.99-10.8-9.04-11.27-26.7-.06-38.46,5.15-5.4,12.21-8.52,16.32-14.94,2.1-3.29,2.94-6.46,2.94-6.46Z" fill="url(#f)"/><path d="M55.81,23.47c1.6,5.14-5.57,15.85-14.71,25.5-11.44,12.08-8.01,39.35,17.89,39.35-5.28,1.51-14.2,1.86-22.37-4.99-10.8-9.04-11.27-26.7-.06-38.46,5.15-5.4,12.21-8.52,16.32-14.94,2.1-3.29,2.94-6.46,2.94-6.46Z" fill="url(#g)"/><path d="M44.22,50.89c-7.03,9.04-7.67,23.6,1.4,32.28,3,2.57,6.27,4.05,9.67,4.7-12.21-3.91-20.44-21.55-8.27-34.27,9.19-9.6,10.29-24.82,8.8-30,0,0,0,.02-.02,.05,.47,10.21-3.24,16.5-11.58,27.23Z" fill="url(#h)"/><path d="M52.19,15s4.53,6.74-4.12,14.65c-3.37,3.08-3.59,3.69-5.41,5.99,0,0,.41-2.71,5.42-9.41,1.97-2.63,4.97-5.92,4.12-11.23Z" fill="url(#i)"/><path d="M52.19,15c3.35,9.35-3.84,11.77-9.54,20.64,1.82-2.3,2.25-2.61,5.62-5.69,8.65-7.91,3.92-14.95,3.92-14.95Z" fill="#611fe9"/></g></svg>