<?xml version="1.0" encoding="UTF-8"?><svg id="a" xmlns="http://www.w3.org/2000/svg" width="105.36" height="105.36" xmlns:xlink="http://www.w3.org/1999/xlink" viewBox="0 0 105.36 105.36"><defs><linearGradient id="b" x1="48.36" y1="87.09" x2="74.92" y2="65.43" gradientUnits="userSpaceOnUse"><stop offset="0" stop-color="#521ac4"/><stop offset="1" stop-color="#d6dbe5"/></linearGradient><linearGradient id="c" x1="53.8" y1="95.45" x2="57.27" y2="38.04" xlink:href="#b"/><linearGradient id="d" x1="56.17" y1="89.15" x2="50.67" y2="55.12" xlink:href="#b"/><linearGradient id="e" x1="59.47" y1="87.26" x2="54.69" y2="60.14" gradientUnits="userSpaceOnUse"><stop offset="0" stop-color="#d6dbe5" stop-opacity="0"/><stop offset="1" stop-color="#611fe9"/></linearGradient><linearGradient id="f" x1="28.76" y1="56.94" x2="59.61" y2="56.94" gradientUnits="userSpaceOnUse"><stop offset="0" stop-color="#d6dbe5"/><stop offset="1" stop-color="#521ac4"/></linearGradient><linearGradient id="g" x1="43.41" y1="50.19" x2="50.58" y2="87.55" xlink:href="#f"/><linearGradient id="h" x1="50.82" y1="85.28" x2="46.31" y2="57.85" gradientTransform="translate(5.37 4.98) rotate(1.27)" gradientUnits="userSpaceOnUse"><stop offset="0" stop-color="#d6dbe5" stop-opacity="0"/><stop offset=".11" stop-color="#d3d6e5" stop-opacity=".02"/><stop offset=".24" stop-color="#cccbe5" stop-opacity=".08"/><stop offset=".38" stop-color="#c0b7e5" stop-opacity=".19"/><stop offset=".53" stop-color="#af9ce6" stop-opacity=".33"/><stop offset=".68" stop-color="#9979e7" stop-opacity=".52"/><stop offset=".84" stop-color="#7f4fe7" stop-opacity=".74"/><stop offset="1" stop-color="#611fe9"/></linearGradient><linearGradient id="i" x1="36.26" y1="46.99" x2="56.08" y2="14.7" xlink:href="#b"/></defs><circle cx="52.68" cy="52.68" r="52.43" fill="#fff" stroke="#b3b3b3" stroke-miterlimit="10" stroke-width=".5"/><g><path d="M76.59,70.52c-1.71,8.92-8.29,15.99-16.73,18.52-.22,.07-.03,.01-.25,.07-9.7-1.31-14.95-8.32-9.12-17.45-3.45,11.82,18.18,16.94,26.11-1.14Z" fill="url(#b)"/><path d="M67.38,85.24c-3.78,2.73-7.78,3.87-7.78,3.87-4.45-.24-10.18-3.59-12.8-6.71-6.83-8.13-5.58-20.99,2.89-29.11,3.89-3.73,8.23-3.94,11.85-8.68,0,0,3.44,5.74-1.9,14.45-2.85,4.65-8.53,7.22-9.43,13.82-1.19,8.72,7.47,17.93,17.17,12.34Z" fill="url(#c)"/><path d="M67.38,85.24c-3.78,2.73-7.78,3.87-7.78,3.87-4.45-.24-11.8-4.04-14.42-7.16-6.83-8.13-6.01-19.96,3.88-28.64,4.06-3.56,8.86-3.96,12.48-8.7-2.36,10.53-16.11,11.47-16.48,27.04-.34,14.33,12.88,20.6,22.32,13.58Z" fill="url(#d)"/><path d="M50.21,72.9c.9-6.6,6.58-9.18,9.43-13.82,5.34-8.71,1.9-14.45,1.9-14.45-.01,.02-.03,.04-.04,.05,1.4,9.56-4.86,11.52-11.34,20.12-3.55,4.88-3.71,12.29-.68,16.45,5.89,8.66,14.23,6.65,17.91,3.99-9.7,5.58-18.36-3.63-17.17-12.34Z" fill="url(#e)"/><path d="M56.41,23.87c1.61,5.17-.04,20.7-9.06,30.56-12.9,14.09-1.81,33.18,12.26,34.69-5.32,1.52-14.29,1.87-22.51-5.02-10.86-9.09-11.34-26.87-.06-38.7,5.18-5.43,12.29-8.58,16.42-15.03,2.11-3.31,2.96-6.5,2.96-6.5Z" fill="url(#f)"/><path d="M56.41,23.87c1.61,5.17-5.61,15.95-14.8,25.66-11.51,12.15-8.06,39.59,18,39.59-5.32,1.52-14.29,1.87-22.51-5.02-10.86-9.09-11.34-26.87-.06-38.7,5.18-5.43,12.29-8.58,16.42-15.03,2.11-3.31,2.96-6.5,2.96-6.5Z" fill="url(#g)"/><path d="M44.74,51.45c-7.07,9.1-7.71,23.75,1.41,32.48,3.02,2.59,6.31,4.07,9.72,4.73-12.29-3.93-20.56-21.68-8.32-34.48,9.24-9.66,10.36-24.98,8.86-30.18,0,0,0,.02-.02,.05,.48,10.27-3.26,16.6-11.66,27.4Z" fill="url(#h)"/><path d="M52.76,15.34s4.55,6.78-4.15,14.74c-3.39,3.1-3.62,3.71-5.45,6.03,0,0,.41-2.73,5.45-9.47,1.98-2.64,5.01-5.95,4.14-11.3Z" fill="url(#i)"/><path d="M52.76,15.34c3.37,9.4-3.86,11.84-9.6,20.77,1.83-2.32,2.26-2.63,5.66-5.73,8.7-7.96,3.94-15.04,3.94-15.04Z" fill="#611fe9"/></g></svg>