<?xml version="1.0" encoding="UTF-8"?><svg id="a" xmlns="http://www.w3.org/2000/svg" width="104.5" height="104.5" viewBox="0 0 104.5 104.5"><circle cx="52.25" cy="52.25" r="52" fill="#fff" stroke="#b3b3b3" stroke-miterlimit="10" stroke-width=".5"/><g><path d="M75.97,69.95c-1.69,8.84-8.22,15.86-16.6,18.36-.22,.07-.03,.01-.25,.07-9.62-1.3-14.83-8.25-9.05-17.3-3.42,11.72,18.04,16.8,25.9-1.14Z" fill="#211a1d"/><path d="M66.83,84.54c-3.75,2.71-7.71,3.84-7.71,3.84-4.42-.24-10.1-3.56-12.69-6.65-6.77-8.06-5.53-20.82,2.87-28.87,3.86-3.7,8.17-3.91,11.75-8.61,0,0,3.42,5.7-1.88,14.34-2.83,4.61-8.46,7.16-9.35,13.71-1.18,8.65,7.41,17.78,17.03,12.24Z" fill="#211a1d"/><path d="M66.83,84.54c-3.75,2.71-7.71,3.84-7.71,3.84-4.42-.24-11.7-4.01-14.3-7.1-6.77-8.06-5.96-19.8,3.85-28.4,4.02-3.53,8.79-3.93,12.37-8.63-2.34,10.45-15.98,11.38-16.35,26.82-.34,14.21,12.77,20.43,22.14,13.47Z" fill="#211a1d"/><path d="M49.81,72.3c.89-6.55,6.53-9.1,9.35-13.71,5.3-8.64,1.88-14.34,1.88-14.34-.01,.02-.03,.04-.04,.05,1.39,9.48-4.82,11.43-11.25,19.95-3.52,4.84-3.68,12.19-.68,16.32,5.84,8.59,14.11,6.59,17.76,3.96-9.62,5.54-18.21-3.6-17.03-12.24Z" fill="#211a1d"/><path d="M55.95,23.67c1.6,5.13-.04,20.53-8.99,30.31-12.8,13.97-1.79,32.91,12.16,34.4-5.27,1.5-14.17,1.85-22.33-4.98-10.77-9.02-11.24-26.65-.06-38.38,5.14-5.39,12.19-8.51,16.28-14.91,2.1-3.28,2.93-6.45,2.93-6.45Z" fill="#211a1d"/><path d="M55.95,23.67c1.6,5.13-5.56,15.82-14.68,25.45-11.42,12.05-7.99,39.27,17.85,39.27-5.27,1.5-14.17,1.85-22.33-4.98-10.77-9.02-11.24-26.65-.06-38.38,5.14-5.39,12.19-8.51,16.28-14.91,2.1-3.28,2.93-6.45,2.93-6.45Z" fill="#211a1d"/><path d="M44.38,51.04c-7.01,9.02-7.65,23.55,1.4,32.21,3,2.57,6.26,4.04,9.65,4.69-12.19-3.9-20.4-21.51-8.25-34.19,9.17-9.58,10.27-24.77,8.78-29.93,0,0,0,.02-.02,.05,.47,10.19-3.24,16.47-11.56,27.17Z" fill="#211a1d"/><path d="M52.33,15.22s4.52,6.72-4.11,14.62c-3.36,3.07-3.59,3.68-5.4,5.98,0,0,.41-2.71,5.41-9.39,1.96-2.62,4.96-5.91,4.11-11.21Z" fill="#211a1d"/><path d="M52.33,15.22c3.34,9.33-3.83,11.74-9.52,20.6,1.82-2.3,2.25-2.61,5.61-5.68,8.63-7.89,3.91-14.92,3.91-14.92Z" fill="#211a1d"/></g></svg>