<?xml version="1.0" encoding="UTF-8"?><svg id="a" xmlns="http://www.w3.org/2000/svg" width="104.99" height="104.99" xmlns:xlink="http://www.w3.org/1999/xlink" viewBox="0 0 104.99 104.99"><defs><linearGradient id="b" x1="48.17" y1="86.95" x2="74.77" y2="65.26" gradientUnits="userSpaceOnUse"><stop offset="0" stop-color="#521ac4"/><stop offset="1" stop-color="#d6dbe5"/></linearGradient><linearGradient id="c" x1="53.62" y1="95.32" x2="57.09" y2="37.83" xlink:href="#b"/><linearGradient id="d" x1="55.99" y1="89.02" x2="50.48" y2="54.94" xlink:href="#b"/><linearGradient id="e" x1="59.29" y1="87.12" x2="54.51" y2="59.97" gradientUnits="userSpaceOnUse"><stop offset="0" stop-color="#d6dbe5" stop-opacity="0"/><stop offset="1" stop-color="#611fe9"/></linearGradient><linearGradient id="f" x1="28.55" y1="56.76" x2="59.43" y2="56.76" gradientUnits="userSpaceOnUse"><stop offset="0" stop-color="#d6dbe5"/><stop offset="1" stop-color="#521ac4"/></linearGradient><linearGradient id="g" x1="43.22" y1="50" x2="50.39" y2="87.41" xlink:href="#f"/><linearGradient id="h" x1="50.58" y1="78.68" x2="46.07" y2="51.22" gradientTransform="translate(5.28 11.45) rotate(1.27)" gradientUnits="userSpaceOnUse"><stop offset="0" stop-color="#d6dbe5" stop-opacity="0"/><stop offset=".11" stop-color="#d3d6e5" stop-opacity=".02"/><stop offset=".24" stop-color="#cccbe5" stop-opacity=".08"/><stop offset=".38" stop-color="#c0b7e5" stop-opacity=".19"/><stop offset=".53" stop-color="#af9ce6" stop-opacity=".33"/><stop offset=".68" stop-color="#9979e7" stop-opacity=".52"/><stop offset=".84" stop-color="#7f4fe7" stop-opacity=".74"/><stop offset="1" stop-color="#611fe9"/></linearGradient><linearGradient id="i" x1="36.06" y1="46.79" x2="55.9" y2="14.47" xlink:href="#b"/></defs><circle cx="52.49" cy="52.49" r="52.49" fill="#211a1d"/><g><path d="M76.44,70.36c-1.71,8.93-8.3,16.01-16.75,18.54-.22,.07-.03,.01-.25,.07-9.71-1.31-14.97-8.33-9.13-17.47-3.45,11.83,18.21,16.96,26.14-1.15Z" fill="url(#b)"/><path d="M67.22,85.1c-3.79,2.73-7.79,3.88-7.79,3.88-4.46-.24-10.19-3.6-12.81-6.72-6.84-8.14-5.59-21.01,2.89-29.14,3.9-3.74,8.24-3.95,11.86-8.69,0,0,3.45,5.75-1.9,14.47-2.85,4.65-8.54,7.23-9.44,13.84-1.19,8.73,7.48,17.95,17.19,12.36Z" fill="url(#c)"/><path d="M67.22,85.1c-3.79,2.73-7.79,3.88-7.79,3.88-4.46-.24-11.82-4.05-14.44-7.17-6.84-8.14-6.02-19.98,3.89-28.67,4.06-3.56,8.88-3.97,12.49-8.71-2.37,10.55-16.13,11.49-16.51,27.07-.34,14.35,12.9,20.62,22.35,13.6Z" fill="url(#d)"/><path d="M50.03,72.74c.9-6.61,6.59-9.19,9.44-13.84,5.35-8.72,1.9-14.47,1.9-14.47-.01,.02-.03,.04-.04,.05,1.41,9.57-4.87,11.54-11.36,20.14-3.55,4.89-3.72,12.3-.68,16.48,5.9,8.67,14.25,6.66,17.93,4-9.71,5.59-18.38-3.63-17.19-12.36Z" fill="url(#e)"/><path d="M56.23,23.65c1.62,5.18-.04,20.73-9.08,30.6-12.92,14.11-1.81,33.22,12.28,34.73-5.32,1.52-14.31,1.87-22.54-5.02-10.88-9.11-11.35-26.9-.06-38.74,5.19-5.44,12.3-8.59,16.44-15.05,2.12-3.31,2.96-6.51,2.96-6.51Z" fill="url(#f)"/><path d="M56.23,23.65c1.62,5.18-5.62,15.97-14.82,25.69-11.53,12.17-8.07,39.64,18.02,39.64-5.32,1.52-14.31,1.87-22.54-5.02-10.88-9.11-11.35-26.9-.06-38.74,5.19-5.44,12.3-8.59,16.44-15.05,2.12-3.31,2.96-6.51,2.96-6.51Z" fill="url(#g)"/><path d="M44.55,51.27c-7.08,9.11-7.72,23.78,1.41,32.52,3.03,2.59,6.32,4.08,9.74,4.74-12.3-3.94-20.59-21.71-8.33-34.52,9.26-9.67,10.37-25.01,8.87-30.22,0,0,0,.02-.02,.05,.48,10.28-3.27,16.62-11.67,27.43Z" fill="url(#h)"/><path d="M52.57,15.11s4.56,6.79-4.15,14.75c-3.39,3.1-3.62,3.72-5.45,6.04,0,0,.41-2.73,5.46-9.48,1.98-2.65,5.01-5.96,4.15-11.32Z" fill="url(#i)"/><path d="M52.57,15.11c3.37,9.41-3.87,11.85-9.61,20.79,1.83-2.32,2.27-2.63,5.66-5.74,8.71-7.97,3.95-15.06,3.95-15.06Z" fill="#611fe9"/></g></svg>