<?xml version="1.0" encoding="UTF-8"?><svg id="a" xmlns="http://www.w3.org/2000/svg" viewBox="0 0 51.36 50.27"><defs><style>.b{fill:#611fe9;}</style></defs><path class="b" d="M46.68,0H4.69C2.1,0,0,2.1,0,4.69v30.17c0,2.58,2.1,4.69,4.69,4.69h15.89c-.26,1.41-1.1,4.55-3.54,4.55h-1.81c-1.7,0-3.09,1.39-3.09,3.09s1.39,3.09,3.09,3.09h21.12c1.7,0,3.09-1.39,3.09-3.09s-1.39-3.09-3.09-3.09h-2.03c-2.45,0-3.29-3.14-3.54-4.55h15.9c2.58,0,4.69-2.1,4.69-4.69V4.69c0-2.58-2.1-4.69-4.69-4.69ZM4.69,1.75H46.68c1.62,0,2.94,1.32,2.94,2.94v28.41h-1.84V5.28c0-.93-.76-1.69-1.69-1.69H5.28c-.93,0-1.69,.76-1.69,1.69v27.82H1.75V4.69c0-1.62,1.32-2.94,2.94-2.94Zm.65,31.35l-.06-27.76,40.75-.06v27.82H5.34Zm31.01,12.75c.74,0,1.34,.6,1.34,1.34s-.6,1.34-1.34,1.34H15.23c-.74,0-1.34-.6-1.34-1.34s.6-1.34,1.34-1.34h21.12Zm-5.54-1.75h-10.25c1.21-1.51,1.66-3.59,1.8-4.55h6.64c.15,.96,.59,3.04,1.8,4.55Zm15.88-6.3H4.69c-1.62,0-2.94-1.32-2.94-2.94H49.61c0,1.62-1.32,2.94-2.94,2.94Z"/><path class="b" d="M33.37,16.23h-1.74v-3.1c0-3.33-2.71-6.04-6.04-6.04s-6.04,2.71-6.04,6.04v.11h1.75v-.11c0-2.37,1.93-4.29,4.29-4.29s4.29,1.93,4.29,4.29v3.1h-12.52c-1.29,0-2.35,1.05-2.35,2.35v10.32c0,1.29,1.05,2.35,2.35,2.35h16.01c1.29,0,2.35-1.05,2.35-2.35v-10.32c0-1.29-1.05-2.35-2.35-2.35Zm.6,12.67c0,.33-.27,.6-.6,.6H17.36c-.33,0-.6-.27-.6-.6v-10.32c0-.33,.27-.6,.6-.6h16.01c.33,0,.6,.27,.6,.6v10.32Z"/><path class="b" d="M21.97,22.91c0-.85-.66-1.42-1.74-1.42-1.26,0-1.86,.71-1.87,1.63h1.03c.08-.52,.42-.74,.82-.74s.63,.23,.63,.55c0,.89-2.4,.84-2.4,2.47v.76h3.52v-.9h-2.31v-.02c0-.86,2.33-.69,2.33-2.31Z"/><path class="b" d="M25.53,21.55h-1.05l-2.08,2.78v.86h2.09v.95h1.03v-.95h.69v-.89h-.69v-2.76Zm-1.03,2.76h-1.11l1.11-1.48v1.48Z"/><polygon class="b" points="26.4 26.2 27.13 26.2 28.75 21.55 28.01 21.55 26.4 26.2"/><path class="b" d="M29.02,22.42h2.41c-1.13,1.42-1.54,3.02-1.57,3.72h1.16c0-1.09,.84-2.91,1.52-3.72v-.88h-3.52v.88Z"/></svg>