<?xml version="1.0" encoding="UTF-8"?><svg id="a" xmlns="http://www.w3.org/2000/svg" width="62.89" height="64.89" viewBox="0 0 62.89 64.89"><path d="M24.79,8.89c-1.42-3.57-1-5.99,1.27-7.74,2.02-1.55,4.8-1.54,6.82,.02,2.24,1.74,2.66,4.2,1.26,7.68,.25,.08,.5,.18,.75,.25,2.7,.68,5.19,1.83,7.43,3.47,.45,.33,.8,.31,1.29,.13,8.43-3.18,17.6,2.1,19.08,10.98,1.21,7.23-3.25,14.2-10.35,16.13-.7,.19-.82,.46-.66,1.09,.61,2.53,1.82,4.59,4.14,5.98,2.67,1.6,3.7,4.54,2.76,7.34-.84,2.47-3.05,4.15-5.66,4.17-4.92,.04-9.85,.03-14.77,0-.67,0-1.01,.12-1.22,.86-.94,3.33-4.03,5.61-7.45,5.62-3.44,.01-6.48-2.22-7.48-5.57-.22-.74-.54-.92-1.27-.92-4.9,.03-9.79,.04-14.69,0-3.46-.03-6.17-2.89-6.04-6.33,.09-2.27,1.11-4.07,3.1-5.21,2.36-1.35,3.54-3.45,4.12-5.98,.1-.45,.1-.94,.11-1.41,.05-3.42-.07-6.85,.17-10.26,.67-9.41,7.46-17.57,16.53-20.08,.24-.07,.47-.14,.76-.23Zm15.34,5.64c-.18-.14-.3-.25-.44-.34-3.74-2.34-7.83-3.33-12.2-2.85-9.67,1.06-16.46,9.29-17.19,18.02-.28,3.37-.13,6.78-.19,10.18,0,.55,0,1.12-.1,1.66-.7,3.45-2.31,6.28-5.47,8.09-1.36,.78-1.96,2.17-1.68,3.52,.36,1.78,1.66,2.8,3.6,2.8,12.66,0,25.32,0,37.99,0,2.76,0,5.51,.01,8.27,0,1.66-.01,2.99-1.14,3.32-2.75,.28-1.36-.37-2.77-1.73-3.59-2.21-1.32-3.84-3.1-4.68-5.55-.37-1.09-.68-2.21-1.01-3.32-6.49-.46-11.25-3.52-13.35-9.79-2.12-6.32-.18-11.68,4.86-16.06Zm-2.84,11.51c.01,6.31,5.16,11.47,11.39,11.44,6.27-.03,11.4-5.2,11.39-11.47,0-6.28-5.16-11.43-11.42-11.42-6.29,.01-11.37,5.13-11.36,11.44Zm-12.53,32.42c.42,2.06,2.64,3.69,4.8,3.6,2.21-.09,4.28-1.71,4.55-3.6h-9.35ZM29.44,8.35c1.56,0,2.76-1.17,2.78-2.7,.02-1.54-1.28-2.86-2.79-2.83-1.48,.02-2.76,1.32-2.76,2.8,0,1.52,1.23,2.73,2.77,2.73Z" fill="#611fe9"/><path d="M13.76,31.07c-.25-9.92,8.27-16.7,16.05-16.15v2.59c-1.2,.19-2.4,.27-3.54,.57-5.41,1.39-9.19,5.94-9.68,11.55q-.13,1.45-1.56,1.45c-.41,0-.82,0-1.28,0Z" fill="#611fe9"/><path d="M47.33,23.27h-2.64c-.36-2.11,1.14-4.23,3.35-4.79,2.24-.56,4.57,.73,5.3,2.94,.59,1.78,.12,3.62-1.4,4.8-.91,.71-1.98,1.22-2.96,1.85-.54,.35-1.04,.76-1.56,1.15l.11,.27h6.08v2.85h-8.91c-.44-3.52-.02-5.02,2.67-6.62,.76-.45,1.56-.85,2.31-1.33,.96-.61,1.24-1.28,.97-2.07-.25-.71-.96-1.21-1.66-1.16-.86,.05-1.42,.66-1.61,1.73-.02,.11-.04,.22-.07,.37Z" fill="#611fe9"/></svg>