<?xml version="1.0" encoding="UTF-8"?><svg id="a" xmlns="http://www.w3.org/2000/svg" viewBox="0 0 49.42 49.5"><defs><style>.b{fill:#611fe9;}</style></defs><g><path class="b" d="M11.74,33.52c-2.91,0-5.75-.57-8.6-3.13C.91,28.38-.2,25.6,.03,22.56c.25-3.26,2-6.27,4.69-8.04l1.1,1.67c-2.18,1.43-3.6,3.87-3.8,6.51-.18,2.41,.69,4.62,2.46,6.2,3.33,2.99,6.52,2.75,10.56,2.45,1.24-.09,2.52-.19,3.88-.19v2c-1.28,0-2.53,.1-3.73,.19-1.16,.09-2.31,.17-3.45,.17Z"/><path class="b" d="M41.11,33.16c-.34,0-.91-.02-1.63-.04-2.12-.06-5.66-.16-8.41,.03l-.14-2c2.85-.2,6.45-.1,8.6-.04,.69,.02,1.24,.04,1.57,.04,3.48,0,6.31-2.83,6.31-6.31s-2.83-6.31-6.31-6.31h-1.91v-1.91c0-4.47-2.38-8.52-6.35-10.84l1.01-1.73c4.57,2.67,7.31,7.33,7.34,12.48,4.54,.05,8.22,3.75,8.22,8.31s-3.73,8.31-8.31,8.31Z"/><polygon class="b" points="35.27 49.5 14.07 49.5 14.07 42.94 16.07 42.94 16.07 47.5 33.27 47.5 33.27 42.94 35.27 42.94 35.27 49.5"/><g><rect class="b" x="23.67" y="29.05" width="2" height="12.88"/><polygon class="b" points="24.67 43.57 18.48 37.38 19.9 35.97 24.67 40.74 29.44 35.97 30.86 37.38 24.67 43.57"/></g></g><path class="b" d="M20.59,19.42c-.07,0-.14,0-.2,0h0c-3.47-.11-6.21-3.03-6.1-6.5,.11-3.47,3.02-6.26,6.5-6.1,1.68,.05,3.24,.76,4.4,1.99,1.15,1.23,1.76,2.83,1.7,4.51-.11,3.4-2.91,6.1-6.3,6.1Zm-.14-2c2.38,.06,4.36-1.79,4.44-4.16,.04-1.15-.38-2.24-1.16-3.08-.79-.84-1.85-1.32-3-1.36-2.37-.05-4.36,1.79-4.44,4.16s1.79,4.36,4.16,4.44h0Z"/><path class="b" d="M23.17,26.23l-6.01-.19,.1-3.12c-.64-.22-1.26-.5-1.85-.84l-2.28,2.14-4.11-4.38,2.28-2.14c-.3-.61-.54-1.24-.72-1.9l-3.12-.1,.19-6.01,3.12,.1c.22-.64,.5-1.26,.84-1.85l-2.14-2.28L13.87,1.56l2.14,2.28c.61-.3,1.24-.54,1.9-.72l.1-3.12,6.01,.19-.1,3.12c.64,.22,1.26,.5,1.85,.84l2.28-2.14,4.11,4.38-2.28,2.14c.3,.61,.54,1.24,.72,1.9l3.12,.1-.19,6.01-3.12-.1c-.22,.64-.5,1.26-.84,1.85l2.14,2.28-4.38,4.11-2.14-2.28c-.61,.3-1.24,.54-1.9,.72l-.1,3.12Zm-3.94-2.13l2.01,.07,.09-2.7,.79-.15c.97-.18,1.89-.53,2.74-1.04l.69-.41,1.85,1.97,1.47-1.38-1.85-1.97,.46-.66c.56-.82,.97-1.72,1.21-2.67l.2-.78,2.7,.09,.06-2.01-2.7-.09-.15-.79c-.18-.96-.53-1.89-1.04-2.74l-.41-.69,1.97-1.85-1.37-1.46-1.97,1.85-.66-.46c-.82-.56-1.72-.97-2.67-1.21l-.78-.2,.09-2.7-2.01-.07-.09,2.7-.79,.15c-.96,.18-1.89,.53-2.74,1.04l-.69,.41-1.85-1.97-1.47,1.37,1.85,1.97-.46,.66c-.56,.82-.97,1.72-1.21,2.67l-.2,.78-2.7-.09-.06,2.01,2.7,.09,.15,.79c.18,.96,.53,1.89,1.04,2.74l.41,.69-1.97,1.85,1.37,1.47,1.97-1.85,.66,.46c.82,.56,1.72,.97,2.67,1.21l.78,.2-.09,2.7Z"/></svg>