<?xml version="1.0" encoding="UTF-8"?><svg id="a" xmlns="http://www.w3.org/2000/svg" viewBox="0 0 54.91 54.91"><defs><style>.b{fill:#611fe9;}</style></defs><path class="b" d="M32.86,54.91h-10.82v-6.58c-1.94-.5-3.79-1.27-5.53-2.3l-4.65,4.65-7.65-7.65,4.65-4.65c-1.03-1.74-1.8-3.59-2.3-5.53H0v-10.82H6.57c.5-1.94,1.27-3.79,2.3-5.52l-4.65-4.65,7.65-7.65,4.65,4.65c1.74-1.03,3.59-1.8,5.53-2.3V0h10.82V6.57c1.94,.5,3.79,1.27,5.52,2.3l4.65-4.65,7.65,7.65-4.65,4.65c1.03,1.74,1.8,3.59,2.3,5.52h6.58v10.82h-6.58c-.5,1.94-1.27,3.79-2.3,5.53l4.65,4.65-7.65,7.65-4.65-4.65c-1.74,1.03-3.59,1.8-5.52,2.3v6.58Zm-8.82-2h6.82v-6.17l.79-.17c2.25-.49,4.38-1.38,6.35-2.64l.68-.43,4.37,4.37,4.82-4.82-4.37-4.37,.43-.68c1.26-1.96,2.15-4.1,2.64-6.35l.17-.79h6.17v-6.82h-6.17l-.17-.79c-.49-2.25-1.38-4.39-2.64-6.35l-.43-.68,4.37-4.37-4.82-4.82-4.37,4.37-.68-.43c-1.96-1.26-4.1-2.15-6.35-2.64l-.79-.17V2h-6.82v6.17l-.79,.17c-2.25,.49-4.39,1.38-6.35,2.64l-.68,.43-4.37-4.37-4.82,4.82,4.37,4.37-.43,.68c-1.26,1.96-2.15,4.1-2.64,6.35l-.17,.79H2v6.82h6.17l.17,.79c.49,2.25,1.38,4.39,2.64,6.35l.43,.68-4.37,4.37,4.82,4.82,4.37-4.37,.68,.43c1.96,1.26,4.1,2.15,6.35,2.64l.79,.17v6.17Z"/><rect class="b" x="14.51" y="18.47" width="3.09" height="2"/><rect class="b" x="20.83" y="18.47" width="19.57" height="2"/><rect class="b" x="14.51" y="26.46" width="18.79" height="2"/><rect class="b" x="36.53" y="26.46" width="3.88" height="2"/><rect class="b" x="14.51" y="34.44" width="8.69" height="2"/><rect class="b" x="26.43" y="34.44" width="13.98" height="2"/><path class="b" d="M19.22,22.08c-1.44,0-2.62-1.17-2.62-2.62s1.17-2.62,2.62-2.62,2.62,1.17,2.62,2.62-1.17,2.62-2.62,2.62Zm0-3.23c-.34,0-.62,.28-.62,.62s.28,.62,.62,.62,.62-.28,.62-.62-.28-.62-.62-.62Z"/><path class="b" d="M34.91,30.07c-1.44,0-2.62-1.17-2.62-2.62s1.17-2.62,2.62-2.62,2.62,1.17,2.62,2.62-1.17,2.62-2.62,2.62Zm0-3.23c-.34,0-.62,.28-.62,.62s.28,.62,.62,.62,.62-.28,.62-.62-.28-.62-.62-.62Z"/><path class="b" d="M24.81,38.06c-1.44,0-2.62-1.17-2.62-2.62s1.17-2.62,2.62-2.62,2.62,1.17,2.62,2.62-1.17,2.62-2.62,2.62Zm0-3.23c-.34,0-.62,.28-.62,.62s.28,.62,.62,.62,.62-.28,.62-.62-.28-.62-.62-.62Z"/></svg>