<?xml version="1.0" encoding="UTF-8"?><svg id="a" xmlns="http://www.w3.org/2000/svg" viewBox="0 0 49.48 49.56"><defs><style>.b{fill:#611fe9;}</style></defs><path class="b" d="M49.48,49.56H0V0H49.48V49.56ZM2,47.56H47.48V2H2V47.56Z"/><path class="b" d="M24.74,22.71c-4.42,0-8.02-3.6-8.02-8.02s3.6-8.02,8.02-8.02,8.02,3.6,8.02,8.02-3.6,8.02-8.02,8.02Zm0-14.03c-3.32,0-6.02,2.7-6.02,6.02s2.7,6.02,6.02,6.02,6.02-2.7,6.02-6.02-2.7-6.02-6.02-6.02Z"/><path class="b" d="M40.19,32.31H9.28c-2.16,0-3.92-1.76-3.92-3.92s1.76-3.92,3.92-3.92h30.91c2.16,0,3.92,1.76,3.92,3.92s-1.76,3.92-3.92,3.92Zm-30.91-5.84c-1.06,0-1.92,.86-1.92,1.92s.86,1.92,1.92,1.92h30.91c1.06,0,1.92-.86,1.92-1.92s-.86-1.92-1.92-1.92H9.28Z"/><path class="b" d="M40.19,42.89H9.28c-2.16,0-3.92-1.76-3.92-3.92s1.76-3.92,3.92-3.92h30.91c2.16,0,3.92,1.76,3.92,3.92s-1.76,3.92-3.92,3.92Zm-30.91-5.84c-1.06,0-1.92,.86-1.92,1.92s.86,1.92,1.92,1.92h30.91c1.06,0,1.92-.86,1.92-1.92s-.86-1.92-1.92-1.92H9.28Z"/><rect class="b" x="23.74" y="10.87" width="2" height="8.22"/><rect class="b" x="20.63" y="13.98" width="8.22" height="2"/></svg>