<?xml version="1.0" encoding="UTF-8"?><svg id="a" xmlns="http://www.w3.org/2000/svg" viewBox="0 0 45.49 50.83"><defs><style>.b{fill:#611fe9;}</style></defs><g><path class="b" d="M23.05,31.27c-4.29,0-7.78-4.1-7.78-9.13s3.49-9.13,7.78-9.13,7.78,4.1,7.78,9.13-3.49,9.13-7.78,9.13Zm0-16.26c-3.19,0-5.78,3.2-5.78,7.13s2.59,7.13,5.78,7.13,5.78-3.2,5.78-7.13-2.59-7.13-5.78-7.13Z"/><rect class="b" x="17.48" y="29.13" width="2.96" height="2" transform="translate(-15.11 40.43) rotate(-74.65)"/><rect class="b" x="25.96" y="29.37" width="2" height="2.36" transform="translate(-6.4 7.15) rotate(-13.53)"/><path class="b" d="M38.02,41.86h-2v-2.83c0-.98-.18-1.87-.52-2.66-1.2-2.73-4.21-3.61-4.76-3.67h-2.87l-1.26,1c-2.29,1.83-5.52,1.71-7.66-.29l-.77-.72h-2.54c-2.66,0-4.56,1.03-5.52,2.99-.41,.83-.63,1.84-.63,2.82v2.48h-2v-2.48c0-.91,.15-2.29,.84-3.7,1.3-2.65,3.9-4.11,7.32-4.11h3.33l1.35,1.25c1.42,1.32,3.54,1.4,5.06,.19l1.8-1.44h3.62c.55,0,4.82,.97,6.53,4.86,.46,1.05,.69,2.21,.69,3.47v2.83Z"/></g><path class="b" d="M22.74,50.83l-.25-.06c-.22-.06-22.25-5.88-22.48-27.32C0,22.34,0,14.21,0,12.29v-1H1C10.43,11.29,21.95,.72,22.06,.61l.66-.61,.68,.6c.12,.11,12.24,10.69,21.08,10.69h1v1.14c0,2.14,0,9.94-.02,11.02-.23,21.44-22.26,27.26-22.48,27.32l-.25,.06ZM2,13.26c0,2.84,0,9.2,.02,10.17,.2,18.74,18.41,24.66,20.73,25.33,2.47-.69,20.52-6.41,20.72-25.33,.01-.97,.02-7.33,.02-10.17-8.25-.6-18.07-8.35-20.73-10.58-2.58,2.25-12.06,10.01-20.76,10.58Z"/></svg>