<?xml version="1.0" encoding="UTF-8"?><svg id="a" xmlns="http://www.w3.org/2000/svg" width="68.34" height="61.22" viewBox="0 0 68.34 61.22"><path d="M27.79,45.74c-4.34-3.29-7.3-7.45-8.97-12.48-1.68-5.04-1.68-10.14-.14-15.4-.61,.34-1.06,.6-1.52,.85-2.89,1.62-5.77,3.24-8.66,4.86-.09,.05-.19,.11-.28,.16-.97,.51-1.95,.29-2.39-.55-.45-.86-.13-1.75,.84-2.3,4.51-2.53,9.02-5.05,13.51-7.59,.35-.2,.68-.52,.89-.86C30.23-3.08,52.4-4.32,63.21,10.08c8.35,11.13,6.33,26.92-4.78,35.32-8.32,6.29-17.4,7-26.86,2.63-.53-.25-.91-.23-1.4,.05-3.92,2.22-7.85,4.42-11.79,6.62-.93,.52-1.77,.4-2.29-.31-.6-.81-.36-1.88,.56-2.4,1.84-1.04,3.69-2.07,5.53-3.1,1.82-1.02,3.65-2.04,5.6-3.14Zm-6.73-18.66c.54,5.82,2.88,10.67,7.11,14.55,3.69,3.4,8.08,5.28,13.17,5.72,0-1.14,0-2.19,0-3.23,0-.76,.33-1.32,1.02-1.63,1.1-.49,2.3,.31,2.33,1.56,.03,1.08,0,2.16,0,3.25,10.42-.53,19.62-9.49,20.21-20.21-.23,0-.46,0-.69,0-.88,0-1.75,.02-2.63,0-.96-.03-1.65-.77-1.63-1.7,.02-.9,.7-1.59,1.64-1.63,.49-.02,.98,0,1.47,0,.61,0,1.22,0,1.83,0-.2-4.77-2.55-10.69-7.44-14.92-3.65-3.16-7.88-4.96-12.77-5.36,0,1.17,.02,2.24,0,3.3-.02,.97-.73,1.68-1.65,1.7-.91,.02-1.64-.68-1.7-1.64-.02-.34,0-.68,0-1.02,0-.76,0-1.52,0-2.28-10.84,.56-19.78,10.03-20.19,20.22,.23,0,.46,0,.69,0,.88,0,1.75,0,2.63,0,.68,.01,1.18,.35,1.45,.98,.48,1.12-.28,2.32-1.52,2.34-1.08,.03-2.16,0-3.33,0Z" fill="#611fe9"/><path d="M27.84,55.62c1.5-.82,2.99-1.64,4.49-2.46,.91-.49,1.89-.25,2.33,.57,.44,.82,.16,1.74-.73,2.23-3.04,1.68-6.09,3.35-9.15,5.01-.83,.45-1.68,.25-2.16-.45-.47-.68-.4-1.54,.2-2.1,.17-.16,.38-.27,.58-.38,1.48-.81,2.95-1.62,4.43-2.43Z" fill="#611fe9"/><path d="M6.29,35.83c-1.25,.69-2.5,1.38-3.76,2.06-.92,.5-1.87,.26-2.32-.56-.45-.83-.15-1.74,.78-2.26,2.52-1.39,5.04-2.77,7.57-4.15,.9-.49,1.81-.26,2.26,.55,.48,.84,.19,1.75-.72,2.26-1.27,.7-2.54,1.39-3.81,2.09Z" fill="#611fe9"/><path d="M13.76,44.46c-.9,.49-1.79,.99-2.69,1.47-.93,.5-1.85,.25-2.3-.6-.44-.82-.15-1.71,.75-2.21,1.77-.98,3.54-1.95,5.32-2.91,.92-.5,1.88-.26,2.33,.55,.45,.81,.13,1.76-.78,2.26-.87,.49-1.75,.96-2.63,1.44Z" fill="#611fe9"/><path d="M5.09,49.2c-.45,.25-.89,.51-1.35,.73-.78,.37-1.7,.08-2.1-.65-.42-.76-.18-1.72,.6-2.17,.88-.51,1.78-1,2.69-1.47,.77-.4,1.66-.1,2.09,.66,.42,.74,.2,1.67-.53,2.13-.45,.28-.93,.52-1.4,.77Z" fill="#611fe9"/><path d="M42.85,28.61c-1.55,0-2.8-1.04-3.17-2.57-.06-.26-.3-.56-.53-.67-2.25-1.12-4.53-2.2-6.79-3.29-.78-.38-1.12-.92-1.04-1.59,.13-1.06,1.19-1.59,2.23-1.09,1.85,.88,3.69,1.77,5.54,2.66,.13,.06,.27,.13,.4,.19,.7,.36,1.29,.69,2.19,.2,1.06-.57,2.26-.37,3.23,.46,.3,.26,.52,.15,.8,.01,4.5-2.16,9-4.32,13.5-6.48,.99-.48,1.92-.2,2.25,.68,.3,.79-.03,1.51-.89,1.93-3.36,1.62-6.73,3.23-10.1,4.85-1.27,.61-2.54,1.22-3.82,1.8-.39,.18-.63,.41-.78,.84-.45,1.28-1.65,2.08-3.01,2.08Z" fill="#611fe9"/></svg>