<?xml version="1.0" encoding="UTF-8"?><svg id="a" xmlns="http://www.w3.org/2000/svg" viewBox="0 0 53.66 49.56"><defs><style>.b{fill:#611fe9;}</style></defs><path class="b" d="M53.66,49.56H0V0H53.66V49.56ZM2,47.56H51.66V2H2V47.56Z"/><rect class="b" x="6.89" y="34.07" width="23.2" height="2"/><rect class="b" x="34.15" y="34.07" width="12.66" height="2"/><rect class="b" x="6.89" y="40.04" width="23.2" height="2"/><rect class="b" x="34.15" y="40.04" width="12.66" height="2"/><polygon class="b" points="46.82 29.28 6.62 29.28 6.62 6.99 8.62 6.99 8.62 27.28 46.82 27.28 46.82 29.28"/><polygon class="b" points="8.39 28.92 6.86 27.63 15.02 17.99 19.71 20.95 25.57 12.97 29.7 15.38 33.15 13.01 36.58 16.15 40.43 11.13 45.24 7.59 46.42 9.2 41.73 12.65 36.86 19.11 32.97 15.56 29.79 17.75 26.12 15.6 20.22 23.63 15.42 20.61 8.39 28.92"/></svg>