<svg id="Layer_1" data-name="Layer 1" xmlns="http://www.w3.org/2000/svg" viewBox="0 0 650.66 90.66"><defs><style>.cls-1{fill:#211a1d;}</style></defs><path class="cls-1" d="M12.73,70.69A22.22,22.22,0,0,1,3,62,23,23,0,0,1,0,50.47H16.44a8.56,8.56,0,0,0,3.45,7.13q3.45,2.67,9.67,2.67,6.75,0,9.81-2a6.72,6.72,0,0,0,3.06-6.07,5.48,5.48,0,0,0-1.59-4,12.45,12.45,0,0,0-4.59-2.72,66.77,66.77,0,0,0-8-2.25,83.61,83.61,0,0,1-13.15-4.21,25.55,25.55,0,0,1-9.49-6.84A16.78,16.78,0,0,1,1.76,20.8a19.62,19.62,0,0,1,3-10.92A19.59,19.59,0,0,1,14,2.59,38.59,38.59,0,0,1,29,0,38.31,38.31,0,0,1,44.27,2.7a19.78,19.78,0,0,1,9.28,7.7,22,22,0,0,1,3.09,11.8H40.2a7,7,0,0,0-2.73-5.63c-1.81-1.5-4.71-2.26-8.68-2.26q-10.59,0-10.59,6.59a5.15,5.15,0,0,0,1.61,3.81,13.09,13.09,0,0,0,5,2.75A70.8,70.8,0,0,0,34,29.72q11.78,2.38,18.44,7.65t6.66,14.91a19.18,19.18,0,0,1-3.68,11.83,22.4,22.4,0,0,1-10.32,7.44,43.45,43.45,0,0,1-15.45,2.51Q19.39,74.06,12.73,70.69Z"/><path class="cls-1" d="M82.29,18.57v6.79a19.44,19.44,0,0,1,7.21-6.27,19.69,19.69,0,0,1,9.07-2.18A24,24,0,0,1,112,20.75a26.23,26.23,0,0,1,9.18,10.37,31.43,31.43,0,0,1,3.29,14.31,31.72,31.72,0,0,1-3.29,14.4A26.28,26.28,0,0,1,112,70.23a23.54,23.54,0,0,1-13.17,3.83,19.52,19.52,0,0,1-9.26-2.23,18.93,18.93,0,0,1-6.82-5.91l.31,6.48V90.66h-16V18.57Zm19.94,39.18A12.08,12.08,0,0,0,106.92,53a15.19,15.19,0,0,0,1.77-7.53A15,15,0,0,0,107,38.07a12.2,12.2,0,0,0-4.7-4.85,13,13,0,0,0-6.53-1.69,11.89,11.89,0,0,0-6.46,1.85,13.1,13.1,0,0,0-4.64,5,14.61,14.61,0,0,0-1.71,7,14.78,14.78,0,0,0,1.76,7.24,12.86,12.86,0,0,0,4.72,4.95,12.3,12.3,0,0,0,6.43,1.77A13,13,0,0,0,102.23,57.75Z"/><path class="cls-1" d="M141.54,70.23a26.09,26.09,0,0,1-8.84-10.4,32.45,32.45,0,0,1-3.19-14.4,31.91,31.91,0,0,1,3.22-14.31,26.54,26.54,0,0,1,8.84-10.4,21.74,21.74,0,0,1,12.58-3.86,23.69,23.69,0,0,1,10.55,2.25,16.35,16.35,0,0,1,7,6.36v-6.9h15.14V72.3H171.68V65.51a16.18,16.18,0,0,1-7,6.32,23.44,23.44,0,0,1-10.43,2.23A22.18,22.18,0,0,1,141.54,70.23Zm23.14-12.71a12.87,12.87,0,0,0,4.66-5,14.71,14.71,0,0,0,1.72-7.08,14.51,14.51,0,0,0-1.72-7,13.3,13.3,0,0,0-4.66-5.06,12,12,0,0,0-6.49-1.87,12.9,12.9,0,0,0-6.51,1.69A12.06,12.06,0,0,0,147,38.07a15.24,15.24,0,0,0-1.71,7.36A15.35,15.35,0,0,0,147.07,53a11.74,11.74,0,0,0,4.67,4.75,13.07,13.07,0,0,0,6.4,1.6A12.27,12.27,0,0,0,164.68,57.52Z"/><path class="cls-1" d="M279.27,23.78q5,6.93,5,19.68V72.3H268.49V43.83q0-6.39-2.39-9.37a8,8,0,0,0-6.59-3,8.53,8.53,0,0,0-5.16,1.79,12.18,12.18,0,0,0-3.84,5,18,18,0,0,0-1.42,7.36V72.3H233.32V43.83q0-6.44-2.36-9.39a8,8,0,0,0-6.61-3,8.43,8.43,0,0,0-5.14,1.79,12.41,12.41,0,0,0-3.83,5,17.75,17.75,0,0,0-1.46,7.34V72.3H198.16V18.57h14.93l.21,6.48a15.9,15.9,0,0,1,6.35-5.91,19.64,19.64,0,0,1,9.47-2.28,19.06,19.06,0,0,1,10.55,2.75,17.74,17.74,0,0,1,6.62,8,24.24,24.24,0,0,1,8-8.19,19.41,19.41,0,0,1,9.95-2.59Q274.3,16.86,279.27,23.78Z"/><path class="cls-1" d="M327.85,1.76a29.08,29.08,0,0,1,12,2.31,17.78,17.78,0,0,1,7.94,6.74,19.44,19.44,0,0,1,2.8,10.56A14.39,14.39,0,0,1,349.45,27a16.36,16.36,0,0,1-3.14,4.87,12.28,12.28,0,0,1-4.25,3,19.24,19.24,0,0,1,6.27,3.63,18.37,18.37,0,0,1,4.54,5.73,15.13,15.13,0,0,1,1.69,7,19.94,19.94,0,0,1-3.37,11.87,19.73,19.73,0,0,1-8.77,6.93,30.42,30.42,0,0,1-11.62,2.2H296.42V1.76Zm4.22,26.33a7.19,7.19,0,0,0,2-5.22,6.9,6.9,0,0,0-2-5.05,6.77,6.77,0,0,0-5-2h-14V30.13H327A6.76,6.76,0,0,0,332.07,28.09ZM335.39,56a7.88,7.88,0,0,0,2.36-6,7.21,7.21,0,0,0-1.09-3.89,7.67,7.67,0,0,0-3-2.8,9.08,9.08,0,0,0-4.33-1H313.07v16H329.3A8.52,8.52,0,0,0,335.39,56Z"/><path class="cls-1" d="M373.93,71.32a20.2,20.2,0,0,1-9.18-8.69q-3.37-6-3.37-15.38V18.57h15.87V46.73q0,12.56,10.06,12.55t10.12-12.55V18.57h15.82V47.25q0,9.39-3.38,15.38a20.1,20.1,0,0,1-9.18,8.69,34.62,34.62,0,0,1-26.76,0Z"/><path class="cls-1" d="M439.1,18.57v7.57a13.58,13.58,0,0,1,12.71-7.57H458V32.16h-5.34q-6.07,0-9.47,4t-3.39,11.41V72.3h-16V18.57Z"/><path class="cls-1" d="M479.74,18.57v6.48a16.66,16.66,0,0,1,6.87-5.94,22.17,22.17,0,0,1,10-2.25q10.72,0,16.1,6.92t5.37,19.68V72.3h-16V43.83q0-6.44-2.64-9.39a9.39,9.39,0,0,0-7.37-3,10.8,10.8,0,0,0-10,6.36,17.32,17.32,0,0,0-1.59,7.8V72.3h-16V18.57Z"/><path class="cls-1" d="M581.68,49.43H542.06a13.21,13.21,0,0,0,4.15,8.06,11.7,11.7,0,0,0,7.93,2.78q7.47,0,9.6-5.5h17.11A24.19,24.19,0,0,1,576,64.16a26.79,26.79,0,0,1-9.13,7.13,29.86,29.86,0,0,1-27.1-1.12,27.21,27.21,0,0,1-10.09-10.39,29.17,29.17,0,0,1-3.63-14.35,29.14,29.14,0,0,1,3.61-14.36,27,27,0,0,1,10.08-10.38,28.38,28.38,0,0,1,14.68-3.83,27.37,27.37,0,0,1,14.45,3.78,26.05,26.05,0,0,1,9.67,10.25A29.69,29.69,0,0,1,582,45,35.51,35.51,0,0,1,581.68,49.43Zm-16-10.79a8.61,8.61,0,0,0-1.82-4.43,10.5,10.5,0,0,0-4-3.12,13.31,13.31,0,0,0-12.53,1,11.77,11.77,0,0,0-4.61,6.54Z"/><path class="cls-1" d="M604.89,18.57v7.57a13.58,13.58,0,0,1,12.71-7.57h6.22V32.16h-5.34q-6.06,0-9.46,4t-3.4,11.41V72.3h-16V18.57Z"/><path class="cls-1" d="M632.18,3.8h-3.63V2.46h8.78V3.8h-3.65V14h-1.5Z"/><path class="cls-1" d="M639.31,2.46h1.3L645,8.26h0l4.37-5.8h1.31V14h-1.5V4.87l-4,5.31h-.43l-4-5.31V14h-1.5Z"/></svg>